<svg id="Capa_1" data-name="Capa 1" xmlns="http://www.w3.org/2000/svg" xmlns:xlink="http://www.w3.org/1999/xlink" viewBox="0 0 522.28 570.86"><defs><style>.cls-1{fill:url(#linear-gradient);}.cls-2{fill:url(#linear-gradient-2);}.cls-3{fill:url(#linear-gradient-3);}.cls-4{fill:url(#linear-gradient-4);}.cls-5{fill:url(#linear-gradient-5);}.cls-6{fill:url(#linear-gradient-6);}.cls-7{fill:url(#linear-gradient-7);}.cls-8{fill:url(#linear-gradient-8);}.cls-9{fill:url(#linear-gradient-9);}</style><linearGradient id="linear-gradient" x1="161.35" y1="108.04" x2="363.54" y2="108.04" gradientUnits="userSpaceOnUse"><stop offset="0" stop-color="#992836"/><stop offset="1" stop-color="#4d141b"/></linearGradient><linearGradient id="linear-gradient-2" x1="226.77" y1="106.04" x2="290.84" y2="106.04" xlink:href="#linear-gradient"/><linearGradient id="linear-gradient-3" x1="208.26" y1="398.49" x2="316.62" y2="398.49" xlink:href="#linear-gradient"/><linearGradient id="linear-gradient-4" x1="191.31" y1="514.82" x2="333.57" y2="514.82" xlink:href="#linear-gradient"/><linearGradient id="linear-gradient-5" x1="27.75" y1="398.49" x2="136.11" y2="398.49" xlink:href="#linear-gradient"/><linearGradient id="linear-gradient-6" x1="10.8" y1="514.82" x2="153.06" y2="514.82" xlink:href="#linear-gradient"/><linearGradient id="linear-gradient-7" x1="388.78" y1="398.49" x2="497.14" y2="398.49" xlink:href="#linear-gradient"/><linearGradient id="linear-gradient-8" x1="371.83" y1="514.82" x2="514.09" y2="514.82" xlink:href="#linear-gradient"/><linearGradient id="linear-gradient-9" x1="75.93" y1="279.31" x2="448.96" y2="279.31" xlink:href="#linear-gradient"/></defs><path class="cls-1" d="M262.44,6.94A101.1,101.1,0,1,0,363.54,108,101.21,101.21,0,0,0,262.44,6.94Zm0,190.19a89.1,89.1,0,1,1,89.1-89.1A89.19,89.19,0,0,1,262.44,197.13Z"/><path class="cls-2" d="M266.33,101.27V70.06a16.71,16.71,0,0,1,12,10.49l1,2.57,10-5.56-.83-2c-3.78-9.13-11.79-15.28-22.18-17.1V46.75H255.49V58.33c-14.24,1.86-24,11.92-24,25.1,0,16.68,12.91,22,24,26v33.1c-9.12-1.11-15.17-5.54-17.58-12.86l-.93-2.85-10.21,5.78.7,1.94c4,11.14,14.16,18.12,28,19.41v11.39h10.84V153.69c14.75-2.27,24.51-12.51,24.51-26C290.84,110.78,277.16,105.13,266.33,101.27ZM255.49,69.82V97.29c-8.23-3.36-12.4-6.83-12.4-13.86C243.09,76.6,248,71.38,255.49,69.82Zm10.84,72.25V113.23c8.32,3.31,12.79,7,12.79,14.42S274.39,140.32,266.33,142.07Z"/><path class="cls-3" d="M262.44,452.67a54.18,54.18,0,1,1,54.18-54.18A54.25,54.25,0,0,1,262.44,452.67Zm0-96.36a42.18,42.18,0,1,0,42.18,42.18A42.23,42.23,0,0,0,262.44,356.31Z"/><path class="cls-4" d="M333.57,564.09H191.31V491.16a25.63,25.63,0,0,1,25.61-25.6h91a25.63,25.63,0,0,1,25.61,25.6Zm-130.26-12H321.57V491.16A13.62,13.62,0,0,0,308,477.56h-91a13.62,13.62,0,0,0-13.61,13.6Z"/><path class="cls-5" d="M81.93,452.67a54.18,54.18,0,1,1,54.18-54.18A54.24,54.24,0,0,1,81.93,452.67Zm0-96.36a42.18,42.18,0,1,0,42.18,42.18A42.23,42.23,0,0,0,81.93,356.31Z"/><path class="cls-6" d="M153.06,564.09H10.8V491.16a25.63,25.63,0,0,1,25.61-25.6h91a25.63,25.63,0,0,1,25.61,25.6Zm-130.26-12H141.06V491.16a13.62,13.62,0,0,0-13.61-13.6h-91a13.62,13.62,0,0,0-13.61,13.6Z"/><path class="cls-7" d="M443,452.67a54.18,54.18,0,1,1,54.18-54.18A54.25,54.25,0,0,1,443,452.67Zm0-96.36a42.18,42.18,0,1,0,42.18,42.18A42.23,42.23,0,0,0,443,356.31Z"/><path class="cls-8" d="M514.09,564.09H371.83V491.16a25.63,25.63,0,0,1,25.61-25.6h91a25.63,25.63,0,0,1,25.61,25.6Zm-130.26-12H502.09V491.16a13.62,13.62,0,0,0-13.61-13.6h-91a13.62,13.62,0,0,0-13.61,13.6Z"/><path class="cls-9" d="M449,267.83v53.6a6,6,0,0,1-12,0v-47.6H268.44v47.6a6,6,0,0,1-12,0v-47.6H87.93v47.6a6,6,0,0,1-12,0V269a4.28,4.28,0,0,1,0-.52.33.33,0,0,1,0-.1,4.12,4.12,0,0,1,0-.51,6,6,0,0,1,6-6H256.44V237.19a6,6,0,0,1,12,0v24.64H443A6,6,0,0,1,449,267.83Z"/></svg>