<svg id="Capa_1" data-name="Capa 1" xmlns="http://www.w3.org/2000/svg" xmlns:xlink="http://www.w3.org/1999/xlink" viewBox="0 0 512 512"><defs><style>.cls-1{fill:url(#linear-gradient);}.cls-2{fill:url(#linear-gradient-2);}.cls-3{fill:url(#linear-gradient-3);}.cls-4{fill:url(#linear-gradient-4);}.cls-5{fill:url(#linear-gradient-5);}.cls-6{fill:url(#linear-gradient-6);}.cls-7{fill:url(#linear-gradient-7);}.cls-8{fill:url(#linear-gradient-8);}.cls-9{fill:url(#linear-gradient-9);}</style><linearGradient id="linear-gradient" x1="161.63" y1="96.83" x2="350.38" y2="96.83" gradientUnits="userSpaceOnUse"><stop offset="0" stop-color="#992836"/><stop offset="1" stop-color="#4d141b"/></linearGradient><linearGradient id="linear-gradient-2" x1="224.01" y1="96.83" x2="287.99" y2="96.83" xlink:href="#linear-gradient"/><linearGradient id="linear-gradient-3" x1="83.59" y1="249.48" x2="428.41" y2="249.48" xlink:href="#linear-gradient"/><linearGradient id="linear-gradient-4" x1="369.4" y1="360.21" x2="472.43" y2="360.21" xlink:href="#linear-gradient"/><linearGradient id="linear-gradient-5" x1="353.91" y1="464.16" x2="487.91" y2="464.16" xlink:href="#linear-gradient"/><linearGradient id="linear-gradient-6" x1="39.57" y1="360.21" x2="142.6" y2="360.21" xlink:href="#linear-gradient"/><linearGradient id="linear-gradient-7" x1="24.09" y1="464.16" x2="158.09" y2="464.16" xlink:href="#linear-gradient"/><linearGradient id="linear-gradient-8" x1="204.48" y1="360.21" x2="307.52" y2="360.21" xlink:href="#linear-gradient"/><linearGradient id="linear-gradient-9" x1="189" y1="464.16" x2="323" y2="464.16" xlink:href="#linear-gradient"/></defs><path class="cls-1" d="M256,191.21A94.38,94.38,0,1,0,205.72,17a7.5,7.5,0,0,0,8,12.69A79.36,79.36,0,1,1,189,54.29a7.5,7.5,0,0,0-12.66-8,94.4,94.4,0,0,0,79.68,145Z"/><path class="cls-2" d="M239,118.53a7.5,7.5,0,1,0-15,0c0,13.74,10.46,25.28,24.49,28.37v4.7a7.5,7.5,0,1,0,15,0v-4.7c14-3.09,24.49-14.63,24.49-28.37a27.76,27.76,0,0,0-7.39-18.68,31.82,31.82,0,0,0-14.35-9,28,28,0,0,0-2.75-.65V62.42c5.61,2.32,9.49,7.14,9.49,12.72a7.5,7.5,0,0,0,15,0c0-13.74-10.46-25.29-24.49-28.37v-4.7a7.5,7.5,0,1,0-15,0v4.7C234.47,49.85,224,61.4,224,75.14a27.22,27.22,0,0,0,2.69,11.73,30.45,30.45,0,0,0,12.81,13.29,33.22,33.22,0,0,0,9,3.33v27.75C242.89,128.92,239,124.1,239,118.53ZM269.52,110a12.82,12.82,0,0,1,3.47,8.57c0,5.57-3.88,10.39-9.49,12.71V105.81A16.63,16.63,0,0,1,269.52,110ZM246.73,87a15.36,15.36,0,0,1-6.51-6.64A12.14,12.14,0,0,1,239,75.14c0-5.58,3.88-10.4,9.49-12.72V87.85A19.22,19.22,0,0,1,246.73,87Z"/><path class="cls-3" d="M91.09,289.31a7.5,7.5,0,0,0,7.5-7.5V248.35H248.5v33.46a7.5,7.5,0,0,0,15,0V248.35H413.41v33.46a7.5,7.5,0,0,0,15,0V242.12c0-.22,0-.43,0-.64s0-.41,0-.63a7.5,7.5,0,0,0-7.5-7.5H263.5v-16.2a7.5,7.5,0,1,0-15,0v16.2H91.09a7.5,7.5,0,0,0-7.5,7.5,6.42,6.42,0,0,1,0,2v38.94A7.5,7.5,0,0,0,91.09,289.31Z"/><path class="cls-4" d="M369.4,360.21a51.52,51.52,0,1,0,51.51-51.52A51.57,51.57,0,0,0,369.4,360.21Zm88,0a36.52,36.52,0,1,1-36.52-36.52A36.56,36.56,0,0,1,457.43,360.21Z"/><path class="cls-5" d="M425.33,417.14h-8.84a62.64,62.64,0,0,0-62.58,62.57v19a12.52,12.52,0,0,0,12.5,12.5h109a12.52,12.52,0,0,0,12.5-12.5v-19A62.64,62.64,0,0,0,425.33,417.14Zm47.58,79.05h-104V479.71a47.63,47.63,0,0,1,47.58-47.57h8.84a47.63,47.63,0,0,1,47.58,47.57Z"/><path class="cls-6" d="M91.09,411.72a51.52,51.52,0,1,0-51.52-51.51A51.57,51.57,0,0,0,91.09,411.72Zm0-88a36.52,36.52,0,1,1-36.52,36.52A36.56,36.56,0,0,1,91.09,323.69Z"/><path class="cls-7" d="M95.51,417.14H86.67A61.92,61.92,0,0,0,48,430.55a7.5,7.5,0,1,0,9.28,11.78,47.09,47.09,0,0,1,29.44-10.19h8.84a47.63,47.63,0,0,1,47.58,47.57v16.48h-104V479.71A47.93,47.93,0,0,1,41,466.27a7.5,7.5,0,1,0-14.39-4.22,62.52,62.52,0,0,0-2.53,17.66v19a12.52,12.52,0,0,0,12.5,12.5h109a12.52,12.52,0,0,0,12.5-12.5v-19A62.64,62.64,0,0,0,95.51,417.14Z"/><path class="cls-8" d="M204.48,360.21A51.52,51.52,0,1,0,256,308.69,51.57,51.57,0,0,0,204.48,360.21Zm88,0A36.52,36.52,0,1,1,256,323.69,36.56,36.56,0,0,1,292.52,360.21Z"/><path class="cls-9" d="M260.42,417.14h-8.84A62.64,62.64,0,0,0,189,479.71v19a12.52,12.52,0,0,0,12.5,12.5h109a12.52,12.52,0,0,0,12.5-12.5v-19A62.64,62.64,0,0,0,260.42,417.14ZM308,496.19H204V479.71a47.63,47.63,0,0,1,47.58-47.57h8.84A47.63,47.63,0,0,1,308,479.71Z"/></svg>