<svg xmlns="http://www.w3.org/2000/svg" xmlns:xlink="http://www.w3.org/1999/xlink" width="99.23" height="109.85" viewBox="0 0 99.23 109.85">
  <defs>
    <linearGradient id="linear-gradient" y1="0.5" x2="1" y2="0.5" gradientUnits="objectBoundingBox">
      <stop offset="0" stop-color="#992836"/>
      <stop offset="1" stop-color="#4d141b"/>
    </linearGradient>
    <linearGradient id="linear-gradient-2" x1="-0.468" y1="0.643" x2="2.956" y2="0.643" xlink:href="#linear-gradient"/>
    <linearGradient id="linear-gradient-3" x1="-0.278" y1="0.187" x2="1" y2="0.187" xlink:href="#linear-gradient"/>
    <linearGradient id="linear-gradient-4" x1="-0.703" y1="0.75" x2="0.574" y2="0.75" xlink:href="#linear-gradient"/>
    <linearGradient id="linear-gradient-5" x1="-0.001" x2="1.001" xlink:href="#linear-gradient"/>
    <linearGradient id="linear-gradient-8" x1="0" x2="1" xlink:href="#linear-gradient"/>
    <linearGradient id="linear-gradient-13" x1="0" x2="1" xlink:href="#linear-gradient"/>
  </defs>
  <g id="Assistencia_financeira" data-name="Assistencia financeira" transform="translate(-5.55)">
    <path id="Caminho_356" data-name="Caminho 356" d="M176.148,0A20.048,20.048,0,1,0,196.2,20.048,20.048,20.048,0,0,0,176.148,0Zm0,37.715a17.669,17.669,0,1,1,17.669-17.669A17.669,17.669,0,0,1,176.148,37.715Z" transform="translate(-120.983)" fill="url(#linear-gradient)"/>
    <path id="Caminho_357" data-name="Caminho 357" d="M281.374,71.93h0a.026.026,0,0,0,0,.028h0Z" transform="translate(-221.439 -57.666)" fill="url(#linear-gradient-2)"/>
    <path id="Caminho_358" data-name="Caminho 358" d="M281.394,72.048h-.01a.026.026,0,0,1,0-.028h0v.032Z" transform="translate(-221.447 -57.738)" fill="url(#linear-gradient-3)"/>
    <path id="Caminho_359" data-name="Caminho 359" d="M281.414,71.962V71.93h0a.026.026,0,0,0,0,.028h.01Z" transform="translate(-221.471 -57.666)" fill="url(#linear-gradient-4)"/>
    <path id="Caminho_360" data-name="Caminho 360" d="M229.542,47.976V41.787a3.308,3.308,0,0,1,2.38,2.08.379.379,0,0,0,.032.063l.073.286a1.071,1.071,0,0,0,1.041.805,1.122,1.122,0,0,0,.278-.036,1.073,1.073,0,0,0,.793-.9.461.461,0,0,0,0-.052,1.41,1.41,0,0,0,.018-.288,2.107,2.107,0,0,0-.145-.656s.012.012-.028-.085a.7.7,0,0,0-.044-.123,5.636,5.636,0,0,0-4.4-3.393V37.648a.524.524,0,0,0,0-.058v-.016a1.073,1.073,0,1,0-2.146.016v1.87a5.067,5.067,0,0,0-4.759,4.975c0,3.31,2.558,4.363,4.759,5.156v6.566a3.82,3.82,0,0,1-3.486-2.552.4.4,0,0,0-.058-.115,1.059,1.059,0,0,0-.478-.623,1.081,1.081,0,0,0-1.618.793.472.472,0,0,0,0,.052,1.658,1.658,0,0,0-.02.3,2.193,2.193,0,0,0,.145.658l.069.169v.012c.024.058.052.111.077.167l.012.028a6.184,6.184,0,0,0,5.354,3.371v1.767a.374.374,0,0,0,0,.067,1.071,1.071,0,0,0,2.136.042.028.028,0,0,0,0-.018.382.382,0,0,0,0-.083V58.361c2.925-.448,4.86-2.479,4.86-5.156C234.4,49.862,231.689,48.741,229.542,47.976Zm4.026-4.442v.046h-.01a.026.026,0,0,1,0-.028Zm-6.175,3.651c-1.636-.662-2.461-1.352-2.461-2.748a2.8,2.8,0,0,1,2.461-2.7Zm2.15,8.882V50.347c1.65.656,2.534,1.388,2.534,2.858A2.87,2.87,0,0,1,229.542,56.066Z" transform="translate(-173.6 -29.27)" fill="url(#linear-gradient-5)"/>
    <path id="Caminho_361" data-name="Caminho 361" d="M281.414,71.962V71.93h0a.026.026,0,0,0,0,.028h.01Z" transform="translate(-221.471 -57.666)" fill="url(#linear-gradient-4)"/>
    <path id="Caminho_362" data-name="Caminho 362" d="M213.764,358.848A10.744,10.744,0,1,1,224.508,348.1,10.744,10.744,0,0,1,213.764,358.848Zm0-19.108a8.364,8.364,0,1,0,8.364,8.364A8.364,8.364,0,0,0,213.764,339.74Z" transform="translate(-158.599 -270.936)" fill="url(#linear-gradient)"/>
    <path id="Caminho_363" data-name="Caminho 363" d="M214.281,478.149H186.07v-14.46a5.084,5.084,0,0,1,5.079-5.079h18.046a5.084,5.084,0,0,1,5.079,5.079Zm-25.831-2.38H211.9V463.689a2.7,2.7,0,0,0-2.7-2.7H191.156a2.7,2.7,0,0,0-2.7,2.7Z" transform="translate(-145.01 -368.299)" fill="url(#linear-gradient-8)"/>
    <path id="Caminho_364" data-name="Caminho 364" d="M33.244,358.848A10.744,10.744,0,1,1,43.988,348.1,10.744,10.744,0,0,1,33.244,358.848Zm0-19.108a8.364,8.364,0,1,0,8.364,8.364A8.364,8.364,0,0,0,33.244,339.74Z" transform="translate(-13.589 -270.936)" fill="url(#linear-gradient)"/>
    <path id="Caminho_365" data-name="Caminho 365" d="M33.761,478.149H5.55v-14.46a5.084,5.084,0,0,1,5.079-5.079H28.684a5.082,5.082,0,0,1,5.077,5.079ZM7.93,475.769H31.381V463.689a2.7,2.7,0,0,0-2.7-2.7H10.638a2.7,2.7,0,0,0-2.7,2.7Z" transform="translate(0 -368.299)" fill="url(#linear-gradient-8)"/>
    <path id="Caminho_366" data-name="Caminho 366" d="M394.284,358.848A10.744,10.744,0,1,1,405.028,348.1,10.744,10.744,0,0,1,394.284,358.848Zm0-19.108a8.364,8.364,0,1,0,8.364,8.364,8.364,8.364,0,0,0-8.364-8.364Z" transform="translate(-303.609 -270.936)" fill="url(#linear-gradient)"/>
    <path id="Caminho_367" data-name="Caminho 367" d="M394.8,478.149H366.59v-14.46a5.084,5.084,0,0,1,5.079-5.079h18.046a5.084,5.084,0,0,1,5.079,5.079Zm-25.831-2.38h23.451V463.689a2.7,2.7,0,0,0-2.7-2.7H371.676a2.7,2.7,0,0,0-2.7,2.7Z" transform="translate(-290.021 -368.299)" fill="url(#linear-gradient-8)"/>
    <path id="Caminho_368" data-name="Caminho 368" d="M144.073,231.516v10.627a1.181,1.181,0,1,1-2.361,0v-9.437H108.554v9.437a1.181,1.181,0,1,1-2.361,0v-9.437H73.035v9.437a1.181,1.181,0,1,1-2.361,0V231.736a.844.844,0,0,1,0-.1.066.066,0,0,1,0-.02.844.844,0,0,1,0-.1,1.185,1.185,0,0,1,1.181-1.19h34.338V225.44a1.181,1.181,0,1,1,2.361,0v4.886h34.338a1.185,1.185,0,0,1,1.181,1.19Z" transform="translate(-52.208 -180.088)" fill="url(#linear-gradient-13)"/>
  </g>
</svg>
