<svg xmlns="http://www.w3.org/2000/svg" width="125" height="107" viewBox="0 0 125 107">
  <g id="Grupo_25-6" transform="translate(-35 574.5)">
    <ellipse id="Elipse_1-32" cx="62.5" cy="53.5" rx="62.5" ry="53.5" transform="translate(35 -574.5)" fill="#fff"/>
    <g id="XMLID_98_32" transform="translate(77.674 3631.398)">
      <g id="XMLID_99_32">
        <path id="XMLID_103_32" d="M26.7-4169.5a.192.192,0,0,0-.3.1c0,.1-.1.1,0,.2v27.6l12.1,6a.7.7,0,0,0,1-.2c.1-.2.2-.3.1-.5v-26.6c0-.1-.1-.3-.2-.3Z" fill="#d0d2d3"/>
        <path id="XMLID_102_32" d="M13.2-4148.2l13-21.1a.481.481,0,0,1,.6-.2l12.5,6.3c.1.1.2.3.1.4h0l-13,21.1Z" fill="#a6a8ab"/>
        <path id="XMLID_101_32" d="M1.5-4168.9c-.8-.4-1.1-.1-.6.7l12.3,20,13.2,6.6-13.1-21.3c-.1-.1-.1-.2-.2-.2Z" fill="#808184"/>
        <path id="XMLID_100_32" d="M13.2-4136.3c.1.4-.2.7-.6.8a.749.749,0,0,1-.5-.1L.7-4141.3a1.388,1.388,0,0,1-.7-1.2v-26.4c0-.3.1-.5.4-.5a.367.367,0,0,1,.3.1l12.3,6.1c.1,0,.2.1.2.3v26.6Z" fill="#58595b"/>
      </g>
    </g>
    <path id="Caminho_7-32" d="M136.6-484.6s5,5.1,3.6,11,11.2-16,6.1-16.7S136.6-484.6,136.6-484.6Z" fill="#fff"/>
  </g>
</svg>
