<svg id="Capa_1" data-name="Capa 1" xmlns="http://www.w3.org/2000/svg" xmlns:xlink="http://www.w3.org/1999/xlink" viewBox="0 0 512 512"><defs><style>.cls-1{fill:url(#linear-gradient);}.cls-2{fill:url(#linear-gradient-2);}.cls-3{fill:url(#linear-gradient-3);}.cls-4{fill:url(#linear-gradient-4);}.cls-5{fill:url(#linear-gradient-5);}.cls-6{fill:url(#linear-gradient-6);}.cls-7{fill:url(#linear-gradient-7);}.cls-8{fill:url(#linear-gradient-8);}.cls-9{fill:url(#linear-gradient-9);}.cls-10{fill:url(#linear-gradient-10);}.cls-11{fill:url(#linear-gradient-11);}</style><linearGradient id="linear-gradient" x1="219.96" y1="113.26" x2="408.33" y2="113.26" gradientUnits="userSpaceOnUse"><stop offset="0" stop-color="#992836"/><stop offset="1" stop-color="#4d141b"/></linearGradient><linearGradient id="linear-gradient-2" x1="355.59" y1="324.92" x2="458.62" y2="324.92" xlink:href="#linear-gradient"/><linearGradient id="linear-gradient-3" x1="340.11" y1="428.87" x2="474.1" y2="428.87" xlink:href="#linear-gradient"/><linearGradient id="linear-gradient-4" x1="25.77" y1="324.92" x2="128.8" y2="324.92" xlink:href="#linear-gradient"/><linearGradient id="linear-gradient-5" x1="10.29" y1="428.87" x2="144.28" y2="428.87" xlink:href="#linear-gradient"/><linearGradient id="linear-gradient-6" x1="190.68" y1="324.92" x2="293.71" y2="324.92" xlink:href="#linear-gradient"/><linearGradient id="linear-gradient-7" x1="175.2" y1="428.87" x2="309.19" y2="428.87" xlink:href="#linear-gradient"/><linearGradient id="linear-gradient-8" x1="141.38" y1="496.85" x2="474.43" y2="496.85" xlink:href="#linear-gradient"/><linearGradient id="linear-gradient-9" x1="11.39" y1="496.85" x2="73.37" y2="496.85" xlink:href="#linear-gradient"/><linearGradient id="linear-gradient-10" x1="95.23" y1="496.85" x2="122.01" y2="496.85" xlink:href="#linear-gradient"/><linearGradient id="linear-gradient-11" x1="82.83" y1="131.96" x2="501.71" y2="131.96" xlink:href="#linear-gradient"/></defs><path class="cls-1" d="M227.47,170.39a7.44,7.44,0,0,0,4.84-1.78l17.5-14.83h0l30.54-25.89h0l24.32-20.61,3,32.58a7.5,7.5,0,0,0,12.33,5l72.23-61.63L390.91,105a7.49,7.49,0,0,0,7,8l.47,0a7.5,7.5,0,0,0,7.48-7l2.44-39.37v-.25c0-.14,0-.29,0-.43l0-.35c0-.13,0-.25,0-.38l-.06-.37c0-.11,0-.23-.07-.35l-.09-.36c0-.12-.07-.23-.11-.34a3.59,3.59,0,0,0-.12-.35c-.05-.11-.09-.23-.14-.34l-.16-.33c-.06-.11-.11-.22-.17-.32l-.21-.34c-.06-.09-.12-.19-.19-.28a4.11,4.11,0,0,0-.27-.35l-.14-.19s0,0,0,0-.21-.22-.31-.33L406,60.6a3.47,3.47,0,0,1-.29-.25,3.11,3.11,0,0,0-.28-.23l-.23-.17-.37-.25-.21-.12-.42-.23-.31-.14c-.12-.05-.23-.11-.35-.15l-.37-.13-.32-.1-.35-.08-.38-.08-.31,0-.43-.05h-.06l-39.37-2.43a7.5,7.5,0,1,0-.93,15l20.85,1.29L321.3,124.07l-3-32.53a7.5,7.5,0,0,0-12.32-5l-35.31,29.93h0l-30.54,25.88h0l-17.49,14.83a7.5,7.5,0,0,0,4.85,13.22Z"/><path class="cls-2" d="M407.11,376.43a51.52,51.52,0,1,0-51.52-51.51A51.57,51.57,0,0,0,407.11,376.43Zm0-88a36.52,36.52,0,1,1-36.52,36.52A36.56,36.56,0,0,1,407.11,288.4Z"/><path class="cls-3" d="M340.11,463.4a12.52,12.52,0,0,0,12.5,12.5h109a12.51,12.51,0,0,0,12.5-12.5v-19a62.64,62.64,0,0,0-62.57-62.57h-8.85a62.64,62.64,0,0,0-62.57,62.57Zm15-19a47.62,47.62,0,0,1,47.57-47.57h8.85a47.62,47.62,0,0,1,47.57,47.57V460.9h-104Z"/><path class="cls-4" d="M77.29,376.43a51.52,51.52,0,1,0-51.52-51.51A51.57,51.57,0,0,0,77.29,376.43Zm0-88a36.52,36.52,0,1,1-36.52,36.52A36.56,36.56,0,0,1,77.29,288.4Z"/><path class="cls-5" d="M144.28,444.42a62.64,62.64,0,0,0-62.57-62.57H72.86a62,62,0,0,0-38.72,13.41A7.5,7.5,0,0,0,43.43,407a47.07,47.07,0,0,1,29.43-10.19h8.85a47.62,47.62,0,0,1,47.57,47.57V460.9h-104V444.42A47.45,47.45,0,0,1,27.21,431a7.5,7.5,0,1,0-14.39-4.23,62.57,62.57,0,0,0-2.53,17.66v19a12.52,12.52,0,0,0,12.5,12.5h109a12.51,12.51,0,0,0,12.5-12.5Z"/><path class="cls-6" d="M242.2,376.43a51.52,51.52,0,1,0-51.52-51.51A51.57,51.57,0,0,0,242.2,376.43Zm0-88a36.52,36.52,0,1,1-36.52,36.52A36.56,36.56,0,0,1,242.2,288.4Z"/><path class="cls-7" d="M175.2,463.4a12.52,12.52,0,0,0,12.5,12.5h109a12.51,12.51,0,0,0,12.5-12.5v-19a62.64,62.64,0,0,0-62.57-62.57h-8.85a62.64,62.64,0,0,0-62.57,62.57Zm15-19a47.62,47.62,0,0,1,47.57-47.57h8.85a47.62,47.62,0,0,1,47.57,47.57V460.9h-104Z"/><path class="cls-8" d="M466.93,489.35h-318a7.5,7.5,0,0,0,0,15H466.93a7.5,7.5,0,0,0,0-15Z"/><path class="cls-9" d="M65.87,489.35h-47a7.5,7.5,0,1,0,0,15h47a7.5,7.5,0,0,0,0-15Z"/><path class="cls-10" d="M114.51,489.35H102.73a7.5,7.5,0,0,0,0,15h11.78a7.5,7.5,0,0,0,0-15Z"/><path class="cls-11" d="M489.21,7.65H166.53A12.52,12.52,0,0,0,154,20.15V79.77a45.79,45.79,0,1,0,0,88.39v5a55.35,55.35,0,0,0-8.1-.6h-7.69A54.87,54.87,0,0,0,104,184.39a7.5,7.5,0,0,0,9.29,11.78,40,40,0,0,1,25-8.66h7.69a40.45,40.45,0,0,1,40.41,40.41v13.35H97.83V227.92a40.5,40.5,0,0,1,1.63-11.41,7.5,7.5,0,1,0-14.39-4.23,55.32,55.32,0,0,0-2.24,15.64v16.5a11.86,11.86,0,0,0,11.85,11.85h94.81a11.86,11.86,0,0,0,11.85-11.85v-16.5a55.2,55.2,0,0,0-.75-9.06H489.21a12.52,12.52,0,0,0,12.5-12.5V20.15A12.52,12.52,0,0,0,489.21,7.65ZM111.3,124a30.79,30.79,0,1,1,30.79,30.79A30.82,30.82,0,0,1,111.3,124Zm375.41,79.9H195.84A55.75,55.75,0,0,0,169,177.57V161a45.71,45.71,0,0,0,0-74V22.65H486.71Z"/></svg>