<svg id="Capa_1" data-name="Capa 1" xmlns="http://www.w3.org/2000/svg" xmlns:xlink="http://www.w3.org/1999/xlink" viewBox="0 0 483.29 516.71"><defs><style>.cls-1{fill:url(#linear-gradient);}.cls-2{fill:url(#linear-gradient-2);}.cls-3{fill:url(#linear-gradient-3);}.cls-4{fill:url(#linear-gradient-4);}.cls-5{fill:url(#linear-gradient-5);}.cls-6{fill:url(#linear-gradient-6);}.cls-7{fill:url(#linear-gradient-7);}.cls-8{fill:url(#linear-gradient-8);}.cls-9{fill:url(#linear-gradient-9);}.cls-10{fill:url(#linear-gradient-10);}</style><linearGradient id="linear-gradient" x1="187.87" y1="344.45" x2="295.42" y2="357.77" gradientUnits="userSpaceOnUse"><stop offset="0" stop-color="#992836"/><stop offset="1" stop-color="#4d141b"/></linearGradient><linearGradient id="linear-gradient-2" x1="168.33" y1="459.85" x2="317.53" y2="478.33" xlink:href="#linear-gradient"/><linearGradient id="linear-gradient-3" x1="17.36" y1="344.45" x2="124.9" y2="357.77" xlink:href="#linear-gradient"/><linearGradient id="linear-gradient-4" x1="-2.19" y1="459.85" x2="147.01" y2="478.33" xlink:href="#linear-gradient"/><linearGradient id="linear-gradient-5" x1="62.39" y1="115.11" x2="478.63" y2="166.68" xlink:href="#linear-gradient"/><linearGradient id="linear-gradient-6" x1="358.39" y1="344.45" x2="465.94" y2="357.77" xlink:href="#linear-gradient"/><linearGradient id="linear-gradient-7" x1="338.85" y1="459.85" x2="488.05" y2="478.33" xlink:href="#linear-gradient"/><linearGradient id="linear-gradient-8" x1="398.06" y1="74.69" x2="398.1" y2="74.69" xlink:href="#linear-gradient"/><linearGradient id="linear-gradient-9" x1="398" y1="73.72" x2="398.12" y2="73.72" xlink:href="#linear-gradient"/><linearGradient id="linear-gradient-10" x1="199.43" y1="124.94" x2="398.11" y2="124.94" xlink:href="#linear-gradient"/></defs><path class="cls-1" d="M241.65,405.29a54.18,54.18,0,1,1,54.18-54.18A54.24,54.24,0,0,1,241.65,405.29Zm0-96.36a42.18,42.18,0,1,0,42.18,42.18A42.23,42.23,0,0,0,241.65,308.93Z"/><path class="cls-2" d="M312.78,516.71H170.52V443.79a25.64,25.64,0,0,1,25.61-25.61h91a25.64,25.64,0,0,1,25.61,25.61Zm-130.26-12H300.78V443.79a13.62,13.62,0,0,0-13.61-13.61h-91a13.62,13.62,0,0,0-13.61,13.61Z"/><path class="cls-3" d="M71.13,405.29a54.18,54.18,0,1,1,54.18-54.18A54.24,54.24,0,0,1,71.13,405.29Zm0-96.36a42.18,42.18,0,1,0,42.18,42.18A42.23,42.23,0,0,0,71.13,308.93Z"/><path class="cls-4" d="M142.26,516.71H0V443.79a25.64,25.64,0,0,1,25.61-25.61h91a25.64,25.64,0,0,1,25.61,25.61ZM12,504.71H130.26V443.79a13.62,13.62,0,0,0-13.61-13.61h-91A13.62,13.62,0,0,0,12,443.79Z"/><path class="cls-5" d="M463.29,6.22H141.77a6,6,0,0,0-6,6v69.5a48.21,48.21,0,1,0,0,86.46v16.45H73.92a22.82,22.82,0,0,0-22.79,22.79v64.9h126.6v-24.6H463.29a6,6,0,0,0,6-6V12.22A6,6,0,0,0,463.29,6.22ZM114.43,162.48a37.65,37.65,0,1,1,21.34-6.68A37.58,37.58,0,0,1,114.43,162.48Zm52.62,99.16H61.81V207.42a12.12,12.12,0,0,1,12.11-12.11h81a12.12,12.12,0,0,1,12.11,12.11Zm290.24-25.92H177.73v-28.3a22.82,22.82,0,0,0-22.79-22.79h-7.17V159.74a48.12,48.12,0,0,0,0-69.59V18.22H457.29Z"/><path class="cls-6" d="M412.16,405.29a54.18,54.18,0,1,1,54.19-54.18A54.25,54.25,0,0,1,412.16,405.29Zm0-96.36a42.18,42.18,0,1,0,42.19,42.18A42.23,42.23,0,0,0,412.16,308.93Z"/><path class="cls-7" d="M483.29,516.71H341V443.79a25.64,25.64,0,0,1,25.61-25.61h91.05a25.63,25.63,0,0,1,25.6,25.61ZM353,504.71H471.29V443.79a13.62,13.62,0,0,0-13.6-13.61H366.64A13.62,13.62,0,0,0,353,443.79Z"/><path class="cls-8" d="M398.1,74.49l0,.32a.29.29,0,0,1,0,.09C398.08,74.77,398.09,74.63,398.1,74.49Z"/><path class="cls-9" d="M398.1,74.49A6.05,6.05,0,0,0,398,73,5.71,5.71,0,0,1,398.1,74.49Z"/><path class="cls-10" d="M398.06,74.9a.29.29,0,0,0,0-.09l-2.6,42.07a6,6,0,0,1-6,5.63l-.38,0a6,6,0,0,1-5.62-6.35l1.75-28.28L303.76,157.4a6,6,0,0,1-9.87-4l-3.6-39.06-81,68.63a6,6,0,0,1-8.45-.69,6,6,0,0,1,.69-8.46l89.77-76.09a6,6,0,0,1,9.86,4l3.6,39,72.14-61.57-27.57-1.71a6,6,0,1,1,.74-12l42,2.6.37,0a5.32,5.32,0,0,1,.56.06h.06a4.64,4.64,0,0,1,.51.11h.06a3.68,3.68,0,0,1,.47.15l.11,0,.45.19a5,5,0,0,1,.84.5,4.76,4.76,0,0,1,.77.64,1.85,1.85,0,0,1,.28.28l.21.25.09.11.24.34.08.13c.08.13.16.27.23.41s.16.32.23.48a.08.08,0,0,0,0,0c.06.17.12.34.17.51A4.92,4.92,0,0,1,398,73a6.05,6.05,0,0,1,.1,1.54C398.09,74.63,398.08,74.77,398.06,74.9Z"/><path class="cls-8" d="M398.1,74.49l0,.32a.29.29,0,0,1,0,.09C398.08,74.77,398.09,74.63,398.1,74.49Z"/></svg>