<svg id="Consultoria" xmlns="http://www.w3.org/2000/svg" xmlns:xlink="http://www.w3.org/1999/xlink" width="95.284" height="100.647" viewBox="0 0 95.284 100.647">
  <defs>
    <linearGradient id="linear-gradient" x1="0.004" y1="0.439" x2="0.996" y2="0.561" gradientUnits="objectBoundingBox">
      <stop offset="0" stop-color="#992836"/>
      <stop offset="1" stop-color="#4d141b"/>
    </linearGradient>
    <linearGradient id="linear-gradient-2" x1="-0.015" y1="0.423" x2="1.033" y2="0.61" xlink:href="#linear-gradient"/>
    <linearGradient id="linear-gradient-3" x1="0.004" y1="0.439" x2="0.996" y2="0.561" xlink:href="#linear-gradient"/>
    <linearGradient id="linear-gradient-5" x1="0.027" y1="0.409" x2="1.022" y2="0.603" xlink:href="#linear-gradient"/>
    <linearGradient id="linear-gradient-7" x1="-0.015" y1="0.423" x2="1.033" y2="0.61" xlink:href="#linear-gradient"/>
    <linearGradient id="linear-gradient-8" x1="-1.886" y1="0.488" x2="0.767" y2="0.488" xlink:href="#linear-gradient"/>
    <linearGradient id="linear-gradient-9" x1="0" y1="0.483" x2="1.073" y2="0.483" xlink:href="#linear-gradient"/>
    <linearGradient id="linear-gradient-10" x1="0" y1="0.5" x2="1" y2="0.5" xlink:href="#linear-gradient"/>
  </defs>
  <path id="Caminho_284" data-name="Caminho 284" d="M198.152,318.294a10.682,10.682,0,1,1,10.682-10.682,10.682,10.682,0,0,1-10.682,10.682Zm0-19a8.316,8.316,0,1,0,8.316,8.316A8.316,8.316,0,0,0,198.152,299.3Z" transform="translate(-150.509 -239.614)" fill="url(#linear-gradient)"/>
  <path id="Caminho_285" data-name="Caminho 285" d="M198.568,437.606H170.52V423.229a5.055,5.055,0,0,1,5.049-5.049h17.941a5.055,5.055,0,0,1,5.049,5.049Zm-25.682-2.366H196.2V423.229a2.685,2.685,0,0,0-2.683-2.683H175.577a2.685,2.685,0,0,0-2.683,2.683Z" transform="translate(-136.901 -336.959)" fill="url(#linear-gradient-2)"/>
  <path id="Caminho_286" data-name="Caminho 286" d="M27.632,318.294a10.682,10.682,0,1,1,10.682-10.682,10.682,10.682,0,0,1-10.682,10.682Zm0-19a8.316,8.316,0,1,0,8.316,8.316A8.316,8.316,0,0,0,27.632,299.3Z" transform="translate(-13.608 -239.614)" fill="url(#linear-gradient-3)"/>
  <path id="Caminho_287" data-name="Caminho 287" d="M28.048,437.606H0V423.229a5.055,5.055,0,0,1,5.049-5.049H22.991a5.055,5.055,0,0,1,5.049,5.049ZM2.366,435.24H25.682V423.229A2.685,2.685,0,0,0,23,420.546H5.057a2.685,2.685,0,0,0-2.691,2.683Z" transform="translate(0 -336.959)" fill="url(#linear-gradient-2)"/>
  <path id="Caminho_288" data-name="Caminho 288" d="M132.391,6.22H69A1.183,1.183,0,0,0,67.817,7.4v13.7a9.5,9.5,0,1,0,0,17.046v3.243H55.623a4.5,4.5,0,0,0-4.493,4.493v12.8H76.09v-4.85h56.3a1.183,1.183,0,0,0,1.183-1.183V7.4A1.183,1.183,0,0,0,132.391,6.22ZM63.61,37.028a7.423,7.423,0,1,1,4.207-1.317A7.423,7.423,0,0,1,63.61,37.028Zm10.374,19.55H53.236V45.888A2.39,2.39,0,0,1,55.623,43.5h15.97a2.39,2.39,0,0,1,2.388,2.388Zm57.223-5.11H76.09v-5.58A4.5,4.5,0,0,0,71.6,41.395H70.183V36.488a9.487,9.487,0,0,0,0-13.72V8.586h61.024Z" transform="translate(-41.049 -6.22)" fill="url(#linear-gradient-5)"/>
  <path id="Caminho_289" data-name="Caminho 289" d="M368.67,318.294a10.682,10.682,0,1,1,10.684-10.683A10.682,10.682,0,0,1,368.67,318.294Zm0-19a8.316,8.316,0,1,0,8.318,8.317A8.316,8.316,0,0,0,368.67,299.3Z" transform="translate(-287.409 -239.614)" fill="url(#linear-gradient)"/>
  <path id="Caminho_290" data-name="Caminho 290" d="M369.054,437.606H341V423.229a5.055,5.055,0,0,1,5.049-5.049H364a5.053,5.053,0,0,1,5.047,5.049Zm-25.688-2.366h23.322V423.229a2.685,2.685,0,0,0-2.681-2.683H346.055a2.685,2.685,0,0,0-2.689,2.683Z" transform="translate(-273.769 -336.959)" fill="url(#linear-gradient-7)"/>
  <path id="Caminho_291" data-name="Caminho 291" d="M398.091,74.49v.063a.058.058,0,0,1,0,.018A.373.373,0,0,1,398.091,74.49Z" transform="translate(-319.602 -61.03)" fill="url(#linear-gradient-8)"/>
  <path id="Caminho_292" data-name="Caminho 292" d="M398.02,73.294A1.191,1.191,0,0,0,398,73,1.124,1.124,0,0,1,398.02,73.294Z" transform="translate(-319.531 -59.834)" fill="url(#linear-gradient-9)"/>
  <path id="Caminho_293" data-name="Caminho 293" d="M238.577,67.3a.058.058,0,0,0,0-.018l-.513,8.294a1.183,1.183,0,0,1-1.183,1.11h-.075a1.183,1.183,0,0,1-1.108-1.252l.345-5.576L219.985,83.569a1.183,1.183,0,0,1-1.946-.789l-.71-7.7L201.36,88.611a1.183,1.183,0,0,1-1.53-1.8l17.7-15a1.183,1.183,0,0,1,1.944.789l.71,7.689,14.223-12.139-5.436-.337a1.185,1.185,0,0,1,.146-2.366l8.281.513h.073a1.051,1.051,0,0,1,.11.012h.012a.911.911,0,0,1,.1.022h.012a.725.725,0,0,1,.093.03h.022l.089.037a.986.986,0,0,1,.166.1.938.938,0,0,1,.152.126.365.365,0,0,1,.055.055l.041.049.018.022.047.067.016.026c.016.026.032.053.045.081s.032.063.045.095.024.067.034.1a.975.975,0,0,1,.039.156,1.192,1.192,0,0,1,.02.3C238.583,67.251,238.581,67.278,238.577,67.3Z" transform="translate(-160.096 -53.763)" fill="url(#linear-gradient-10)"/>
  <path id="Caminho_294" data-name="Caminho 294" d="M398.091,74.49v.063a.058.058,0,0,1,0,.018A.373.373,0,0,1,398.091,74.49Z" transform="translate(-319.602 -61.03)" fill="url(#linear-gradient-8)"/>
</svg>
