<svg id="Capa_1" data-name="Capa 1" xmlns="http://www.w3.org/2000/svg" xmlns:xlink="http://www.w3.org/1999/xlink" viewBox="0 0 512 512"><defs><style>.cls-1{fill:url(#linear-gradient);}.cls-2{fill:url(#linear-gradient-2);}.cls-3{fill:url(#linear-gradient-3);}.cls-4{fill:url(#linear-gradient-4);}.cls-5{fill:url(#linear-gradient-5);}.cls-6{fill:url(#linear-gradient-6);}.cls-7{fill:url(#linear-gradient-7);}.cls-8{fill:url(#linear-gradient-8);}.cls-9{fill:url(#linear-gradient-9);}.cls-10{fill:url(#linear-gradient-10);}.cls-11{fill:url(#linear-gradient-11);}</style><linearGradient id="linear-gradient" x1="81.3" y1="118.69" x2="342.61" y2="118.69" gradientUnits="userSpaceOnUse"><stop offset="0" stop-color="#992836"/><stop offset="1" stop-color="#4d141b"/></linearGradient><linearGradient id="linear-gradient-2" x1="281.65" y1="254.21" x2="345.76" y2="254.21" xlink:href="#linear-gradient"/><linearGradient id="linear-gradient-3" x1="181.87" y1="254.21" x2="245.99" y2="254.21" xlink:href="#linear-gradient"/><linearGradient id="linear-gradient-4" x1="181.87" y1="330.3" x2="245.99" y2="330.3" xlink:href="#linear-gradient"/><linearGradient id="linear-gradient-5" x1="181.64" y1="406.4" x2="245.75" y2="406.4" xlink:href="#linear-gradient"/><linearGradient id="linear-gradient-6" x1="82.22" y1="330.3" x2="146.33" y2="330.3" xlink:href="#linear-gradient"/><linearGradient id="linear-gradient-7" x1="81.98" y1="406.4" x2="146.1" y2="406.4" xlink:href="#linear-gradient"/><linearGradient id="linear-gradient-8" x1="82.1" y1="254.21" x2="146.22" y2="254.21" xlink:href="#linear-gradient"/><linearGradient id="linear-gradient-9" x1="139.51" y1="118.69" x2="284.39" y2="118.69" xlink:href="#linear-gradient"/><linearGradient id="linear-gradient-10" x1="32.86" y1="256.39" x2="479.14" y2="256.39" xlink:href="#linear-gradient"/><linearGradient id="linear-gradient-11" x1="352.78" y1="415.64" x2="416.75" y2="415.64" xlink:href="#linear-gradient"/></defs><path class="cls-1" d="M93.8,183.71H330.11a12.52,12.52,0,0,0,12.5-12.5v-105a12.52,12.52,0,0,0-12.5-12.5H168.46a7.5,7.5,0,0,0,0,15H327.61V168.71H96.3V68.66h21.07a7.5,7.5,0,0,0,0-15H93.8a12.52,12.52,0,0,0-12.5,12.5V171.21A12.52,12.52,0,0,0,93.8,183.71Z"/><path class="cls-2" d="M333.26,222.15H294.15a12.51,12.51,0,0,0-12.5,12.5v39.12a12.51,12.51,0,0,0,12.5,12.5h39.11a12.51,12.51,0,0,0,12.5-12.5V234.65A12.51,12.51,0,0,0,333.26,222.15Zm-2.5,49.12H296.65V237.15h34.11Z"/><path class="cls-3" d="M233.49,222.15H194.37a12.52,12.52,0,0,0-12.5,12.5v39.12a12.52,12.52,0,0,0,12.5,12.5h39.12a12.52,12.52,0,0,0,12.5-12.5V234.65A12.52,12.52,0,0,0,233.49,222.15ZM231,271.27H196.87V237.15H231Z"/><path class="cls-4" d="M233.49,298.25H194.37a12.51,12.51,0,0,0-12.5,12.5v39.11a12.52,12.52,0,0,0,12.5,12.5h39.12a12.52,12.52,0,0,0,12.5-12.5V310.75A12.51,12.51,0,0,0,233.49,298.25ZM231,347.36H196.87V313.25H231Z"/><path class="cls-5" d="M233.25,374.34H194.14a12.52,12.52,0,0,0-12.5,12.5V426a12.52,12.52,0,0,0,12.5,12.5h39.11a12.51,12.51,0,0,0,12.5-12.5V386.84A12.51,12.51,0,0,0,233.25,374.34Zm-2.5,49.12H196.64V389.34h34.11Z"/><path class="cls-6" d="M133.83,298.25H94.72a12.51,12.51,0,0,0-12.5,12.5v39.11a12.52,12.52,0,0,0,12.5,12.5h39.11a12.51,12.51,0,0,0,12.5-12.5V310.75A12.5,12.5,0,0,0,133.83,298.25Zm-2.5,49.11H97.22V313.25h34.11Z"/><path class="cls-7" d="M133.6,374.34H94.48A12.52,12.52,0,0,0,82,386.84V426a12.52,12.52,0,0,0,12.5,12.5H133.6A12.52,12.52,0,0,0,146.1,426V386.84A12.52,12.52,0,0,0,133.6,374.34Zm-2.5,49.12H97V389.34H131.1Z"/><path class="cls-8" d="M94.6,222.15a12.52,12.52,0,0,0-12.5,12.5v39.12a12.52,12.52,0,0,0,12.5,12.5h39.12a12.52,12.52,0,0,0,12.5-12.5V234.65a12.52,12.52,0,0,0-12.5-12.5Zm36.62,49.12H97.1V237.15h34.12Z"/><path class="cls-9" d="M151,152.12l39.4-25,2.91,20.53a7.48,7.48,0,0,0,7.42,6.44,7.43,7.43,0,0,0,4-1.18l61.52-39.3-2.76,14.68a7.34,7.34,0,0,0-.13,1.39,7.5,7.5,0,0,0,14.87,1.38l6-31.72h0c0-.06,0-.12,0-.17s0-.25,0-.37l0-.36c0-.12,0-.23,0-.35s0-.25,0-.38,0-.22,0-.33,0-.25-.05-.38,0-.22-.05-.33l-.09-.37a3,3,0,0,0-.08-.32l-.12-.37-.12-.31c-.05-.13-.11-.26-.17-.38l-.12-.27c-.08-.15-.16-.29-.25-.43a1.62,1.62,0,0,0-.1-.18s0,0,0,0a.05.05,0,0,0,0,0h0l-.08-.1a7.21,7.21,0,0,0-.47-.62l-.17-.19a5.92,5.92,0,0,0-.56-.56l-.08-.08h0l0,0a8.27,8.27,0,0,0-.66-.51l-.19-.12c-.18-.1-.35-.21-.53-.3l-.28-.14-.52-.22-.27-.1a8.19,8.19,0,0,0-.81-.23h0L246,83.45a7.5,7.5,0,0,0-3.24,14.64l14.82,3.29L206.55,134l-2.9-20.48a7.49,7.49,0,0,0-11.44-5.28L143,139.46a7.5,7.5,0,0,0,8,12.66Z"/><path class="cls-10" d="M464.65,365.36a7.5,7.5,0,0,0-12.69,8,79.34,79.34,0,1,1-24.65-24.75A7.5,7.5,0,0,0,435.36,336a93.9,93.9,0,0,0-42.71-14.36V15.27a12.52,12.52,0,0,0-12.5-12.5H45.36a12.52,12.52,0,0,0-12.5,12.5V482a12.52,12.52,0,0,0,12.5,12.5h287.7A94.36,94.36,0,0,0,464.65,365.36ZM330.76,338.28a94.93,94.93,0,0,0-34.11,43.57v-68.6h34.11ZM47.86,479.53V17.77H377.65V321.53a93.91,93.91,0,0,0-31.89,8.17V310.75a12.5,12.5,0,0,0-12.5-12.5H294.15a12.5,12.5,0,0,0-12.5,12.5V426a12.51,12.51,0,0,0,11.52,12.45,94.33,94.33,0,0,0,22.21,41.12Z"/><path class="cls-11" d="M401.75,393.94a7.5,7.5,0,1,0,15,0c0-13.74-10.45-25.28-24.48-28.37v-4.7a7.5,7.5,0,0,0-15,0v4.7c-14,3.09-24.49,14.63-24.49,28.37a27.32,27.32,0,0,0,2.68,11.73A30.51,30.51,0,0,0,368.27,419a33,33,0,0,0,9,3.33V450c-5.62-2.31-9.49-7.13-9.49-12.71a7.5,7.5,0,1,0-15,0c0,13.74,10.46,25.28,24.49,28.37v4.7a7.5,7.5,0,0,0,15,0v-4.7c14-3.09,24.48-14.63,24.48-28.37a27.73,27.73,0,0,0-7.39-18.68A31.69,31.69,0,0,0,395,409.7c-.93-.27-1.85-.48-2.75-.65V381.23C397.88,383.55,401.75,388.37,401.75,393.94Zm-24.48,12.71a16.08,16.08,0,0,1-1.78-.84,15.34,15.34,0,0,1-6.51-6.63,12.28,12.28,0,0,1-1.2-5.24c0-5.57,3.87-10.39,9.49-12.71Zm21,22.11a12.79,12.79,0,0,1,3.47,8.57c0,5.58-3.87,10.4-9.48,12.71V424.61A16.51,16.51,0,0,1,398.28,428.76Z"/></svg>