<svg xmlns="http://www.w3.org/2000/svg" xmlns:xlink="http://www.w3.org/1999/xlink" width="114.532" height="112.971" viewBox="0 0 114.532 112.971"><defs><style>.a{fill:url(#a);}.b{fill:url(#c);}.c{fill:url(#d);}.d{fill:url(#e);}.e{fill:url(#f);}.f{fill:url(#i);}.g{fill:url(#j);}</style><linearGradient id="a" y1="0.5" x2="1" y2="0.5" gradientUnits="objectBoundingBox"><stop offset="0" stop-color="#992836"/><stop offset="1" stop-color="#4d141b"/></linearGradient><linearGradient id="c" x1="0" y1="0.5" x2="1" y2="0.5" xlink:href="#a"/><linearGradient id="d" x1="-0.001" y1="0.5" x2="1.001" y2="0.5" xlink:href="#a"/><linearGradient id="e" x1="-0.001" y1="0.5" x2="1.001" y2="0.5" xlink:href="#a"/><linearGradient id="f" x1="0" y1="0.5" x2="1" y2="0.5" xlink:href="#a"/><linearGradient id="i" x1="0" y1="0.5" x2="1" y2="0.5" xlink:href="#a"/><linearGradient id="j" x1="0" y1="0.5" x2="1" y2="0.5" xlink:href="#a"/></defs><path class="a" d="M120.943,39.522,106.15,40.65l.187,2.47,10.334-.791L93.323,67.609,89.669,50.523l-5.488,5.9V9.085A3.705,3.705,0,0,0,80.475,5.38H10.165A3.705,3.705,0,0,0,6.46,9.085v99.122a3.705,3.705,0,0,0,3.705,3.705H73.6A20.8,20.8,0,1,0,84.18,77.227V60.061L88.238,55.7,91.9,72.8,118.489,44l.033,10.369,2.47-.01ZM10.165,109.442a1.235,1.235,0,0,1-1.235-1.235V9.085A1.235,1.235,0,0,1,10.165,7.85h70.31A1.235,1.235,0,0,1,81.71,9.085V77.933a20.852,20.852,0,0,0-7.763,4.9v-10.6a2.369,2.369,0,0,0-2.367-2.367H63.131a2.369,2.369,0,0,0-2.367,2.367V97.3a2.369,2.369,0,0,0,2.367,2.367h4.817a20.668,20.668,0,0,0,3.633,9.77Zm61.32-37.1V85.8a20.677,20.677,0,0,0-3.64,11.4H63.234V72.342Zm17.167,6.863a18.342,18.342,0,1,1-18.34,18.341,18.343,18.343,0,0,1,18.34-18.341Z" transform="translate(-6.46 -5.38)"/><path class="a" d="M112.543,87.955h-51.5a2.369,2.369,0,0,1-2.367-2.367V62.737a2.369,2.369,0,0,1,2.367-2.367h51.5a2.369,2.369,0,0,1,2.367,2.367v22.85a2.369,2.369,0,0,1-2.367,2.367ZM61.15,85.485h51.29V62.84H61.15Z" transform="translate(-47.93 -49.05)"/><path class="b" d="M281.074,251.169h-8.457a2.369,2.369,0,0,1-2.367-2.367v-8.455a2.369,2.369,0,0,1,2.367-2.367h8.457a2.369,2.369,0,0,1,2.367,2.367V248.8a2.369,2.369,0,0,1-2.367,2.367Zm-8.354-2.47h8.251v-8.245H272.72Z" transform="translate(-215.946 -190.097)"/><path class="c" d="M175.308,251.185h-8.44a2.369,2.369,0,0,1-2.367-2.367v-8.455A2.369,2.369,0,0,1,166.867,238h8.44a2.369,2.369,0,0,1,2.367,2.367v8.455A2.369,2.369,0,0,1,175.308,251.185Zm-8.354-2.47H175.2V240.47h-8.243Z" transform="translate(-131.966 -190.113)"/><path class="d" d="M175.308,331.849h-8.44a2.369,2.369,0,0,1-2.367-2.367v-8.455a2.369,2.369,0,0,1,2.367-2.367h8.44a2.369,2.369,0,0,1,2.367,2.367v8.455A2.369,2.369,0,0,1,175.308,331.849Zm-8.354-2.47H175.2V321.13h-8.243Z" transform="translate(-131.966 -254.168)"/><path class="e" d="M175.034,412.531h-8.457a2.369,2.369,0,0,1-2.367-2.367v-8.457a2.369,2.369,0,0,1,2.367-2.367h8.457a2.369,2.369,0,0,1,2.367,2.367v8.457a2.369,2.369,0,0,1-2.367,2.367Zm-8.354-2.47h8.251V401.81H166.68Z" transform="translate(-131.736 -318.239)"/><path class="a" d="M69.624,331.849H61.167a2.369,2.369,0,0,1-2.367-2.367v-8.455a2.369,2.369,0,0,1,2.367-2.367h8.457a2.369,2.369,0,0,1,2.367,2.367v8.455A2.369,2.369,0,0,1,69.624,331.849Zm-8.354-2.47h8.251V321.13H61.27Z" transform="translate(-48.025 -254.168)"/><path class="e" d="M69.374,412.531H60.917a2.369,2.369,0,0,1-2.367-2.367v-8.457a2.369,2.369,0,0,1,2.367-2.367h8.457a2.369,2.369,0,0,1,2.367,2.367v8.457a2.369,2.369,0,0,1-2.367,2.367Zm-8.354-2.47h8.251V401.81H61.02Z" transform="translate(-47.827 -318.239)"/><path class="f" d="M69.5,251.185H61.047a2.369,2.369,0,0,1-2.367-2.367v-8.455A2.369,2.369,0,0,1,61.047,238H69.5a2.369,2.369,0,0,1,2.367,2.367v8.455A2.369,2.369,0,0,1,69.5,251.185Zm-8.352-2.47H69.4V240.47H61.15Z" transform="translate(-47.93 -190.113)"/><path class="g" d="M381.064,405.215v-6.423a3.43,3.43,0,0,1,2.47,2.157l.206.529,2.059-1.145-.171-.412a5.851,5.851,0,0,0-4.566-3.52V394h-2.227v2.386c-2.934.383-4.941,2.452-4.941,5.165,0,3.436,2.658,4.529,4.941,5.352v6.816a3.968,3.968,0,0,1-3.621-2.649l-.191-.585-2.1,1.19.144.4c.823,2.291,2.915,3.728,5.764,3.994v2.347h2.229V416c3.039-.467,5.046-2.575,5.046-5.352C386.112,407.175,383.293,406.01,381.064,405.215Zm-2.229-.823c-1.7-.694-2.555-1.406-2.555-2.855a2.907,2.907,0,0,1,2.555-2.8Zm4.862,6.248a2.977,2.977,0,0,1-2.633,2.971v-5.933c1.713.681,2.633,1.435,2.633,2.966Z" transform="translate(-297.48 -313.999)"/></svg>