<svg id="contabilidade" xmlns="http://www.w3.org/2000/svg" xmlns:xlink="http://www.w3.org/1999/xlink" width="109.691" height="108.196" viewBox="0 0 109.691 108.196">
  <defs>
    <linearGradient id="linear-gradient" y1="0.5" x2="1" y2="0.5" gradientUnits="objectBoundingBox">
      <stop offset="0" stop-color="#992836"/>
      <stop offset="1" stop-color="#4d141b"/>
    </linearGradient>
    <linearGradient id="linear-gradient-3" x1="0" y1="0.5" x2="1" y2="0.5" xlink:href="#linear-gradient"/>
    <linearGradient id="linear-gradient-4" x1="-0.001" y1="0.5" x2="1.001" y2="0.5" xlink:href="#linear-gradient"/>
    <linearGradient id="linear-gradient-5" x1="-0.001" y1="0.5" x2="1.001" y2="0.5" xlink:href="#linear-gradient"/>
    <linearGradient id="linear-gradient-6" x1="0" y1="0.5" x2="1" y2="0.5" xlink:href="#linear-gradient"/>
    <linearGradient id="linear-gradient-9" x1="0" y1="0.5" x2="1" y2="0.5" xlink:href="#linear-gradient"/>
    <linearGradient id="linear-gradient-10" x1="0" y1="0.5" x2="1" y2="0.5" xlink:href="#linear-gradient"/>
  </defs>
  <path id="Caminho_346" data-name="Caminho 346" d="M116.1,38.079l-14.168,1.08.179,2.366,9.9-.757L89.651,64.979l-3.5-16.364-5.256,5.651V8.929A3.549,3.549,0,0,0,77.346,5.38H10.009A3.549,3.549,0,0,0,6.46,8.929V103.86a3.549,3.549,0,0,0,3.549,3.549H70.761A19.925,19.925,0,1,0,80.895,74.19V57.749l3.886-4.18,3.5,16.376,25.469-27.575.032,9.931,2.366-.01ZM10.009,105.043a1.183,1.183,0,0,1-1.183-1.183V8.929a1.183,1.183,0,0,1,1.183-1.183H77.346a1.183,1.183,0,0,1,1.183,1.183V74.866a19.97,19.97,0,0,0-7.435,4.694V69.413a2.269,2.269,0,0,0-2.267-2.267H60.736a2.269,2.269,0,0,0-2.267,2.267V93.419a2.269,2.269,0,0,0,2.267,2.267h4.613a19.8,19.8,0,0,0,3.48,9.357ZM68.736,69.512V82.4A19.8,19.8,0,0,0,65.25,93.32H60.834V69.512Zm16.441,6.573A17.567,17.567,0,1,1,67.612,93.651,17.567,17.567,0,0,1,85.177,76.085Z" transform="translate(-6.46 -5.38)" fill="url(#linear-gradient)"/>
  <path id="Caminho_347" data-name="Caminho 347" d="M110.266,86.789H60.947a2.269,2.269,0,0,1-2.267-2.267V62.637a2.269,2.269,0,0,1,2.267-2.267h49.319a2.269,2.269,0,0,1,2.267,2.267V84.522a2.269,2.269,0,0,1-2.267,2.267Zm-49.22-2.366h49.122V62.736H61.046Z" transform="translate(-48.384 -49.528)" fill="url(#linear-gradient)"/>
  <path id="Caminho_348" data-name="Caminho 348" d="M280.617,250.612h-8.1a2.269,2.269,0,0,1-2.267-2.267v-8.1a2.269,2.269,0,0,1,2.267-2.267h8.1a2.269,2.269,0,0,1,2.267,2.267v8.1A2.269,2.269,0,0,1,280.617,250.612Zm-8-2.366h7.9v-7.9h-7.9Z" transform="translate(-218.242 -192.121)" fill="url(#linear-gradient-3)"/>
  <path id="Caminho_349" data-name="Caminho 349" d="M174.851,250.628h-8.083a2.269,2.269,0,0,1-2.267-2.267v-8.1A2.269,2.269,0,0,1,166.767,238h8.083a2.269,2.269,0,0,1,2.267,2.267v8.1a2.269,2.269,0,0,1-2.267,2.263Zm-8-2.366h7.9v-7.9h-7.894Z" transform="translate(-133.341 -192.137)" fill="url(#linear-gradient-4)"/>
  <path id="Caminho_350" data-name="Caminho 350" d="M174.851,331.292h-8.083a2.269,2.269,0,0,1-2.267-2.267v-8.1a2.269,2.269,0,0,1,2.267-2.267h8.083a2.269,2.269,0,0,1,2.267,2.267v8.1a2.269,2.269,0,0,1-2.267,2.267Zm-8-2.366h7.9v-7.9h-7.894Z" transform="translate(-133.341 -256.894)" fill="url(#linear-gradient-5)"/>
  <path id="Caminho_351" data-name="Caminho 351" d="M174.577,411.974h-8.1a2.269,2.269,0,0,1-2.267-2.267v-8.1a2.269,2.269,0,0,1,2.267-2.267h8.1a2.269,2.269,0,0,1,2.267,2.267v8.1a2.269,2.269,0,0,1-2.267,2.267Zm-8-2.366h7.9v-7.9h-7.9Z" transform="translate(-133.108 -321.668)" fill="url(#linear-gradient-6)"/>
  <path id="Caminho_352" data-name="Caminho 352" d="M69.167,331.292h-8.1a2.269,2.269,0,0,1-2.267-2.267v-8.1a2.269,2.269,0,0,1,2.267-2.267h8.1a2.269,2.269,0,0,1,2.267,2.267v8.1A2.269,2.269,0,0,1,69.167,331.292Zm-8-2.366h7.9v-7.9h-7.9Z" transform="translate(-48.481 -256.894)" fill="url(#linear-gradient)"/>
  <path id="Caminho_353" data-name="Caminho 353" d="M68.917,411.974h-8.1a2.269,2.269,0,0,1-2.267-2.267v-8.1a2.269,2.269,0,0,1,2.267-2.267h8.1a2.269,2.269,0,0,1,2.267,2.267v8.1a2.269,2.269,0,0,1-2.267,2.267Zm-8-2.366h7.9v-7.9h-7.9Z" transform="translate(-48.28 -321.668)" fill="url(#linear-gradient-6)"/>
  <path id="Caminho_354" data-name="Caminho 354" d="M69.045,250.628h-8.1a2.269,2.269,0,0,1-2.267-2.267v-8.1A2.269,2.269,0,0,1,60.947,238h8.1a2.269,2.269,0,0,1,2.267,2.267v8.1A2.269,2.269,0,0,1,69.045,250.628Zm-8-2.366h7.9v-7.9h-7.9Z" transform="translate(-48.384 -192.137)" fill="url(#linear-gradient-9)"/>
  <path id="Caminho_355" data-name="Caminho 355" d="M380.72,404.741V398.59a3.285,3.285,0,0,1,2.366,2.066l.2.507,1.972-1.1-.164-.394a5.6,5.6,0,0,0-4.373-3.371V394h-2.133v2.285a5.037,5.037,0,0,0-4.732,4.947c0,3.291,2.545,4.337,4.732,5.126v6.528a3.8,3.8,0,0,1-3.468-2.537l-.183-.56-2.013,1.14.138.382c.789,2.194,2.792,3.571,5.52,3.825v2.248h2.135v-2.309c2.91-.448,4.832-2.466,4.832-5.126C385.554,406.618,382.855,405.5,380.72,404.741Zm-2.135-.789c-1.625-.664-2.447-1.347-2.447-2.735a2.784,2.784,0,0,1,2.447-2.681Zm4.657,5.984a2.851,2.851,0,0,1-2.522,2.845V407.1c1.64.653,2.522,1.374,2.522,2.841Z" transform="translate(-300.67 -317.38)" fill="url(#linear-gradient-10)"/>
</svg>
