<svg id="Capa_1" data-name="Capa 1" xmlns="http://www.w3.org/2000/svg" xmlns:xlink="http://www.w3.org/1999/xlink" viewBox="0 0 567 558.42"><defs><style>.cls-1{fill:url(#linear-gradient);}.cls-2{fill:url(#linear-gradient-2);}.cls-3{fill:url(#linear-gradient-3);}.cls-4{fill:url(#linear-gradient-4);}.cls-5{fill:url(#linear-gradient-5);}.cls-6{fill:url(#linear-gradient-6);}.cls-7{fill:url(#linear-gradient-7);}.cls-8{fill:url(#linear-gradient-8);}.cls-9{fill:url(#linear-gradient-9);}.cls-10{fill:url(#linear-gradient-10);}</style><linearGradient id="linear-gradient" x1="6.46" y1="279.81" x2="562.83" y2="279.81" gradientUnits="userSpaceOnUse"><stop offset="0" stop-color="#992836"/><stop offset="1" stop-color="#4d141b"/></linearGradient><linearGradient id="linear-gradient-2" x1="58.68" y1="127.38" x2="331.83" y2="127.38" xlink:href="#linear-gradient"/><linearGradient id="linear-gradient-3" x1="270.25" y1="270.01" x2="334.33" y2="270.01" xlink:href="#linear-gradient"/><linearGradient id="linear-gradient-4" x1="164.46" y1="270.01" x2="228.54" y2="270.01" xlink:href="#linear-gradient"/><linearGradient id="linear-gradient-5" x1="164.46" y1="350.7" x2="228.54" y2="350.7" xlink:href="#linear-gradient"/><linearGradient id="linear-gradient-6" x1="164.21" y1="431.38" x2="228.29" y2="431.38" xlink:href="#linear-gradient"/><linearGradient id="linear-gradient-7" x1="58.8" y1="350.7" x2="122.88" y2="350.7" xlink:href="#linear-gradient"/><linearGradient id="linear-gradient-8" x1="58.55" y1="431.38" x2="122.63" y2="431.38" xlink:href="#linear-gradient"/><linearGradient id="linear-gradient-9" x1="58.68" y1="270.01" x2="122.75" y2="270.01" xlink:href="#linear-gradient"/><linearGradient id="linear-gradient-10" x1="372.92" y1="453.25" x2="436.99" y2="453.25" xlink:href="#linear-gradient"/></defs><path class="cls-1" d="M562.58,171.23l-71.86,5.48.91,12,50.2-3.84L428.41,307.67l-17.75-83L384,253.33V23.38a18,18,0,0,0-18-18H24.46a18,18,0,0,0-18,18v481.5a18,18,0,0,0,18,18H332.6A101.06,101.06,0,1,0,384,354.39V271l19.71-21.2,17.77,83.06L550.66,193l.16,50.37,12-.05ZM24.46,510.88a6,6,0,0,1-6-6V23.38a6,6,0,0,1,6-6H366a6,6,0,0,1,6,6V357.82a101.29,101.29,0,0,0-37.71,23.81V330.16a11.51,11.51,0,0,0-11.5-11.5H281.75a11.51,11.51,0,0,0-11.5,11.5V451.92a11.51,11.51,0,0,0,11.5,11.5h23.4a100.4,100.4,0,0,0,17.65,47.46ZM322.33,330.66v65.39a100.44,100.44,0,0,0-17.68,55.37h-22.4V330.66ZM405.72,364a89.1,89.1,0,1,1-89.09,89.1A89.2,89.2,0,0,1,405.72,364Z"/><path class="cls-2" d="M320.33,194.37H70.18a11.51,11.51,0,0,1-11.5-11.5v-111a11.51,11.51,0,0,1,11.5-11.5H320.33a11.51,11.51,0,0,1,11.5,11.5v111A11.51,11.51,0,0,1,320.33,194.37Zm-249.65-12H319.83v-110H70.68Z"/><path class="cls-3" d="M322.83,302.05H281.75a11.51,11.51,0,0,1-11.5-11.5V249.48a11.51,11.51,0,0,1,11.5-11.5h41.08a11.51,11.51,0,0,1,11.5,11.5v41.07A11.51,11.51,0,0,1,322.83,302.05Zm-40.58-12h40.08V250H282.25Z"/><path class="cls-4" d="M217,302.05H176a11.51,11.51,0,0,1-11.5-11.5V249.48A11.51,11.51,0,0,1,176,238H217a11.51,11.51,0,0,1,11.5,11.5v41.07A11.51,11.51,0,0,1,217,302.05Zm-40.58-12h40.08V250H176.46Z"/><path class="cls-5" d="M217,382.73H176a11.51,11.51,0,0,1-11.5-11.5V330.16a11.51,11.51,0,0,1,11.5-11.5H217a11.51,11.51,0,0,1,11.5,11.5v41.07A11.51,11.51,0,0,1,217,382.73Zm-40.58-12h40.08V330.66H176.46Z"/><path class="cls-6" d="M216.79,463.42H175.71a11.51,11.51,0,0,1-11.5-11.5V410.84a11.51,11.51,0,0,1,11.5-11.5h41.08a11.51,11.51,0,0,1,11.5,11.5v41.08A11.51,11.51,0,0,1,216.79,463.42Zm-40.58-12h40.08V411.34H176.21Z"/><path class="cls-7" d="M111.38,382.73H70.3a11.51,11.51,0,0,1-11.5-11.5V330.16a11.51,11.51,0,0,1,11.5-11.5h41.08a11.51,11.51,0,0,1,11.5,11.5v41.07A11.51,11.51,0,0,1,111.38,382.73Zm-40.58-12h40.08V330.66H70.8Z"/><path class="cls-8" d="M111.13,463.42H70.05a11.51,11.51,0,0,1-11.5-11.5V410.84a11.51,11.51,0,0,1,11.5-11.5h41.08a11.51,11.51,0,0,1,11.5,11.5v41.08A11.51,11.51,0,0,1,111.13,463.42Zm-40.58-12h40.08V411.34H70.55Z"/><path class="cls-9" d="M111.25,302.05H70.18a11.51,11.51,0,0,1-11.5-11.5V249.48A11.51,11.51,0,0,1,70.18,238h41.07a11.51,11.51,0,0,1,11.5,11.5v41.07A11.51,11.51,0,0,1,111.25,302.05Zm-40.57-12h40.07V250H70.68Z"/><path class="cls-10" d="M412.48,448.48v-31.2a16.66,16.66,0,0,1,12,10.48l1,2.57,10-5.56-.83-2c-3.78-9.14-11.79-15.28-22.18-17.1V394H401.65v11.59c-14.25,1.86-24,11.91-24,25.09,0,16.69,12.91,22,24,26v33.11c-9.12-1.12-15.18-5.54-17.59-12.87l-.93-2.84-10.21,5.78.7,1.94c4,11.13,14.16,18.11,28,19.4v11.4h10.83V500.89c14.76-2.27,24.51-12.51,24.51-26C437,458,423.31,452.34,412.48,448.48Zm-10.83-4c-8.24-3.37-12.41-6.83-12.41-13.87,0-6.82,4.88-12,12.41-13.6Zm23.62,30.35c0,7.43-4.72,12.68-12.79,14.43V460.44C420.8,463.75,425.27,467.41,425.27,474.85Z"/></svg>