<svg id="Capa_1" data-name="Capa 1" xmlns="http://www.w3.org/2000/svg" xmlns:xlink="http://www.w3.org/1999/xlink" viewBox="0 0 512 512"><defs><style>.cls-1{fill:url(#linear-gradient);}.cls-2{fill:url(#linear-gradient-2);}.cls-3{fill:url(#linear-gradient-3);}.cls-4{fill:url(#linear-gradient-4);}.cls-5{fill:url(#linear-gradient-5);}.cls-6{fill:url(#linear-gradient-6);}.cls-7{fill:url(#linear-gradient-7);}.cls-8{fill:url(#linear-gradient-8);}.cls-9{fill:url(#linear-gradient-9);}.cls-10{fill:url(#linear-gradient-10);}</style><linearGradient id="linear-gradient" x1="106.01" y1="278.16" x2="151.72" y2="278.16" gradientUnits="userSpaceOnUse"><stop offset="0" stop-color="#992836"/><stop offset="1" stop-color="#4d141b"/></linearGradient><linearGradient id="linear-gradient-2" x1="106.01" y1="56.98" x2="278.27" y2="56.98" xlink:href="#linear-gradient"/><linearGradient id="linear-gradient-3" x1="106.01" y1="93.85" x2="405.99" y2="93.85" xlink:href="#linear-gradient"/><linearGradient id="linear-gradient-4" x1="106.01" y1="130.71" x2="405.99" y2="130.71" xlink:href="#linear-gradient"/><linearGradient id="linear-gradient-5" x1="106.01" y1="167.57" x2="405.99" y2="167.57" xlink:href="#linear-gradient"/><linearGradient id="linear-gradient-6" x1="106.01" y1="204.43" x2="405.99" y2="204.43" xlink:href="#linear-gradient"/><linearGradient id="linear-gradient-7" x1="106.01" y1="241.3" x2="405.99" y2="241.3" xlink:href="#linear-gradient"/><linearGradient id="linear-gradient-8" x1="181.53" y1="278.16" x2="405.2" y2="278.16" xlink:href="#linear-gradient"/><linearGradient id="linear-gradient-9" x1="161.82" y1="393.72" x2="350.18" y2="393.72" xlink:href="#linear-gradient"/><linearGradient id="linear-gradient-10" x1="57.33" y1="256.39" x2="454.67" y2="256.39" xlink:href="#linear-gradient"/></defs><path class="cls-1" d="M113.51,270.66a7.5,7.5,0,1,0,0,15h30.71a7.5,7.5,0,0,0,0-15Z"/><path class="cls-2" d="M113.51,64.48H270.77a7.5,7.5,0,0,0,0-15H113.51a7.5,7.5,0,1,0,0,15Z"/><path class="cls-3" d="M398.49,86.35h-285a7.5,7.5,0,0,0,0,15h285a7.5,7.5,0,0,0,0-15Z"/><path class="cls-4" d="M398.49,123.21h-285a7.5,7.5,0,0,0,0,15h285a7.5,7.5,0,0,0,0-15Z"/><path class="cls-5" d="M398.49,160.07h-285a7.5,7.5,0,1,0,0,15h285a7.5,7.5,0,0,0,0-15Z"/><path class="cls-6" d="M398.49,196.93h-285a7.5,7.5,0,1,0,0,15h285a7.5,7.5,0,0,0,0-15Z"/><path class="cls-7" d="M398.49,233.8h-285a7.5,7.5,0,1,0,0,15h285a7.5,7.5,0,0,0,0-15Z"/><path class="cls-8" d="M405.2,278.16a7.5,7.5,0,0,0-7.5-7.5H189a7.5,7.5,0,0,0,0,15H397.7A7.5,7.5,0,0,0,405.2,278.16Z"/><path class="cls-9" d="M339.78,393.37l.47,0a7.49,7.49,0,0,0,7.48-7L350.17,347v-.25c0-.14,0-.28,0-.43l0-.35a2.53,2.53,0,0,0,0-.38l-.06-.36c0-.12,0-.24-.07-.36s-.06-.24-.09-.36-.07-.23-.11-.34-.08-.23-.12-.35-.09-.23-.14-.34-.11-.22-.16-.32l-.17-.33c-.07-.11-.14-.22-.2-.33s-.13-.19-.2-.29-.17-.23-.26-.34l-.15-.2,0,0c-.1-.11-.2-.22-.31-.32l-.21-.23-.29-.24-.27-.24-.24-.16-.36-.26-.22-.12c-.14-.08-.27-.16-.42-.23a2.71,2.71,0,0,0-.3-.13,2.83,2.83,0,0,0-.36-.16c-.11,0-.23-.08-.34-.12l-.36-.11-.31-.07c-.14,0-.27-.07-.41-.09l-.28,0-.46,0h-.06l-39.37-2.43a7.5,7.5,0,0,0-.93,15l20.85,1.29-60.54,51.67-3-32.53a7.5,7.5,0,0,0-12.31-5L212.52,396.9h0L182,422.8h0l-17.49,14.83a7.5,7.5,0,0,0,9.7,11.45l17.49-14.84h0l30.54-25.89h0l24.32-20.62,3,32.58a7.51,7.51,0,0,0,12.34,5l72.22-61.63-1.35,21.72A7.5,7.5,0,0,0,339.78,393.37Z"/><path class="cls-10" d="M447.17,1.62H385.89a7.5,7.5,0,0,0,0,15h53.78V496.17H72.33V16.62H338.64a7.5,7.5,0,0,0,0-15H69.83a12.51,12.51,0,0,0-12.5,12.5V503.67a7.5,7.5,0,0,0,7.5,7.5H447.17a7.5,7.5,0,0,0,7.5-7.5V9.12A7.5,7.5,0,0,0,447.17,1.62Z"/></svg>