<svg id="Fiscal" xmlns="http://www.w3.org/2000/svg" xmlns:xlink="http://www.w3.org/1999/xlink" width="84.541" height="108.664" viewBox="0 0 84.541 108.664">
  <defs>
    <linearGradient id="linear-gradient" y1="0.5" x2="1" y2="0.5" gradientUnits="objectBoundingBox">
      <stop offset="0" stop-color="#992836"/>
      <stop offset="1" stop-color="#4d141b"/>
    </linearGradient>
    <linearGradient id="linear-gradient-3" x1="0" y1="0.5" y2="0.5" xlink:href="#linear-gradient"/>
    <linearGradient id="linear-gradient-10" x1="-11.299" y1="0.512" x2="0" y2="0.512" xlink:href="#linear-gradient"/>
    <linearGradient id="linear-gradient-11" x1="0" y1="0.5" x2="1.05" y2="0.5" xlink:href="#linear-gradient"/>
    <linearGradient id="linear-gradient-12" x1="0" y1="0.5" y2="0.5" xlink:href="#linear-gradient"/>
  </defs>
  <path id="Caminho_295" data-name="Caminho 295" d="M90.941,0H14.168A3.8,3.8,0,0,0,10.28,3.707v101.25a3.8,3.8,0,0,0,3.88,3.707H90.941a3.8,3.8,0,0,0,3.88-3.707V3.707A3.8,3.8,0,0,0,90.941,0Zm1.514,104.957a1.456,1.456,0,0,1-1.514,1.341H14.168a1.456,1.456,0,0,1-1.514-1.341V3.707a1.456,1.456,0,0,1,1.514-1.341H90.941a1.456,1.456,0,0,1,1.514,1.341Z" transform="translate(-10.28)" fill="url(#linear-gradient)"/>
  <path id="Caminho_296" data-name="Caminho 296" d="M98.324,54.556h-33.8a1.183,1.183,0,1,1,0-2.366h33.8a1.183,1.183,0,0,1,0,2.366Z" transform="translate(-52.879 -41.9)" fill="url(#linear-gradient)"/>
  <path id="Caminho_297" data-name="Caminho 297" d="M125.772,94.736H64.523a1.183,1.183,0,0,1,0-2.366h61.249a1.183,1.183,0,0,1,0,2.366Z" transform="translate(-52.879 -74.159)" fill="url(#linear-gradient-3)"/>
  <path id="Caminho_298" data-name="Caminho 298" d="M125.772,134.926H64.523a1.183,1.183,0,0,1,0-2.366h61.249a1.183,1.183,0,0,1,0,2.366Z" transform="translate(-52.879 -106.425)" fill="url(#linear-gradient-3)"/>
  <path id="Caminho_299" data-name="Caminho 299" d="M125.772,175.116H64.523a1.183,1.183,0,1,1,0-2.366h61.249a1.183,1.183,0,1,1,0,2.366Z" transform="translate(-52.879 -138.691)" fill="url(#linear-gradient-3)"/>
  <path id="Caminho_300" data-name="Caminho 300" d="M125.772,215.3H64.523a1.183,1.183,0,1,1,0-2.366h61.249a1.183,1.183,0,1,1,0,2.366Z" transform="translate(-52.879 -170.949)" fill="url(#linear-gradient-3)"/>
  <path id="Caminho_301" data-name="Caminho 301" d="M125.772,255.486H64.523a1.183,1.183,0,0,1,0-2.366h61.249a1.183,1.183,0,0,1,0,2.366Z" transform="translate(-52.879 -203.215)" fill="url(#linear-gradient-3)"/>
  <path id="Caminho_302" data-name="Caminho 302" d="M125.772,295.676H64.523a1.183,1.183,0,0,1,0-2.366h61.249a1.183,1.183,0,0,1,0,2.366Z" transform="translate(-52.879 -235.482)" fill="url(#linear-gradient-3)"/>
  <path id="Caminho_303" data-name="Caminho 303" d="M125.772,335.856H64.523a1.183,1.183,0,0,1,0-2.366h61.249a1.183,1.183,0,0,1,0,2.366Z" transform="translate(-52.879 -267.74)" fill="url(#linear-gradient-3)"/>
  <path id="Caminho_304" data-name="Caminho 304" d="M324,395.49v.063a.058.058,0,0,1,0,.018Z" transform="translate(-262.148 -317.516)" fill="url(#linear-gradient-10)"/>
  <path id="Caminho_305" data-name="Caminho 305" d="M323.92,394.254a1.2,1.2,0,0,0-.02-.3A1.126,1.126,0,0,1,323.92,394.254Z" transform="translate(-262.067 -316.28)" fill="url(#linear-gradient-11)"/>
  <path id="Caminho_306" data-name="Caminho 306" d="M164.485,388.3a.058.058,0,0,0,0-.018l-.513,8.294a1.183,1.183,0,0,1-1.183,1.11h-.075a1.183,1.183,0,0,1-1.108-1.252l.345-5.576-16.066,13.706a1.183,1.183,0,0,1-1.946-.789l-.71-7.7-15.97,13.531a1.183,1.183,0,0,1-1.53-1.8l17.7-15a1.183,1.183,0,0,1,1.944.789l.71,7.689,14.223-12.139-5.436-.337a1.185,1.185,0,0,1,.146-2.366l8.281.513h.073a1.047,1.047,0,0,1,.11.012h.02a.921.921,0,0,1,.1.022h.012a.72.72,0,0,1,.093.03h.022l.089.037a.987.987,0,0,1,.166.1.939.939,0,0,1,.152.126.366.366,0,0,1,.055.055l.041.049.018.022.047.067.016.026c.016.026.032.053.045.081s.032.063.045.095a.016.016,0,0,0,0,.01c.012.034.024.067.034.1a.965.965,0,0,1,.028.108,1.193,1.193,0,0,1,.02.3C164.485,388.251,164.485,388.278,164.485,388.3Z" transform="translate(-102.633 -310.249)" fill="url(#linear-gradient-12)"/>
  <path id="Caminho_307" data-name="Caminho 307" d="M324,395.49v.063a.058.058,0,0,1,0,.018Z" transform="translate(-262.148 -317.516)" fill="url(#linear-gradient-10)"/>
</svg>
