<svg id="Capa_1" data-name="Capa 1" xmlns="http://www.w3.org/2000/svg" xmlns:xlink="http://www.w3.org/1999/xlink" viewBox="0 0 449.36 551.15"><defs><style>.cls-1{fill:url(#linear-gradient);}.cls-2{fill:url(#linear-gradient-2);}.cls-3{fill:url(#linear-gradient-3);}.cls-4{fill:url(#linear-gradient-4);}.cls-5{fill:url(#linear-gradient-5);}.cls-6{fill:url(#linear-gradient-6);}.cls-7{fill:url(#linear-gradient-7);}.cls-8{fill:url(#linear-gradient-8);}.cls-9{fill:url(#linear-gradient-9);}.cls-10{fill:url(#linear-gradient-10);}.cls-11{fill:url(#linear-gradient-11);}.cls-12{fill:url(#linear-gradient-12);}</style><linearGradient id="linear-gradient" x1="10.28" y1="275.57" x2="439.08" y2="275.57" gradientUnits="userSpaceOnUse"><stop offset="0" stop-color="#992836"/><stop offset="1" stop-color="#4d141b"/></linearGradient><linearGradient id="linear-gradient-2" x1="63.34" y1="58.19" x2="246.78" y2="58.19" xlink:href="#linear-gradient"/><linearGradient id="linear-gradient-3" x1="63.34" y1="98.37" x2="386.02" y2="98.37" xlink:href="#linear-gradient"/><linearGradient id="linear-gradient-4" x1="63.34" y1="138.56" x2="386.02" y2="138.56" xlink:href="#linear-gradient"/><linearGradient id="linear-gradient-5" x1="63.34" y1="178.75" x2="386.02" y2="178.75" xlink:href="#linear-gradient"/><linearGradient id="linear-gradient-6" x1="63.34" y1="218.93" x2="386.02" y2="218.93" xlink:href="#linear-gradient"/><linearGradient id="linear-gradient-7" x1="63.34" y1="259.12" x2="386.02" y2="259.12" xlink:href="#linear-gradient"/><linearGradient id="linear-gradient-8" x1="63.34" y1="299.31" x2="386.02" y2="299.31" xlink:href="#linear-gradient"/><linearGradient id="linear-gradient-9" x1="63.34" y1="339.49" x2="386.02" y2="339.49" xlink:href="#linear-gradient"/><linearGradient id="linear-gradient-10" x1="323.96" y1="395.7" x2="324" y2="395.7" xlink:href="#linear-gradient"/><linearGradient id="linear-gradient-11" x1="323.9" y1="394.72" x2="324.02" y2="394.72" xlink:href="#linear-gradient"/><linearGradient id="linear-gradient-12" x1="125.34" y1="445.95" x2="324.02" y2="445.95" xlink:href="#linear-gradient"/></defs><path class="cls-1" d="M419.4,0H30C19.11,0,10.28,8.44,10.28,18.8V532.35c0,10.37,8.83,18.8,19.68,18.8H419.4c10.85,0,19.68-8.43,19.68-18.8V18.8C439.08,8.44,430.25,0,419.4,0Zm7.68,532.35c0,3.68-3.52,6.8-7.68,6.8H30c-4.16,0-7.68-3.12-7.68-6.8V18.8c0-3.68,3.52-6.8,7.68-6.8H419.4c4.16,0,7.68,3.12,7.68,6.8Z"/><path class="cls-2" d="M240.78,64.19H69.34a6,6,0,0,1,0-12H240.78a6,6,0,1,1,0,12Z"/><path class="cls-3" d="M380,104.37H69.34a6,6,0,0,1,0-12H380a6,6,0,0,1,0,12Z"/><path class="cls-4" d="M380,144.56H69.34a6,6,0,0,1,0-12H380a6,6,0,0,1,0,12Z"/><path class="cls-5" d="M380,184.75H69.34a6,6,0,0,1,0-12H380a6,6,0,0,1,0,12Z"/><path class="cls-6" d="M380,224.93H69.34a6,6,0,1,1,0-12H380a6,6,0,0,1,0,12Z"/><path class="cls-7" d="M380,265.12H69.34a6,6,0,0,1,0-12H380a6,6,0,0,1,0,12Z"/><path class="cls-8" d="M380,305.31H69.34a6,6,0,1,1,0-12H380a6,6,0,0,1,0,12Z"/><path class="cls-9" d="M380,345.49H69.34a6,6,0,0,1,0-12H380a6,6,0,0,1,0,12Z"/><path class="cls-10" d="M324,395.49l0,.32a.29.29,0,0,1,0,.09C324,395.77,324,395.63,324,395.49Z"/><path class="cls-11" d="M324,395.49a6.05,6.05,0,0,0-.1-1.54A5.71,5.71,0,0,1,324,395.49Z"/><path class="cls-12" d="M324,395.9a.29.29,0,0,0,0-.09l-2.6,42.07a6,6,0,0,1-6,5.63l-.38,0a6,6,0,0,1-5.62-6.35l1.75-28.28L229.66,478.4a6,6,0,0,1-9.87-4l-3.6-39.06-81,68.63a6,6,0,0,1-8.45-.69,6,6,0,0,1,.69-8.46l89.77-76.09a6,6,0,0,1,9.86,4l3.6,39,72.14-61.57-27.57-1.71a6,6,0,1,1,.74-12l42,2.6.37,0a5.32,5.32,0,0,1,.56.06H319a4.64,4.64,0,0,1,.51.11h.06a3.68,3.68,0,0,1,.47.15l.11,0,.45.19a5,5,0,0,1,.84.5,4.76,4.76,0,0,1,.77.64,1.85,1.85,0,0,1,.28.28l.21.25.09.11.24.34.08.13c.08.13.16.27.23.41s.16.32.23.48a.08.08,0,0,0,0,.05c.06.17.12.34.17.51a4.92,4.92,0,0,1,.14.55,6.05,6.05,0,0,1,.1,1.54C324,395.63,324,395.77,324,395.9Z"/><path class="cls-10" d="M324,395.49l0,.32a.29.29,0,0,1,0,.09C324,395.77,324,395.63,324,395.49Z"/></svg>