<svg xmlns="http://www.w3.org/2000/svg" xmlns:xlink="http://www.w3.org/1999/xlink" width="1366" height="476" viewBox="0 0 1366 476">
  <defs>
    <clipPath id="clip-path">
      <rect id="Retângulo_272" data-name="Retângulo 272" width="1366" height="476" transform="translate(5351 15968)" fill="#992836"/>
    </clipPath>
  </defs>
  <g id="Grupo_904" data-name="Grupo 904" transform="translate(-5351 -15968)">
    <rect id="Retângulo_273" data-name="Retângulo 273" width="1366" height="476" transform="translate(5351 15968)" fill="#992836"/>
    <g id="Grupo_de_máscara_49" data-name="Grupo de máscara 49" clip-path="url(#clip-path)">
      <g id="Grupo_898" data-name="Grupo 898" transform="translate(147 -943)">
        <g id="Grupo_896" data-name="Grupo 896">
          <g id="Grupo_890" data-name="Grupo 890">
            <g id="Grupo_887" data-name="Grupo 887" transform="translate(204 -54)">
              <g id="Grupo_25" transform="translate(5013 17670.5)">
                <ellipse id="Elipse_1-2" cx="62.5" cy="53.5" rx="62.5" ry="53.5" transform="translate(35 -574.5)" fill="#fff"/>
                <path id="Caminho_7-2" d="M136.6-484.6s5,5.1,3.6,11,11.2-16,6.1-16.7S136.6-484.6,136.6-484.6Z" fill="#fff"/>
              </g>
              <g id="Grupo_886" data-name="Grupo 886" transform="translate(-2500 -2708.201)">
                <circle id="Elipse_43" data-name="Elipse 43" cx="14.5" cy="14.5" r="14.5" transform="translate(7585 19843.201)"/>
                <ellipse id="Elipse_44" data-name="Elipse 44" cx="7" cy="14.5" rx="7" ry="14.5" transform="translate(7615 19843.201)"/>
                <ellipse id="Elipse_45" data-name="Elipse 45" cx="2.5" cy="14.5" rx="2.5" ry="14.5" transform="translate(7631 19843.201)"/>
              </g>
            </g>
            <g id="Grupo_888" data-name="Grupo 888" transform="translate(203 -234)">
              <g id="Grupo_25-2" data-name="Grupo_25" transform="translate(5013 17670.5)">
                <ellipse id="Elipse_1-2-2" data-name="Elipse_1-2" cx="62.5" cy="53.5" rx="62.5" ry="53.5" transform="translate(35 -574.5)" fill="#fff"/>
                <path id="Caminho_7-2-2" data-name="Caminho_7-2" d="M136.6-484.6s5,5.1,3.6,11,11.2-16,6.1-16.7S136.6-484.6,136.6-484.6Z" fill="#fff"/>
              </g>
              <g id="Grupo_886-2" data-name="Grupo 886" transform="translate(-2500 -2708.201)">
                <circle id="Elipse_43-2" data-name="Elipse 43" cx="14.5" cy="14.5" r="14.5" transform="translate(7585 19843.201)"/>
                <ellipse id="Elipse_44-2" data-name="Elipse 44" cx="7" cy="14.5" rx="7" ry="14.5" transform="translate(7615 19843.201)"/>
                <ellipse id="Elipse_45-2" data-name="Elipse 45" cx="2.5" cy="14.5" rx="2.5" ry="14.5" transform="translate(7631 19843.201)"/>
              </g>
            </g>
            <g id="Grupo_889" data-name="Grupo 889" transform="translate(203 129)">
              <g id="Grupo_25-3" data-name="Grupo_25" transform="translate(5013 17670.5)">
                <ellipse id="Elipse_1-2-3" data-name="Elipse_1-2" cx="62.5" cy="53.5" rx="62.5" ry="53.5" transform="translate(35 -574.5)" fill="#fff"/>
                <path id="Caminho_7-2-3" data-name="Caminho_7-2" d="M136.6-484.6s5,5.1,3.6,11,11.2-16,6.1-16.7S136.6-484.6,136.6-484.6Z" fill="#fff"/>
              </g>
              <g id="Grupo_886-3" data-name="Grupo 886" transform="translate(-2500 -2708.201)">
                <circle id="Elipse_43-3" data-name="Elipse 43" cx="14.5" cy="14.5" r="14.5" transform="translate(7585 19843.201)"/>
                <ellipse id="Elipse_44-3" data-name="Elipse 44" cx="7" cy="14.5" rx="7" ry="14.5" transform="translate(7615 19843.201)"/>
                <ellipse id="Elipse_45-3" data-name="Elipse 45" cx="2.5" cy="14.5" rx="2.5" ry="14.5" transform="translate(7631 19843.201)"/>
              </g>
            </g>
          </g>
          <g id="Grupo_892" data-name="Grupo 892" transform="translate(457)">
            <g id="Grupo_887-2" data-name="Grupo 887" transform="translate(204 -54)">
              <g id="Grupo_25-4" data-name="Grupo_25" transform="translate(5013 17670.5)">
                <ellipse id="Elipse_1-2-4" data-name="Elipse_1-2" cx="62.5" cy="53.5" rx="62.5" ry="53.5" transform="translate(35 -574.5)" fill="#fff"/>
                <path id="Caminho_7-2-4" data-name="Caminho_7-2" d="M136.6-484.6s5,5.1,3.6,11,11.2-16,6.1-16.7S136.6-484.6,136.6-484.6Z" fill="#fff"/>
              </g>
              <g id="Grupo_886-4" data-name="Grupo 886" transform="translate(-2500 -2708.201)">
                <circle id="Elipse_43-4" data-name="Elipse 43" cx="14.5" cy="14.5" r="14.5" transform="translate(7585 19843.201)"/>
                <ellipse id="Elipse_44-4" data-name="Elipse 44" cx="7" cy="14.5" rx="7" ry="14.5" transform="translate(7615 19843.201)"/>
                <ellipse id="Elipse_45-4" data-name="Elipse 45" cx="2.5" cy="14.5" rx="2.5" ry="14.5" transform="translate(7631 19843.201)"/>
              </g>
            </g>
            <g id="Grupo_888-2" data-name="Grupo 888" transform="translate(203 -234)">
              <g id="Grupo_25-5" data-name="Grupo_25" transform="translate(5013 17670.5)">
                <ellipse id="Elipse_1-2-5" data-name="Elipse_1-2" cx="62.5" cy="53.5" rx="62.5" ry="53.5" transform="translate(35 -574.5)" fill="#fff"/>
                <path id="Caminho_7-2-5" data-name="Caminho_7-2" d="M136.6-484.6s5,5.1,3.6,11,11.2-16,6.1-16.7S136.6-484.6,136.6-484.6Z" fill="#fff"/>
              </g>
              <g id="Grupo_886-5" data-name="Grupo 886" transform="translate(-2500 -2708.201)">
                <circle id="Elipse_43-5" data-name="Elipse 43" cx="14.5" cy="14.5" r="14.5" transform="translate(7585 19843.201)"/>
                <ellipse id="Elipse_44-5" data-name="Elipse 44" cx="7" cy="14.5" rx="7" ry="14.5" transform="translate(7615 19843.201)"/>
                <ellipse id="Elipse_45-5" data-name="Elipse 45" cx="2.5" cy="14.5" rx="2.5" ry="14.5" transform="translate(7631 19843.201)"/>
              </g>
            </g>
            <g id="Grupo_889-2" data-name="Grupo 889" transform="translate(203 129)">
              <g id="Grupo_25-6" data-name="Grupo_25" transform="translate(5013 17670.5)">
                <ellipse id="Elipse_1-2-6" data-name="Elipse_1-2" cx="62.5" cy="53.5" rx="62.5" ry="53.5" transform="translate(35 -574.5)" fill="#fff"/>
                <path id="Caminho_7-2-6" data-name="Caminho_7-2" d="M136.6-484.6s5,5.1,3.6,11,11.2-16,6.1-16.7S136.6-484.6,136.6-484.6Z" fill="#fff"/>
              </g>
              <g id="Grupo_886-6" data-name="Grupo 886" transform="translate(-2500 -2708.201)">
                <circle id="Elipse_43-6" data-name="Elipse 43" cx="14.5" cy="14.5" r="14.5" transform="translate(7585 19843.201)"/>
                <ellipse id="Elipse_44-6" data-name="Elipse 44" cx="7" cy="14.5" rx="7" ry="14.5" transform="translate(7615 19843.201)"/>
                <ellipse id="Elipse_45-6" data-name="Elipse 45" cx="2.5" cy="14.5" rx="2.5" ry="14.5" transform="translate(7631 19843.201)"/>
              </g>
            </g>
          </g>
          <g id="Grupo_894" data-name="Grupo 894" transform="translate(916)">
            <g id="Grupo_887-3" data-name="Grupo 887" transform="translate(204 -54)">
              <g id="Grupo_25-7" data-name="Grupo_25" transform="translate(5013 17670.5)">
                <ellipse id="Elipse_1-2-7" data-name="Elipse_1-2" cx="62.5" cy="53.5" rx="62.5" ry="53.5" transform="translate(35 -574.5)" fill="#fff"/>
                <path id="Caminho_7-2-7" data-name="Caminho_7-2" d="M136.6-484.6s5,5.1,3.6,11,11.2-16,6.1-16.7S136.6-484.6,136.6-484.6Z" fill="#fff"/>
              </g>
              <g id="Grupo_886-7" data-name="Grupo 886" transform="translate(-2500 -2708.201)">
                <circle id="Elipse_43-7" data-name="Elipse 43" cx="14.5" cy="14.5" r="14.5" transform="translate(7585 19843.201)"/>
                <ellipse id="Elipse_44-7" data-name="Elipse 44" cx="7" cy="14.5" rx="7" ry="14.5" transform="translate(7615 19843.201)"/>
                <ellipse id="Elipse_45-7" data-name="Elipse 45" cx="2.5" cy="14.5" rx="2.5" ry="14.5" transform="translate(7631 19843.201)"/>
              </g>
            </g>
            <g id="Grupo_888-3" data-name="Grupo 888" transform="translate(203 -234)">
              <g id="Grupo_25-8" data-name="Grupo_25" transform="translate(5013 17670.5)">
                <ellipse id="Elipse_1-2-8" data-name="Elipse_1-2" cx="62.5" cy="53.5" rx="62.5" ry="53.5" transform="translate(35 -574.5)" fill="#fff"/>
                <path id="Caminho_7-2-8" data-name="Caminho_7-2" d="M136.6-484.6s5,5.1,3.6,11,11.2-16,6.1-16.7S136.6-484.6,136.6-484.6Z" fill="#fff"/>
              </g>
              <g id="Grupo_886-8" data-name="Grupo 886" transform="translate(-2500 -2708.201)">
                <circle id="Elipse_43-8" data-name="Elipse 43" cx="14.5" cy="14.5" r="14.5" transform="translate(7585 19843.201)"/>
                <ellipse id="Elipse_44-8" data-name="Elipse 44" cx="7" cy="14.5" rx="7" ry="14.5" transform="translate(7615 19843.201)"/>
                <ellipse id="Elipse_45-8" data-name="Elipse 45" cx="2.5" cy="14.5" rx="2.5" ry="14.5" transform="translate(7631 19843.201)"/>
              </g>
            </g>
            <g id="Grupo_889-3" data-name="Grupo 889" transform="translate(203 129)">
              <g id="Grupo_25-9" data-name="Grupo_25" transform="translate(5013 17670.5)">
                <ellipse id="Elipse_1-2-9" data-name="Elipse_1-2" cx="62.5" cy="53.5" rx="62.5" ry="53.5" transform="translate(35 -574.5)" fill="#fff"/>
                <path id="Caminho_7-2-9" data-name="Caminho_7-2" d="M136.6-484.6s5,5.1,3.6,11,11.2-16,6.1-16.7S136.6-484.6,136.6-484.6Z" fill="#fff"/>
              </g>
              <g id="Grupo_886-9" data-name="Grupo 886" transform="translate(-2500 -2708.201)">
                <circle id="Elipse_43-9" data-name="Elipse 43" cx="14.5" cy="14.5" r="14.5" transform="translate(7585 19843.201)"/>
                <ellipse id="Elipse_44-9" data-name="Elipse 44" cx="7" cy="14.5" rx="7" ry="14.5" transform="translate(7615 19843.201)"/>
                <ellipse id="Elipse_45-9" data-name="Elipse 45" cx="2.5" cy="14.5" rx="2.5" ry="14.5" transform="translate(7631 19843.201)"/>
              </g>
            </g>
          </g>
        </g>
        <g id="Grupo_897" data-name="Grupo 897">
          <g id="Grupo_891" data-name="Grupo 891" transform="translate(229 87)">
            <g id="Grupo_887-4" data-name="Grupo 887" transform="translate(204 -54)">
              <g id="Grupo_25-10" data-name="Grupo_25" transform="translate(5013 17670.5)">
                <ellipse id="Elipse_1-2-10" data-name="Elipse_1-2" cx="62.5" cy="53.5" rx="62.5" ry="53.5" transform="translate(35 -574.5)" fill="#fff"/>
                <path id="Caminho_7-2-10" data-name="Caminho_7-2" d="M136.6-484.6s5,5.1,3.6,11,11.2-16,6.1-16.7S136.6-484.6,136.6-484.6Z" fill="#fff"/>
              </g>
              <g id="Grupo_886-10" data-name="Grupo 886" transform="translate(-2500 -2708.201)">
                <circle id="Elipse_43-10" data-name="Elipse 43" cx="14.5" cy="14.5" r="14.5" transform="translate(7585 19843.201)"/>
                <ellipse id="Elipse_44-10" data-name="Elipse 44" cx="7" cy="14.5" rx="7" ry="14.5" transform="translate(7615 19843.201)"/>
                <ellipse id="Elipse_45-10" data-name="Elipse 45" cx="2.5" cy="14.5" rx="2.5" ry="14.5" transform="translate(7631 19843.201)"/>
              </g>
            </g>
            <g id="Grupo_888-4" data-name="Grupo 888" transform="translate(203 -234)">
              <g id="Grupo_25-11" data-name="Grupo_25" transform="translate(5013 17670.5)">
                <ellipse id="Elipse_1-2-11" data-name="Elipse_1-2" cx="62.5" cy="53.5" rx="62.5" ry="53.5" transform="translate(35 -574.5)" fill="#fff"/>
                <path id="Caminho_7-2-11" data-name="Caminho_7-2" d="M136.6-484.6s5,5.1,3.6,11,11.2-16,6.1-16.7S136.6-484.6,136.6-484.6Z" fill="#fff"/>
              </g>
              <g id="Grupo_886-11" data-name="Grupo 886" transform="translate(-2500 -2708.201)">
                <circle id="Elipse_43-11" data-name="Elipse 43" cx="14.5" cy="14.5" r="14.5" transform="translate(7585 19843.201)"/>
                <ellipse id="Elipse_44-11" data-name="Elipse 44" cx="7" cy="14.5" rx="7" ry="14.5" transform="translate(7615 19843.201)"/>
                <ellipse id="Elipse_45-11" data-name="Elipse 45" cx="2.5" cy="14.5" rx="2.5" ry="14.5" transform="translate(7631 19843.201)"/>
              </g>
            </g>
            <g id="Grupo_889-4" data-name="Grupo 889" transform="translate(203 129)">
              <g id="Grupo_25-12" data-name="Grupo_25" transform="translate(5013 17670.5)">
                <ellipse id="Elipse_1-2-12" data-name="Elipse_1-2" cx="62.5" cy="53.5" rx="62.5" ry="53.5" transform="translate(35 -574.5)" fill="#fff"/>
                <path id="Caminho_7-2-12" data-name="Caminho_7-2" d="M136.6-484.6s5,5.1,3.6,11,11.2-16,6.1-16.7S136.6-484.6,136.6-484.6Z" fill="#fff"/>
              </g>
              <g id="Grupo_886-12" data-name="Grupo 886" transform="translate(-2500 -2708.201)">
                <circle id="Elipse_43-12" data-name="Elipse 43" cx="14.5" cy="14.5" r="14.5" transform="translate(7585 19843.201)"/>
                <ellipse id="Elipse_44-12" data-name="Elipse 44" cx="7" cy="14.5" rx="7" ry="14.5" transform="translate(7615 19843.201)"/>
                <ellipse id="Elipse_45-12" data-name="Elipse 45" cx="2.5" cy="14.5" rx="2.5" ry="14.5" transform="translate(7631 19843.201)"/>
              </g>
            </g>
          </g>
          <g id="Grupo_893" data-name="Grupo 893" transform="translate(687 87)">
            <g id="Grupo_887-5" data-name="Grupo 887" transform="translate(204 -54)">
              <g id="Grupo_25-13" data-name="Grupo_25" transform="translate(5013 17670.5)">
                <ellipse id="Elipse_1-2-13" data-name="Elipse_1-2" cx="62.5" cy="53.5" rx="62.5" ry="53.5" transform="translate(35 -574.5)" fill="#fff"/>
                <path id="Caminho_7-2-13" data-name="Caminho_7-2" d="M136.6-484.6s5,5.1,3.6,11,11.2-16,6.1-16.7S136.6-484.6,136.6-484.6Z" fill="#fff"/>
              </g>
              <g id="Grupo_886-13" data-name="Grupo 886" transform="translate(-2500 -2708.201)">
                <circle id="Elipse_43-13" data-name="Elipse 43" cx="14.5" cy="14.5" r="14.5" transform="translate(7585 19843.201)"/>
                <ellipse id="Elipse_44-13" data-name="Elipse 44" cx="7" cy="14.5" rx="7" ry="14.5" transform="translate(7615 19843.201)"/>
                <ellipse id="Elipse_45-13" data-name="Elipse 45" cx="2.5" cy="14.5" rx="2.5" ry="14.5" transform="translate(7631 19843.201)"/>
              </g>
            </g>
            <g id="Grupo_888-5" data-name="Grupo 888" transform="translate(203 -234)">
              <g id="Grupo_25-14" data-name="Grupo_25" transform="translate(5013 17670.5)">
                <ellipse id="Elipse_1-2-14" data-name="Elipse_1-2" cx="62.5" cy="53.5" rx="62.5" ry="53.5" transform="translate(35 -574.5)" fill="#fff"/>
                <path id="Caminho_7-2-14" data-name="Caminho_7-2" d="M136.6-484.6s5,5.1,3.6,11,11.2-16,6.1-16.7S136.6-484.6,136.6-484.6Z" fill="#fff"/>
              </g>
              <g id="Grupo_886-14" data-name="Grupo 886" transform="translate(-2500 -2708.201)">
                <circle id="Elipse_43-14" data-name="Elipse 43" cx="14.5" cy="14.5" r="14.5" transform="translate(7585 19843.201)"/>
                <ellipse id="Elipse_44-14" data-name="Elipse 44" cx="7" cy="14.5" rx="7" ry="14.5" transform="translate(7615 19843.201)"/>
                <ellipse id="Elipse_45-14" data-name="Elipse 45" cx="2.5" cy="14.5" rx="2.5" ry="14.5" transform="translate(7631 19843.201)"/>
              </g>
            </g>
            <g id="Grupo_889-5" data-name="Grupo 889" transform="translate(203 129)">
              <g id="Grupo_25-15" data-name="Grupo_25" transform="translate(5013 17670.5)">
                <ellipse id="Elipse_1-2-15" data-name="Elipse_1-2" cx="62.5" cy="53.5" rx="62.5" ry="53.5" transform="translate(35 -574.5)" fill="#fff"/>
                <path id="Caminho_7-2-15" data-name="Caminho_7-2" d="M136.6-484.6s5,5.1,3.6,11,11.2-16,6.1-16.7S136.6-484.6,136.6-484.6Z" fill="#fff"/>
              </g>
              <g id="Grupo_886-15" data-name="Grupo 886" transform="translate(-2500 -2708.201)">
                <circle id="Elipse_43-15" data-name="Elipse 43" cx="14.5" cy="14.5" r="14.5" transform="translate(7585 19843.201)"/>
                <ellipse id="Elipse_44-15" data-name="Elipse 44" cx="7" cy="14.5" rx="7" ry="14.5" transform="translate(7615 19843.201)"/>
                <ellipse id="Elipse_45-15" data-name="Elipse 45" cx="2.5" cy="14.5" rx="2.5" ry="14.5" transform="translate(7631 19843.201)"/>
              </g>
            </g>
          </g>
          <g id="Grupo_895" data-name="Grupo 895" transform="translate(1145 87)">
            <g id="Grupo_887-6" data-name="Grupo 887" transform="translate(204 -54)">
              <g id="Grupo_25-16" data-name="Grupo_25" transform="translate(5013 17670.5)">
                <ellipse id="Elipse_1-2-16" data-name="Elipse_1-2" cx="62.5" cy="53.5" rx="62.5" ry="53.5" transform="translate(35 -574.5)" fill="#fff"/>
                <path id="Caminho_7-2-16" data-name="Caminho_7-2" d="M136.6-484.6s5,5.1,3.6,11,11.2-16,6.1-16.7S136.6-484.6,136.6-484.6Z" fill="#fff"/>
              </g>
              <g id="Grupo_886-16" data-name="Grupo 886" transform="translate(-2500 -2708.201)">
                <circle id="Elipse_43-16" data-name="Elipse 43" cx="14.5" cy="14.5" r="14.5" transform="translate(7585 19843.201)"/>
                <ellipse id="Elipse_44-16" data-name="Elipse 44" cx="7" cy="14.5" rx="7" ry="14.5" transform="translate(7615 19843.201)"/>
                <ellipse id="Elipse_45-16" data-name="Elipse 45" cx="2.5" cy="14.5" rx="2.5" ry="14.5" transform="translate(7631 19843.201)"/>
              </g>
            </g>
            <g id="Grupo_888-6" data-name="Grupo 888" transform="translate(203 -234)">
              <g id="Grupo_25-17" data-name="Grupo_25" transform="translate(5013 17670.5)">
                <ellipse id="Elipse_1-2-17" data-name="Elipse_1-2" cx="62.5" cy="53.5" rx="62.5" ry="53.5" transform="translate(35 -574.5)" fill="#fff"/>
                <path id="Caminho_7-2-17" data-name="Caminho_7-2" d="M136.6-484.6s5,5.1,3.6,11,11.2-16,6.1-16.7S136.6-484.6,136.6-484.6Z" fill="#fff"/>
              </g>
              <g id="Grupo_886-17" data-name="Grupo 886" transform="translate(-2500 -2708.201)">
                <circle id="Elipse_43-17" data-name="Elipse 43" cx="14.5" cy="14.5" r="14.5" transform="translate(7585 19843.201)"/>
                <ellipse id="Elipse_44-17" data-name="Elipse 44" cx="7" cy="14.5" rx="7" ry="14.5" transform="translate(7615 19843.201)"/>
                <ellipse id="Elipse_45-17" data-name="Elipse 45" cx="2.5" cy="14.5" rx="2.5" ry="14.5" transform="translate(7631 19843.201)"/>
              </g>
            </g>
            <g id="Grupo_889-6" data-name="Grupo 889" transform="translate(203 129)">
              <g id="Grupo_25-18" data-name="Grupo_25" transform="translate(5013 17670.5)">
                <ellipse id="Elipse_1-2-18" data-name="Elipse_1-2" cx="62.5" cy="53.5" rx="62.5" ry="53.5" transform="translate(35 -574.5)" fill="#fff"/>
                <path id="Caminho_7-2-18" data-name="Caminho_7-2" d="M136.6-484.6s5,5.1,3.6,11,11.2-16,6.1-16.7S136.6-484.6,136.6-484.6Z" fill="#fff"/>
              </g>
              <g id="Grupo_886-18" data-name="Grupo 886" transform="translate(-2500 -2708.201)">
                <circle id="Elipse_43-18" data-name="Elipse 43" cx="14.5" cy="14.5" r="14.5" transform="translate(7585 19843.201)"/>
                <ellipse id="Elipse_44-18" data-name="Elipse 44" cx="7" cy="14.5" rx="7" ry="14.5" transform="translate(7615 19843.201)"/>
                <ellipse id="Elipse_45-18" data-name="Elipse 45" cx="2.5" cy="14.5" rx="2.5" ry="14.5" transform="translate(7631 19843.201)"/>
              </g>
            </g>
          </g>
        </g>
      </g>
    </g>
  </g>
</svg>
