<svg xmlns="http://www.w3.org/2000/svg" width="1366" height="476.103" viewBox="0 0 1366 476.103"><defs><style>.a{fill:#992836;}.b{fill:#fff;}.c{fill:#d0d2d3;}.d{fill:#a6a8ab;}.e{fill:#808184;}.f{fill:#58595b;}.g{fill:none;}</style></defs><g transform="translate(0 0.502)"><rect class="a" width="1366" height="476.1" transform="translate(0 -0.5)"/><g transform="translate(0 -99)"><g transform="translate(6 625)"><path class="b" d="M160-521a48.4,48.4,0,0,1-12.5,32.1A58.082,58.082,0,0,1,139-481c-11,8.4-25.6,13.5-41.6,13.5C63-467.5,35-491.5,35-521a40.7,40.7,0,0,1,.3-5v-.5H159.7v.5A40.7,40.7,0,0,1,160-521Z"/><g transform="translate(77.674 3631.398)"><path class="c" d="M39.5-4157.9v21.6a.749.749,0,0,1-.1.5.776.776,0,0,1-1,.2l-12.1-6v-16.3H39.5Z"/><path class="d" d="M36.4-4157.9l-.3.5-9.7,15.8h-.1l-13.1-6.6,4.5-7.4,1.1-1.8.3-.5Z"/><path class="e" d="M13.2-4157.9h-6l.3.5,5.7,9.2,13.2,6.6h-.1l-8.6-14-1.1-1.8-.3-.5Z"/><path class="f" d="M13.2-4157.9v21.6c.1.4-.2.7-.6.8a.749.749,0,0,1-.5-.1L.7-4141.3a1.388,1.388,0,0,1-.7-1.2v-15.4H13.2Z"/></g><path class="b" d="M136.6-484.6s5,5.1,3.6,11,11.2-16,6.1-16.7S136.6-484.6,136.6-484.6Z"/></g><g transform="translate(6 806)"><ellipse class="b" cx="62.5" cy="53.5" rx="62.5" ry="53.5" transform="translate(35 -574.5)"/><g transform="translate(77.674 3631.398)"><path class="c" d="M26.7-4169.5a.192.192,0,0,0-.3.1c0,.1-.1.1,0,.2v27.6l12.1,6a.7.7,0,0,0,1-.2c.1-.2.2-.3.1-.5v-26.6c0-.1-.1-.3-.2-.3Z"/><path class="d" d="M13.2-4148.2l13-21.1a.481.481,0,0,1,.6-.2l12.5,6.3c.1.1.2.3.1.4h0l-13,21.1Z"/><path class="e" d="M1.5-4168.9c-.8-.4-1.1-.1-.6.7l12.3,20,13.2,6.6-13.1-21.3c-.1-.1-.1-.2-.2-.2Z"/><path class="f" d="M13.2-4136.3c.1.4-.2.7-.6.8a.749.749,0,0,1-.5-.1L.7-4141.3a1.388,1.388,0,0,1-.7-1.2v-26.4c0-.3.1-.5.4-.5a.367.367,0,0,1,.3.1l12.3,6.1c.1,0,.2.1.2.3v26.6Z"/></g><path class="b" d="M136.6-484.6s5,5.1,3.6,11,11.2-16,6.1-16.7S136.6-484.6,136.6-484.6Z"/></g><g transform="translate(6 987)"><ellipse class="b" cx="62.5" cy="53.5" rx="62.5" ry="53.5" transform="translate(35 -574.5)"/><g transform="translate(77.674 3631.398)"><path class="c" d="M26.7-4169.5a.192.192,0,0,0-.3.1c0,.1-.1.1,0,.2v27.6l12.1,6a.7.7,0,0,0,1-.2c.1-.2.2-.3.1-.5v-26.6c0-.1-.1-.3-.2-.3Z"/><path class="d" d="M13.2-4148.2l13-21.1a.481.481,0,0,1,.6-.2l12.5,6.3c.1.1.2.3.1.4h0l-13,21.1Z"/><path class="e" d="M1.5-4168.9c-.8-.4-1.1-.1-.6.7l12.3,20,13.2,6.6-13.1-21.3c-.1-.1-.1-.2-.2-.2Z"/><path class="f" d="M13.2-4136.3c.1.4-.2.7-.6.8a.749.749,0,0,1-.5-.1L.7-4141.3a1.388,1.388,0,0,1-.7-1.2v-26.4c0-.3.1-.5.4-.5a.367.367,0,0,1,.3.1l12.3,6.1c.1,0,.2.1.2.3v26.6Z"/></g><path class="b" d="M136.6-484.6s5,5.1,3.6,11,11.2-16,6.1-16.7S136.6-484.6,136.6-484.6Z"/></g></g><g transform="translate(229 -193)"><g transform="translate(6 806)"><ellipse class="b" cx="62.5" cy="53.5" rx="62.5" ry="53.5" transform="translate(35 -574.5)"/><g transform="translate(77.674 3631.398)"><path class="c" d="M26.7-4169.5a.192.192,0,0,0-.3.1c0,.1-.1.1,0,.2v27.6l12.1,6a.7.7,0,0,0,1-.2c.1-.2.2-.3.1-.5v-26.6c0-.1-.1-.3-.2-.3Z"/><path class="d" d="M13.2-4148.2l13-21.1a.481.481,0,0,1,.6-.2l12.5,6.3c.1.1.2.3.1.4h0l-13,21.1Z"/><path class="e" d="M1.5-4168.9c-.8-.4-1.1-.1-.6.7l12.3,20,13.2,6.6-13.1-21.3c-.1-.1-.1-.2-.2-.2Z"/><path class="f" d="M13.2-4136.3c.1.4-.2.7-.6.8a.749.749,0,0,1-.5-.1L.7-4141.3a1.388,1.388,0,0,1-.7-1.2v-26.4c0-.3.1-.5.4-.5a.367.367,0,0,1,.3.1l12.3,6.1c.1,0,.2.1.2.3v26.6Z"/></g><path class="b" d="M136.6-484.6s5,5.1,3.6,11,11.2-16,6.1-16.7S136.6-484.6,136.6-484.6Z"/></g><g transform="translate(6 987)"><ellipse class="b" cx="62.5" cy="53.5" rx="62.5" ry="53.5" transform="translate(35 -574.5)"/><g transform="translate(77.674 3631.398)"><path class="c" d="M26.7-4169.5a.192.192,0,0,0-.3.1c0,.1-.1.1,0,.2v27.6l12.1,6a.7.7,0,0,0,1-.2c.1-.2.2-.3.1-.5v-26.6c0-.1-.1-.3-.2-.3Z"/><path class="d" d="M13.2-4148.2l13-21.1a.481.481,0,0,1,.6-.2l12.5,6.3c.1.1.2.3.1.4h0l-13,21.1Z"/><path class="e" d="M1.5-4168.9c-.8-.4-1.1-.1-.6.7l12.3,20,13.2,6.6-13.1-21.3c-.1-.1-.1-.2-.2-.2Z"/><path class="f" d="M13.2-4136.3c.1.4-.2.7-.6.8a.749.749,0,0,1-.5-.1L.7-4141.3a1.388,1.388,0,0,1-.7-1.2v-26.4c0-.3.1-.5.4-.5a.367.367,0,0,1,.3.1l12.3,6.1c.1,0,.2.1.2.3v26.6Z"/></g><path class="b" d="M136.6-484.6s5,5.1,3.6,11,11.2-16,6.1-16.7S136.6-484.6,136.6-484.6Z"/></g><g transform="translate(6 1168)"><path class="b" d="M160-521a47.067,47.067,0,0,1-5,21c-.1.2-.2.3-.3.5H40.3c-.1-.2-.2-.3-.3-.5a47.067,47.067,0,0,1-5-21c0-29.5,28-53.5,62.5-53.5S160-550.5,160-521Z"/><g transform="translate(77.674 3631.398)"><path class="c" d="M26.7-4169.5a.192.192,0,0,0-.3.1c0,.1-.1.1,0,.2v27.6l12.1,6a.7.7,0,0,0,1-.2c.1-.2.2-.3.1-.5v-26.6c0-.1-.1-.3-.2-.3Z"/><path class="d" d="M13.2-4148.2l13-21.1a.481.481,0,0,1,.6-.2l12.5,6.3c.1.1.2.3.1.4h0l-13,21.1Z"/><path class="e" d="M1.5-4168.9c-.8-.4-1.1-.1-.6.7l12.3,20,13.2,6.6-13.1-21.3c-.1-.1-.1-.2-.2-.2Z"/><path class="f" d="M13.2-4136.3c.1.4-.2.7-.6.8a.749.749,0,0,1-.5-.1L.7-4141.3a1.388,1.388,0,0,1-.7-1.2v-26.4c0-.3.1-.5.4-.5a.367.367,0,0,1,.3.1l12.3,6.1c.1,0,.2.1.2.3v26.6Z"/></g></g></g><g transform="translate(458 -99)"><g transform="translate(6 625)"><path class="b" d="M160-521a48.4,48.4,0,0,1-12.5,32.1A58.082,58.082,0,0,1,139-481c-11,8.4-25.6,13.5-41.6,13.5C63-467.5,35-491.5,35-521a40.7,40.7,0,0,1,.3-5v-.5H159.7v.5A40.7,40.7,0,0,1,160-521Z"/><g transform="translate(77.674 3631.398)"><path class="c" d="M39.5-4157.9v21.6a.749.749,0,0,1-.1.5.776.776,0,0,1-1,.2l-12.1-6v-16.3H39.5Z"/><path class="d" d="M36.4-4157.9l-.3.5-9.7,15.8h-.1l-13.1-6.6,4.5-7.4,1.1-1.8.3-.5Z"/><path class="e" d="M13.2-4157.9h-6l.3.5,5.7,9.2,13.2,6.6h-.1l-8.6-14-1.1-1.8-.3-.5Z"/><path class="f" d="M13.2-4157.9v21.6c.1.4-.2.7-.6.8a.749.749,0,0,1-.5-.1L.7-4141.3a1.388,1.388,0,0,1-.7-1.2v-15.4H13.2Z"/></g><path class="b" d="M136.6-484.6s5,5.1,3.6,11,11.2-16,6.1-16.7S136.6-484.6,136.6-484.6Z"/></g><g transform="translate(6 806)"><ellipse class="b" cx="62.5" cy="53.5" rx="62.5" ry="53.5" transform="translate(35 -574.5)"/><g transform="translate(77.674 3631.398)"><path class="c" d="M26.7-4169.5a.192.192,0,0,0-.3.1c0,.1-.1.1,0,.2v27.6l12.1,6a.7.7,0,0,0,1-.2c.1-.2.2-.3.1-.5v-26.6c0-.1-.1-.3-.2-.3Z"/><path class="d" d="M13.2-4148.2l13-21.1a.481.481,0,0,1,.6-.2l12.5,6.3c.1.1.2.3.1.4h0l-13,21.1Z"/><path class="e" d="M1.5-4168.9c-.8-.4-1.1-.1-.6.7l12.3,20,13.2,6.6-13.1-21.3c-.1-.1-.1-.2-.2-.2Z"/><path class="f" d="M13.2-4136.3c.1.4-.2.7-.6.8a.749.749,0,0,1-.5-.1L.7-4141.3a1.388,1.388,0,0,1-.7-1.2v-26.4c0-.3.1-.5.4-.5a.367.367,0,0,1,.3.1l12.3,6.1c.1,0,.2.1.2.3v26.6Z"/></g><path class="b" d="M136.6-484.6s5,5.1,3.6,11,11.2-16,6.1-16.7S136.6-484.6,136.6-484.6Z"/></g><g transform="translate(6 987)"><ellipse class="b" cx="62.5" cy="53.5" rx="62.5" ry="53.5" transform="translate(35 -574.5)"/><g transform="translate(77.674 3631.398)"><path class="c" d="M26.7-4169.5a.192.192,0,0,0-.3.1c0,.1-.1.1,0,.2v27.6l12.1,6a.7.7,0,0,0,1-.2c.1-.2.2-.3.1-.5v-26.6c0-.1-.1-.3-.2-.3Z"/><path class="d" d="M13.2-4148.2l13-21.1a.481.481,0,0,1,.6-.2l12.5,6.3c.1.1.2.3.1.4h0l-13,21.1Z"/><path class="e" d="M1.5-4168.9c-.8-.4-1.1-.1-.6.7l12.3,20,13.2,6.6-13.1-21.3c-.1-.1-.1-.2-.2-.2Z"/><path class="f" d="M13.2-4136.3c.1.4-.2.7-.6.8a.749.749,0,0,1-.5-.1L.7-4141.3a1.388,1.388,0,0,1-.7-1.2v-26.4c0-.3.1-.5.4-.5a.367.367,0,0,1,.3.1l12.3,6.1c.1,0,.2.1.2.3v26.6Z"/></g><path class="b" d="M136.6-484.6s5,5.1,3.6,11,11.2-16,6.1-16.7S136.6-484.6,136.6-484.6Z"/></g></g><g transform="translate(916 -99)"><g transform="translate(6 625)"><path class="b" d="M160-521a48.4,48.4,0,0,1-12.5,32.1A58.082,58.082,0,0,1,139-481a68.8,68.8,0,0,1-41.6,13.5C63-467.5,35-491.5,35-521a40.7,40.7,0,0,1,.3-5v-.5H159.7a.9.9,0,0,0,.1.5C159.9-524.4,160-522.7,160-521Z"/><g transform="translate(77.674 3631.398)"><path class="c" d="M39.5-4157.9v21.6a.749.749,0,0,1-.1.5.776.776,0,0,1-1,.2l-12.1-6v-16.3H39.5Z"/><path class="d" d="M36.4-4157.9l-.3.5-9.7,15.8h-.1l-13.1-6.6,4.5-7.4,1.1-1.8.3-.5Z"/><path class="e" d="M26.4-4141.6l-13.2-6.6-5.7-9.2-.3-.5h9.1l.3.5,1.1,1.8,8.6,14Z"/><path class="f" d="M13.2-4157.9v21.6c.1.4-.2.7-.6.8a.749.749,0,0,1-.5-.1L.7-4141.3a1.388,1.388,0,0,1-.7-1.2v-15.4H13.2Z"/></g><path class="b" d="M136.6-484.6s5,5.1,3.6,11,11.2-16,6.1-16.7S136.6-484.6,136.6-484.6Z"/></g><g transform="translate(6 806)"><ellipse class="b" cx="62.5" cy="53.5" rx="62.5" ry="53.5" transform="translate(35 -574.5)"/><g transform="translate(77.674 3631.398)"><path class="c" d="M26.7-4169.5a.192.192,0,0,0-.3.1c0,.1-.1.1,0,.2v27.6l12.1,6a.7.7,0,0,0,1-.2c.1-.2.2-.3.1-.5v-26.6c0-.1-.1-.3-.2-.3Z"/><path class="d" d="M13.2-4148.2l13-21.1a.481.481,0,0,1,.6-.2l12.5,6.3c.1.1.2.3.1.4h0l-13,21.1Z"/><path class="e" d="M1.5-4168.9c-.8-.4-1.1-.1-.6.7l12.3,20,13.2,6.6-13.1-21.3c-.1-.1-.1-.2-.2-.2Z"/><path class="f" d="M13.2-4136.3c.1.4-.2.7-.6.8a.749.749,0,0,1-.5-.1L.7-4141.3a1.388,1.388,0,0,1-.7-1.2v-26.4c0-.3.1-.5.4-.5a.367.367,0,0,1,.3.1l12.3,6.1c.1,0,.2.1.2.3v26.6Z"/></g><path class="b" d="M136.6-484.6s5,5.1,3.6,11,11.2-16,6.1-16.7S136.6-484.6,136.6-484.6Z"/></g><g transform="translate(6 987)"><ellipse class="b" cx="62.5" cy="53.5" rx="62.5" ry="53.5" transform="translate(35 -574.5)"/><g transform="translate(77.674 3631.398)"><path class="c" d="M26.7-4169.5a.192.192,0,0,0-.3.1c0,.1-.1.1,0,.2v27.6l12.1,6a.7.7,0,0,0,1-.2c.1-.2.2-.3.1-.5v-26.6c0-.1-.1-.3-.2-.3Z"/><path class="d" d="M13.2-4148.2l13-21.1a.481.481,0,0,1,.6-.2l12.5,6.3c.1.1.2.3.1.4h0l-13,21.1Z"/><path class="e" d="M1.5-4168.9c-.8-.4-1.1-.1-.6.7l12.3,20,13.2,6.6-13.1-21.3c-.1-.1-.1-.2-.2-.2Z"/><path class="f" d="M13.2-4136.3c.1.4-.2.7-.6.8a.749.749,0,0,1-.5-.1L.7-4141.3a1.388,1.388,0,0,1-.7-1.2v-26.4c0-.3.1-.5.4-.5a.367.367,0,0,1,.3.1l12.3,6.1c.1,0,.2.1.2.3v26.6Z"/></g><path class="b" d="M136.6-484.6s5,5.1,3.6,11,11.2-16,6.1-16.7S136.6-484.6,136.6-484.6Z"/></g></g><g transform="translate(687 -193)"><g transform="translate(6 806)"><ellipse class="b" cx="62.5" cy="53.5" rx="62.5" ry="53.5" transform="translate(35 -574.5)"/><g transform="translate(77.674 3631.398)"><path class="c" d="M26.7-4169.5a.192.192,0,0,0-.3.1c0,.1-.1.1,0,.2v27.6l12.1,6a.7.7,0,0,0,1-.2c.1-.2.2-.3.1-.5v-26.6c0-.1-.1-.3-.2-.3Z"/><path class="d" d="M13.2-4148.2l13-21.1a.481.481,0,0,1,.6-.2l12.5,6.3c.1.1.2.3.1.4h0l-13,21.1Z"/><path class="e" d="M1.5-4168.9c-.8-.4-1.1-.1-.6.7l12.3,20,13.2,6.6-13.1-21.3c-.1-.1-.1-.2-.2-.2Z"/><path class="f" d="M13.2-4136.3c.1.4-.2.7-.6.8a.749.749,0,0,1-.5-.1L.7-4141.3a1.388,1.388,0,0,1-.7-1.2v-26.4c0-.3.1-.5.4-.5a.367.367,0,0,1,.3.1l12.3,6.1c.1,0,.2.1.2.3v26.6Z"/></g><path class="b" d="M136.6-484.6s5,5.1,3.6,11,11.2-16,6.1-16.7S136.6-484.6,136.6-484.6Z"/></g><g transform="translate(6 987)"><ellipse class="b" cx="62.5" cy="53.5" rx="62.5" ry="53.5" transform="translate(35 -574.5)"/><g transform="translate(77.674 3631.398)"><path class="c" d="M26.7-4169.5a.192.192,0,0,0-.3.1c0,.1-.1.1,0,.2v27.6l12.1,6a.7.7,0,0,0,1-.2c.1-.2.2-.3.1-.5v-26.6c0-.1-.1-.3-.2-.3Z"/><path class="d" d="M13.2-4148.2l13-21.1a.481.481,0,0,1,.6-.2l12.5,6.3c.1.1.2.3.1.4h0l-13,21.1Z"/><path class="e" d="M1.5-4168.9c-.8-.4-1.1-.1-.6.7l12.3,20,13.2,6.6-13.1-21.3c-.1-.1-.1-.2-.2-.2Z"/><path class="f" d="M13.2-4136.3c.1.4-.2.7-.6.8a.749.749,0,0,1-.5-.1L.7-4141.3a1.388,1.388,0,0,1-.7-1.2v-26.4c0-.3.1-.5.4-.5a.367.367,0,0,1,.3.1l12.3,6.1c.1,0,.2.1.2.3v26.6Z"/></g><path class="b" d="M136.6-484.6s5,5.1,3.6,11,11.2-16,6.1-16.7S136.6-484.6,136.6-484.6Z"/></g><g transform="translate(6 1168)"><path class="b" d="M160-521a47.067,47.067,0,0,1-5,21c-.1.2-.2.3-.3.5H40.3c-.1-.2-.2-.3-.3-.5a47.067,47.067,0,0,1-5-21c0-29.5,28-53.5,62.5-53.5S160-550.5,160-521Z"/><g transform="translate(77.674 3631.398)"><path class="c" d="M26.7-4169.5a.192.192,0,0,0-.3.1c0,.1-.1.1,0,.2v27.6l12.1,6a.7.7,0,0,0,1-.2c.1-.2.2-.3.1-.5v-26.6c0-.1-.1-.3-.2-.3Z"/><path class="d" d="M13.2-4148.2l13-21.1a.481.481,0,0,1,.6-.2l12.5,6.3c.1.1.2.3.1.4h0l-13,21.1Z"/><path class="e" d="M1.5-4168.9c-.8-.4-1.1-.1-.6.7l12.3,20,13.2,6.6-13.1-21.3c-.1-.1-.1-.2-.2-.2Z"/><path class="f" d="M13.2-4136.3c.1.4-.2.7-.6.8a.749.749,0,0,1-.5-.1L.7-4141.3a1.388,1.388,0,0,1-.7-1.2v-26.4c0-.3.1-.5.4-.5a.367.367,0,0,1,.3.1l12.3,6.1c.1,0,.2.1.2.3v26.6Z"/></g></g></g><g transform="translate(1145 -193)"><g transform="translate(6 806)"><ellipse class="b" cx="62.5" cy="53.5" rx="62.5" ry="53.5" transform="translate(35 -574.5)"/><g transform="translate(77.674 3631.398)"><path class="c" d="M26.7-4169.5a.192.192,0,0,0-.3.1c0,.1-.1.1,0,.2v27.6l12.1,6a.7.7,0,0,0,1-.2c.1-.2.2-.3.1-.5v-26.6c0-.1-.1-.3-.2-.3Z"/><path class="d" d="M13.2-4148.2l13-21.1a.481.481,0,0,1,.6-.2l12.5,6.3c.1.1.2.3.1.4h0l-13,21.1Z"/><path class="e" d="M1.5-4168.9c-.8-.4-1.1-.1-.6.7l12.3,20,13.2,6.6-13.1-21.3c-.1-.1-.1-.2-.2-.2Z"/><path class="f" d="M13.2-4136.3c.1.4-.2.7-.6.8a.749.749,0,0,1-.5-.1L.7-4141.3a1.388,1.388,0,0,1-.7-1.2v-26.4c0-.3.1-.5.4-.5a.367.367,0,0,1,.3.1l12.3,6.1c.1,0,.2.1.2.3v26.6Z"/></g><path class="b" d="M136.6-484.6s5,5.1,3.6,11,11.2-16,6.1-16.7S136.6-484.6,136.6-484.6Z"/></g><g transform="translate(6 987)"><ellipse class="b" cx="62.5" cy="53.5" rx="62.5" ry="53.5" transform="translate(35 -574.5)"/><g transform="translate(77.674 3631.398)"><path class="c" d="M26.7-4169.5a.192.192,0,0,0-.3.1c0,.1-.1.1,0,.2v27.6l12.1,6a.7.7,0,0,0,1-.2c.1-.2.2-.3.1-.5v-26.6c0-.1-.1-.3-.2-.3Z"/><path class="d" d="M13.2-4148.2l13-21.1a.481.481,0,0,1,.6-.2l12.5,6.3c.1.1.2.3.1.4h0l-13,21.1Z"/><path class="e" d="M1.5-4168.9c-.8-.4-1.1-.1-.6.7l12.3,20,13.2,6.6-13.1-21.3c-.1-.1-.1-.2-.2-.2Z"/><path class="f" d="M13.2-4136.3c.1.4-.2.7-.6.8a.749.749,0,0,1-.5-.1L.7-4141.3a1.388,1.388,0,0,1-.7-1.2v-26.4c0-.3.1-.5.4-.5a.367.367,0,0,1,.3.1l12.3,6.1c.1,0,.2.1.2.3v26.6Z"/></g><path class="b" d="M136.6-484.6s5,5.1,3.6,11,11.2-16,6.1-16.7S136.6-484.6,136.6-484.6Z"/></g><g transform="translate(6 1168)"><path class="b" d="M160-521a47.067,47.067,0,0,1-5,21c-.1.2-.2.3-.3.5H40.3c-.1-.2-.2-.3-.3-.5a47.067,47.067,0,0,1-5-21c0-29.5,28-53.5,62.5-53.5S160-550.5,160-521Z"/><g transform="translate(77.674 3631.398)"><path class="c" d="M26.7-4169.5a.192.192,0,0,0-.3.1c0,.1-.1.1,0,.2v27.6l12.1,6a.7.7,0,0,0,1-.2c.1-.2.2-.3.1-.5v-26.6c0-.1-.1-.3-.2-.3Z"/><path class="d" d="M13.2-4148.2l13-21.1a.481.481,0,0,1,.6-.2l12.5,6.3c.1.1.2.3.1.4h0l-13,21.1Z"/><path class="e" d="M1.5-4168.9c-.8-.4-1.1-.1-.6.7l12.3,20,13.2,6.6-13.1-21.3c-.1-.1-.1-.2-.2-.2Z"/><path class="f" d="M13.2-4136.3c.1.4-.2.7-.6.8a.749.749,0,0,1-.5-.1L.7-4141.3a1.388,1.388,0,0,1-.7-1.2v-26.4c0-.3.1-.5.4-.5a.367.367,0,0,1,.3.1l12.3,6.1c.1,0,.2.1.2.3v26.6Z"/></g></g></g><line class="g" x1="3.2" transform="translate(96.8 -0.5)"/><line class="g" x1="3.2" transform="translate(554.8 -0.5)"/></g></svg>