<svg xmlns="http://www.w3.org/2000/svg" width="25.938" height="25.938" viewBox="0 0 25.938 25.938"><defs><style>.a{fill:#069;}.b{fill:#fff;}</style></defs><g transform="translate(-59 -84)"><path class="a" d="M0,1.858A1.889,1.889,0,0,1,1.917,0h22.1a1.889,1.889,0,0,1,1.917,1.858V24.081a1.888,1.888,0,0,1-1.917,1.858H1.917A1.888,1.888,0,0,1,0,24.081V1.858Z" transform="translate(59 84)"/><path class="b" d="M41.34,60.735V49.057H37.459V60.735h3.882ZM39.4,47.463a2.172,2.172,0,1,0-.025,0H39.4Zm4.088,13.272H47.37V54.214a2.658,2.658,0,0,1,.128-.947,2.124,2.124,0,0,1,1.992-1.42c1.4,0,1.966,1.071,1.966,2.641v6.246h3.881v-6.7c0-3.587-1.915-5.256-4.468-5.256a3.867,3.867,0,0,0-3.524,1.967h.026V49.058H43.489c.051,1.1,0,11.677,0,11.677Z" transform="translate(25.542 44.972)"/></g></svg>