<svg xmlns="http://www.w3.org/2000/svg" width="26.604" height="26.604" viewBox="0 0 26.604 26.604"><g transform="translate(-508 119)"><g transform="translate(508 -119)"><path d="M24.109,0H2.494A2.494,2.494,0,0,0,0,2.494V24.109A2.494,2.494,0,0,0,2.494,26.6H24.109A2.494,2.494,0,0,0,26.6,24.109V2.494A2.494,2.494,0,0,0,24.109,0Zm.831,24.109a.831.831,0,0,1-.831.831H2.494a.831.831,0,0,1-.831-.831V2.494a.831.831,0,0,1,.831-.831H24.109a.831.831,0,0,1,.831.831Z"/><path d="M94.105,242.043a.831.831,0,0,0-1.172,0l-1.912,1.912-3.567-3.567a.831.831,0,0,0-1.172,0l-5.82,5.82a.831.831,0,0,0,.582,1.413H97.672a.831.831,0,0,0,.59-1.422Z" transform="translate(-76.056 -227.669)"/><ellipse cx="2.5" cy="2" rx="2.5" ry="2" transform="translate(13 7)"/></g></g></svg>