<svg id="Capa_1" data-name="Capa 1" xmlns="http://www.w3.org/2000/svg" xmlns:xlink="http://www.w3.org/1999/xlink" viewBox="0 0 512 512"><defs><style>.cls-1{fill:url(#linear-gradient);}.cls-2{fill:url(#linear-gradient-2);}.cls-3{fill:url(#linear-gradient-3);}.cls-4{fill:url(#linear-gradient-4);}.cls-5{fill:url(#linear-gradient-5);}.cls-6{fill:url(#linear-gradient-6);}.cls-7{fill:url(#linear-gradient-7);}.cls-8{fill:url(#linear-gradient-8);}.cls-9{fill:url(#linear-gradient-9);}.cls-10{fill:url(#linear-gradient-10);}</style><linearGradient id="linear-gradient" x1="57.33" y1="256.39" x2="454.67" y2="256.39" gradientUnits="userSpaceOnUse"><stop offset="0" stop-color="#992836"/><stop offset="1" stop-color="#4d141b"/></linearGradient><linearGradient id="linear-gradient-2" x1="106.01" y1="278.16" x2="151.72" y2="278.16" xlink:href="#linear-gradient"/><linearGradient id="linear-gradient-3" x1="106.01" y1="56.98" x2="278.27" y2="56.98" xlink:href="#linear-gradient"/><linearGradient id="linear-gradient-4" x1="106.01" y1="93.85" x2="405.99" y2="93.85" xlink:href="#linear-gradient"/><linearGradient id="linear-gradient-5" x1="106.01" y1="130.71" x2="405.99" y2="130.71" xlink:href="#linear-gradient"/><linearGradient id="linear-gradient-6" x1="106.01" y1="167.57" x2="405.99" y2="167.57" xlink:href="#linear-gradient"/><linearGradient id="linear-gradient-7" x1="106.01" y1="204.43" x2="405.99" y2="204.43" xlink:href="#linear-gradient"/><linearGradient id="linear-gradient-8" x1="106.01" y1="241.3" x2="405.99" y2="241.3" xlink:href="#linear-gradient"/><linearGradient id="linear-gradient-9" x1="180.84" y1="278.16" x2="404.51" y2="278.16" xlink:href="#linear-gradient"/><linearGradient id="linear-gradient-10" x1="207.23" y1="397.3" x2="304.78" y2="397.3" xlink:href="#linear-gradient"/></defs><path class="cls-1" d="M447.17,1.62H385.89a7.5,7.5,0,0,0,0,15h53.78V496.17H72.33V16.62H338.64a7.5,7.5,0,0,0,0-15H69.83a12.51,12.51,0,0,0-12.5,12.5V503.67a7.5,7.5,0,0,0,7.5,7.5H447.17a7.5,7.5,0,0,0,7.5-7.5V9.12A7.5,7.5,0,0,0,447.17,1.62Z"/><path class="cls-2" d="M113.51,270.66a7.5,7.5,0,1,0,0,15h30.71a7.5,7.5,0,0,0,0-15Z"/><path class="cls-3" d="M113.51,64.48H270.77a7.5,7.5,0,0,0,0-15H113.51a7.5,7.5,0,1,0,0,15Z"/><path class="cls-4" d="M398.49,86.35h-285a7.5,7.5,0,0,0,0,15h285a7.5,7.5,0,0,0,0-15Z"/><path class="cls-5" d="M398.49,123.21h-285a7.5,7.5,0,0,0,0,15h285a7.5,7.5,0,0,0,0-15Z"/><path class="cls-6" d="M398.49,160.07h-285a7.5,7.5,0,1,0,0,15h285a7.5,7.5,0,0,0,0-15Z"/><path class="cls-7" d="M398.49,196.93h-285a7.5,7.5,0,1,0,0,15h285a7.5,7.5,0,0,0,0-15Z"/><path class="cls-8" d="M398.49,233.8h-285a7.5,7.5,0,1,0,0,15h285a7.5,7.5,0,0,0,0-15Z"/><path class="cls-9" d="M404.51,278.16a7.5,7.5,0,0,0-7.5-7.5H188.34a7.5,7.5,0,1,0,0,15H397A7.5,7.5,0,0,0,404.51,278.16Z"/><path class="cls-10" d="M292,365.26l-35.91,35.91-5.25,5.24c-2.43,2.42-4.9,4.88-7.38,7.37l-3.94-3.95L220,390.37A7.5,7.5,0,0,0,209.42,401l19.47,19.46,8.36,8.38a8.63,8.63,0,0,0,6.19,2.72h.28a8.57,8.57,0,0,0,6-2.74c3.87-3.93,7.86-7.91,11.71-11.75l5.28-5.26,35.91-35.91A7.5,7.5,0,0,0,292,365.26Z"/></svg>