<svg id="Legalização" xmlns="http://www.w3.org/2000/svg" xmlns:xlink="http://www.w3.org/1999/xlink" width="84.545" height="108.664" viewBox="0 0 84.545 108.664">
  <defs>
    <linearGradient id="linear-gradient" x1="-0.066" y1="0.445" x2="1.066" y2="0.555" gradientUnits="objectBoundingBox">
      <stop offset="0" stop-color="#992836"/>
      <stop offset="1" stop-color="#4d141b"/>
    </linearGradient>
    <linearGradient id="linear-gradient-2" x1="0.007" y1="-0.433" x2="0.993" y2="1.432" xlink:href="#linear-gradient"/>
    <linearGradient id="linear-gradient-3" x1="0.007" y1="-1.141" x2="0.993" y2="2.142" xlink:href="#linear-gradient"/>
    <linearGradient id="linear-gradient-4" x1="0.007" y1="-1.141" x2="0.993" y2="2.141" xlink:href="#linear-gradient"/>
    <linearGradient id="linear-gradient-8" x1="0.007" y1="-1.142" x2="0.993" y2="2.141" xlink:href="#linear-gradient"/>
    <linearGradient id="linear-gradient-10" x1="0.008" y1="0.386" x2="0.96" y2="0.555" xlink:href="#linear-gradient"/>
  </defs>
  <path id="Caminho_317" data-name="Caminho 317" d="M92.525,0H15.74a3.8,3.8,0,0,0-3.88,3.707v101.25a3.8,3.8,0,0,0,3.88,3.707H92.525a3.8,3.8,0,0,0,3.88-3.707V3.707A3.807,3.807,0,0,0,92.525,0Zm1.514,104.957a1.456,1.456,0,0,1-1.514,1.341H15.74a1.456,1.456,0,0,1-1.514-1.341V3.707A1.456,1.456,0,0,1,15.74,2.366H92.525a1.456,1.456,0,0,1,1.514,1.341Z" transform="translate(-11.86)" fill="url(#linear-gradient)"/>
  <path id="Caminho_318" data-name="Caminho 318" d="M99.9,54.556H66.1a1.183,1.183,0,1,1,0-2.366H99.9a1.183,1.183,0,1,1,0,2.366Z" transform="translate(-54.459 -41.9)" fill="url(#linear-gradient-2)"/>
  <path id="Caminho_319" data-name="Caminho 319" d="M127.356,94.736H66.1a1.183,1.183,0,0,1,0-2.366h61.253a1.183,1.183,0,0,1,0,2.366Z" transform="translate(-54.459 -74.159)" fill="url(#linear-gradient-3)"/>
  <path id="Caminho_320" data-name="Caminho 320" d="M127.356,134.926H66.1a1.183,1.183,0,1,1,0-2.366h61.253a1.183,1.183,0,0,1,0,2.366Z" transform="translate(-54.459 -106.425)" fill="url(#linear-gradient-4)"/>
  <path id="Caminho_321" data-name="Caminho 321" d="M127.356,175.116H66.1a1.183,1.183,0,1,1,0-2.366h61.253a1.183,1.183,0,0,1,0,2.366Z" transform="translate(-54.459 -138.691)" fill="url(#linear-gradient-4)"/>
  <path id="Caminho_322" data-name="Caminho 322" d="M127.356,215.3H66.1a1.183,1.183,0,1,1,0-2.366h61.253a1.183,1.183,0,0,1,0,2.366Z" transform="translate(-54.459 -170.949)" fill="url(#linear-gradient-3)"/>
  <path id="Caminho_323" data-name="Caminho 323" d="M127.356,255.486H66.1a1.183,1.183,0,1,1,0-2.366h61.253a1.183,1.183,0,0,1,0,2.366Z" transform="translate(-54.459 -203.215)" fill="url(#linear-gradient-4)"/>
  <path id="Caminho_324" data-name="Caminho 324" d="M127.356,295.676H66.1a1.183,1.183,0,1,1,0-2.366h61.253a1.183,1.183,0,0,1,0,2.366Z" transform="translate(-54.459 -235.482)" fill="url(#linear-gradient-8)"/>
  <path id="Caminho_325" data-name="Caminho 325" d="M127.356,335.856H66.1a1.183,1.183,0,1,1,0-2.366h61.253a1.183,1.183,0,0,1,0,2.366Z" transform="translate(-54.459 -267.74)" fill="url(#linear-gradient-4)"/>
  <path id="Caminho_326" data-name="Caminho 326" d="M194.635,410.164l-11.829,11.829a1.166,1.166,0,0,1-.41.266,1.287,1.287,0,0,1-.446.087,1.183,1.183,0,0,1-.836-.347l-6.155-6.153a1.184,1.184,0,0,1,1.674-1.674l5.323,5.323,11.005-11.007a1.184,1.184,0,1,1,1.674,1.674Z" transform="translate(-142.524 -327.673)" fill="url(#linear-gradient-10)"/>
</svg>
