<svg id="Capa_1" data-name="Capa 1" xmlns="http://www.w3.org/2000/svg" xmlns:xlink="http://www.w3.org/1999/xlink" viewBox="0 0 449.36 551.15"><defs><style>.cls-1{fill:url(#linear-gradient);}.cls-2{fill:url(#linear-gradient-2);}.cls-3{fill:url(#linear-gradient-3);}.cls-4{fill:url(#linear-gradient-4);}.cls-5{fill:url(#linear-gradient-5);}.cls-6{fill:url(#linear-gradient-6);}.cls-7{fill:url(#linear-gradient-7);}.cls-8{fill:url(#linear-gradient-8);}.cls-9{fill:url(#linear-gradient-9);}.cls-10{fill:url(#linear-gradient-10);}</style><linearGradient id="linear-gradient" x1="-16.37" y1="245.52" x2="468.89" y2="305.63" gradientUnits="userSpaceOnUse"><stop offset="0" stop-color="#992836"/><stop offset="1" stop-color="#4d141b"/></linearGradient><linearGradient id="linear-gradient-2" x1="66.26" y1="46.99" x2="247.02" y2="69.38" xlink:href="#linear-gradient"/><linearGradient id="linear-gradient-3" x1="67.32" y1="78.68" x2="385.2" y2="118.07" xlink:href="#linear-gradient"/><linearGradient id="linear-gradient-4" x1="67.32" y1="118.87" x2="385.2" y2="158.25" xlink:href="#linear-gradient"/><linearGradient id="linear-gradient-5" x1="67.32" y1="159.06" x2="385.2" y2="198.44" xlink:href="#linear-gradient"/><linearGradient id="linear-gradient-6" x1="67.32" y1="199.24" x2="385.2" y2="238.63" xlink:href="#linear-gradient"/><linearGradient id="linear-gradient-7" x1="67.32" y1="239.43" x2="385.2" y2="278.81" xlink:href="#linear-gradient"/><linearGradient id="linear-gradient-8" x1="67.32" y1="279.61" x2="385.2" y2="319" xlink:href="#linear-gradient"/><linearGradient id="linear-gradient-9" x1="67.32" y1="319.8" x2="385.2" y2="359.18" xlink:href="#linear-gradient"/><linearGradient id="linear-gradient-10" x1="175.43" y1="435.94" x2="273.76" y2="448.12" xlink:href="#linear-gradient"/></defs><path class="cls-1" d="M421,0H31.54C20.69,0,11.86,8.44,11.86,18.8V532.35c0,10.37,8.83,18.8,19.68,18.8H421c10.85,0,19.68-8.43,19.68-18.8V18.8C440.66,8.44,431.83,0,421,0Zm7.68,532.35c0,3.68-3.52,6.8-7.68,6.8H31.54c-4.16,0-7.68-3.12-7.68-6.8V18.8c0-3.68,3.52-6.8,7.68-6.8H421c4.16,0,7.68,3.12,7.68,6.8Z"/><path class="cls-2" d="M242.36,64.19H70.92a6,6,0,0,1,0-12H242.36a6,6,0,0,1,0,12Z"/><path class="cls-3" d="M381.6,104.37H70.92a6,6,0,0,1,0-12H381.6a6,6,0,0,1,0,12Z"/><path class="cls-4" d="M381.6,144.56H70.92a6,6,0,0,1,0-12H381.6a6,6,0,0,1,0,12Z"/><path class="cls-5" d="M381.6,184.75H70.92a6,6,0,0,1,0-12H381.6a6,6,0,0,1,0,12Z"/><path class="cls-6" d="M381.6,224.93H70.92a6,6,0,0,1,0-12H381.6a6,6,0,0,1,0,12Z"/><path class="cls-7" d="M381.6,265.12H70.92a6,6,0,0,1,0-12H381.6a6,6,0,0,1,0,12Z"/><path class="cls-8" d="M381.6,305.31H70.92a6,6,0,0,1,0-12H381.6a6,6,0,0,1,0,12Z"/><path class="cls-9" d="M381.6,345.49H70.92a6,6,0,0,1,0-12H381.6a6,6,0,0,1,0,12Z"/><path class="cls-10" d="M276.17,418.4l-60,60a5.92,5.92,0,0,1-2.08,1.35,6.53,6.53,0,0,1-2.26.44,6,6,0,0,1-4.24-1.76l-31.22-31.21a6,6,0,0,1,8.49-8.49l27,27,55.82-55.83a6,6,0,1,1,8.49,8.49Z"/></svg>