<svg xmlns="http://www.w3.org/2000/svg" width="314.029" height="38.419" viewBox="0 0 314.029 38.419">
  <g id="Logo_Sedimenta" data-name="Logo Sedimenta" transform="translate(-65.1 -62.6)">
    <g id="Grupo_876" data-name="Grupo 876" transform="translate(140.908 69.6)">
      <g id="Grupo_864" data-name="Grupo 864" transform="translate(0 0.412)">
        <path id="Caminho_268" data-name="Caminho 268" d="M322.8,81.25l6.413-1.206c.53,1.912,1.912,2.853,4.148,2.853,1.736,0,2.618-.471,2.618-1.441a1.373,1.373,0,0,0-.588-1.177,6.421,6.421,0,0,0-2.147-.765c-3.942-.794-6.5-1.824-7.619-3.118a6.7,6.7,0,0,1-1.677-4.53,7.18,7.18,0,0,1,2.412-5.56q2.427-2.206,6.972-2.206c4.589,0,7.619,1.942,9.09,5.8l-5.736,1.794a3.493,3.493,0,0,0-3.618-2.383c-1.5,0-2.265.5-2.265,1.471a1.217,1.217,0,0,0,.5,1.03,6.751,6.751,0,0,0,1.971.706,36.622,36.622,0,0,1,5.736,1.589,6.431,6.431,0,0,1,2.853,2.353A6.831,6.831,0,0,1,343.01,80.4a7.136,7.136,0,0,1-2.765,5.825,11.363,11.363,0,0,1-7.3,2.236C327.477,88.457,324.094,86.045,322.8,81.25Z" transform="translate(-322.8 -64.1)" fill="#992937"/>
      </g>
      <g id="Grupo_865" data-name="Grupo 865" transform="translate(22.357 6.442)">
        <path id="Caminho_269" data-name="Caminho 269" d="M410.8,96.22l6.148.441a7.647,7.647,0,0,1-2.795,4.442,9.363,9.363,0,0,1-6.06,1.824,9.07,9.07,0,0,1-6.766-2.559,8.787,8.787,0,0,1-2.53-6.384,9.461,9.461,0,0,1,2.5-6.678,9.528,9.528,0,0,1,13.15-.147,9.614,9.614,0,0,1,2.471,6.972c0,.235,0,.588-.029,1H405.654a4.784,4.784,0,0,0,.559,2.471,2.246,2.246,0,0,0,2,.794A2.345,2.345,0,0,0,410.8,96.22Zm-.441-4.56a3.327,3.327,0,0,0-.677-2.412,2.338,2.338,0,0,0-1.647-.618c-1.559,0-2.324,1-2.324,3.03Z" transform="translate(-398.8 -84.6)" fill="#992937"/>
      </g>
      <g id="Grupo_866" data-name="Grupo 866" transform="translate(42.273 0.735)">
        <path id="Caminho_270" data-name="Caminho 270" d="M483.709,88.851h-6.178V86.5A4.7,4.7,0,0,1,473,89.2a5.631,5.631,0,0,1-4.707-2.383c-1.206-1.589-1.794-3.883-1.794-6.913a11.226,11.226,0,0,1,1.824-6.737,5.641,5.641,0,0,1,4.8-2.5,5.1,5.1,0,0,1,4.118,2V65.2h6.472Zm-6.472-11.326q0-2.383-1.853-2.383a1.7,1.7,0,0,0-1.706,1.5,14.575,14.575,0,0,0-.412,3.677c0,2.853.706,4.295,2.089,4.295a1.742,1.742,0,0,0,1.353-.677,3.129,3.129,0,0,0,.559-2.059V77.526Z" transform="translate(-466.5 -65.2)" fill="#992937"/>
      </g>
      <g id="Grupo_867" data-name="Grupo 867" transform="translate(62.953)">
        <path id="Caminho_271" data-name="Caminho 271" d="M543.389,62.7v5.472H536.8V62.7Zm0,6.766V87.087H536.8V69.466Z" transform="translate(-536.8 -62.7)" fill="#992937"/>
      </g>
      <g id="Grupo_868" data-name="Grupo 868" transform="translate(73.014 6.413)">
        <path id="Caminho_272" data-name="Caminho 272" d="M596.446,102.474h-6.384V91.442a2.907,2.907,0,0,0-.294-1.559,1.225,1.225,0,0,0-1.088-.441q-1.853,0-1.853,2.824v10.178H580.5V91.413c0-1.412-.53-2.118-1.559-2.118q-1.589,0-1.589,2.118v11.031H571V84.853h5.913v2.383a5.366,5.366,0,0,1,9.355,0A5.454,5.454,0,0,1,591.3,84.5a5.624,5.624,0,0,1,2.853.706,4.451,4.451,0,0,1,1.794,1.824A8,8,0,0,1,596.5,90.5v11.973Z" transform="translate(-571 -84.5)" fill="#992937"/>
      </g>
      <g id="Grupo_869" data-name="Grupo 869" transform="translate(101.048 6.442)">
        <path id="Caminho_273" data-name="Caminho 273" d="M678.3,96.22l6.148.441a7.647,7.647,0,0,1-2.795,4.442,9.363,9.363,0,0,1-6.06,1.824,9.07,9.07,0,0,1-6.766-2.559,8.787,8.787,0,0,1-2.53-6.384,9.461,9.461,0,0,1,2.5-6.678,9.528,9.528,0,0,1,13.149-.147,9.614,9.614,0,0,1,2.471,6.972c0,.235,0,.588-.029,1H673.154a4.785,4.785,0,0,0,.559,2.471,2.247,2.247,0,0,0,2,.794A2.345,2.345,0,0,0,678.3,96.22Zm-.441-4.56a3.327,3.327,0,0,0-.677-2.412,2.338,2.338,0,0,0-1.647-.618c-1.559,0-2.324,1-2.324,3.03Z" transform="translate(-666.3 -84.6)" fill="#992937"/>
      </g>
      <g id="Grupo_870" data-name="Grupo 870" transform="translate(121.758 6.413)">
        <path id="Caminho_274" data-name="Caminho 274" d="M753.115,102.474h-6.589V91.384a2.638,2.638,0,0,0-.412-1.765,1.4,1.4,0,0,0-1.03-.382c-1.206,0-1.794.882-1.794,2.648v10.59H736.7V84.853h6.119v2.5a4.894,4.894,0,0,1,4.824-2.853,5.859,5.859,0,0,1,3.089.735,4.151,4.151,0,0,1,1.794,1.912,10.828,10.828,0,0,1,.559,4.06v11.267Z" transform="translate(-736.7 -84.5)" fill="#992937"/>
      </g>
      <g id="Grupo_871" data-name="Grupo 871" transform="translate(139.791 0.912)">
        <path id="Caminho_275" data-name="Caminho 275" d="M810.237,71.654v4.5h-3.354v6.5c0,.883.147,1.412.471,1.589a2.036,2.036,0,0,0,1,.265,7.023,7.023,0,0,0,1.883-.294v4.913a19.236,19.236,0,0,1-3.824.412,6.308,6.308,0,0,1-4.471-1.383A5.875,5.875,0,0,1,800.5,83.8l.029-2.059V76.155H798v-4.5h2.5l.088-5.736,6.266-.118v5.854Z" transform="translate(-798 -65.8)" fill="#992937"/>
      </g>
      <g id="Grupo_872" data-name="Grupo 872" transform="translate(153.587 6.413)">
        <path id="Caminho_276" data-name="Caminho 276" d="M862.727,102.474h-6.266a12.816,12.816,0,0,1-.235-2.471,5.962,5.962,0,0,1-5.413,2.824,5.767,5.767,0,0,1-4.442-1.589,5.342,5.342,0,0,1,.941-8.149c1.618-1.147,4.471-1.853,8.59-2.059v-.412a1.859,1.859,0,0,0-.5-1.53,2.312,2.312,0,0,0-1.471-.382c-1.53,0-2.353.647-2.53,1.912l-6-.588c.853-3.677,3.795-5.53,8.766-5.53a16.514,16.514,0,0,1,3.736.412,6.478,6.478,0,0,1,2.706,1.324,4.428,4.428,0,0,1,1.324,1.912A13.808,13.808,0,0,1,862.286,92v7.06A8.161,8.161,0,0,0,862.727,102.474Zm-6.854-8.237c-2.795.324-4.207,1.265-4.207,2.824q0,1.589,1.677,1.589A2.591,2.591,0,0,0,855.137,98c.5-.441.735-1.412.735-2.912Z" transform="translate(-844.9 -84.5)" fill="#992937"/>
      </g>
      <g id="Grupo_873" data-name="Grupo 873" transform="translate(177.474 0.735)">
        <path id="Caminho_277" data-name="Caminho 277" d="M938.22,65.2V80.115a18.141,18.141,0,0,1-.589,5.236,5.082,5.082,0,0,1-2.294,2.853,8.728,8.728,0,0,1-4.618,1.059A17.282,17.282,0,0,1,926.1,88.7V83.056a9.423,9.423,0,0,0,2.706.441,2.7,2.7,0,0,0,2.118-.706,4.1,4.1,0,0,0,.618-2.618V65.2Z" transform="translate(-926.1 -65.2)" fill="#992937"/>
      </g>
      <g id="Grupo_874" data-name="Grupo 874" transform="translate(192.448 0.735)">
        <path id="Caminho_278" data-name="Caminho 278" d="M984.031,80.262v8.59H977V65.2h9.619a13.784,13.784,0,0,1,5.472.853,6.984,6.984,0,0,1,2.971,2.648,7.429,7.429,0,0,1,1.088,4,7.12,7.12,0,0,1-2.236,5.472,8.515,8.515,0,0,1-6,2.089h-3.883Zm-.088-5.06h2.324c2.03,0,3.059-.794,3.059-2.353q0-2.206-2.824-2.206h-2.53V75.2Z" transform="translate(-977 -65.2)" fill="#992937"/>
      </g>
      <g id="Grupo_875" data-name="Grupo 875" transform="translate(213.746 0.735)">
        <path id="Caminho_279" data-name="Caminho 279" d="M1073.875,65.2V88.851h-6.413V71.966l-4.177,16.915H1058.9l-4.324-16.915V88.881H1049.4V65.2h9.031l3.265,12.561,3.118-12.561Z" transform="translate(-1049.4 -65.2)" fill="#992937"/>
      </g>
    </g>
    <path id="Caminho_280" data-name="Caminho 280" d="M127.229,82.78v18.209h-18.68a19.013,19.013,0,0,1,18.68-18.209m0-10.973v3.618a26.361,26.361,0,0,0-26.034,25.564H97.724A29.925,29.925,0,0,1,127.229,71.808ZM105.755,62.6h8.119a41.5,41.5,0,0,0-27.711,38.419H83.015A44.74,44.74,0,0,1,105.755,62.6ZM65.1,62.6H79.485a61.66,61.66,0,0,0-13.767,38.419H65.1Z" transform="translate(0 0)" fill="#992937" fill-rule="evenodd"/>
  </g>
</svg>
