<svg id="Layer_1" data-name="Layer 1" xmlns="http://www.w3.org/2000/svg" viewBox="0 0 1196 257"><defs><style>.cls-1,.cls-2{fill:#992937;}.cls-2{fill-rule:evenodd;}</style></defs><path class="cls-1" d="M690,186.21l2,0v.69a4.18,4.18,0,0,0,1,3,3.84,3.84,0,0,0,2.88,1,3.88,3.88,0,0,0,2.82-1,3.7,3.7,0,0,0,1.06-2.76,3.63,3.63,0,0,0-.68-2.16,14.67,14.67,0,0,0-3.46-2.7l-.74-.48a25.29,25.29,0,0,1-3-2.08,4.56,4.56,0,0,1-1.2-1.73,5.76,5.76,0,0,1-.43-2.26,4.71,4.71,0,0,1,1.56-3.71,6.18,6.18,0,0,1,4.27-1.38,5.65,5.65,0,0,1,4.1,1.38,5.4,5.4,0,0,1,1.42,4v.43h-2v-.2a4.38,4.38,0,0,0-.9-3,3.57,3.57,0,0,0-2.77-1,4,4,0,0,0-2.74.92,3.1,3.1,0,0,0-1,2.43A3.66,3.66,0,0,0,693,178a18.15,18.15,0,0,0,4.11,3.09,13.53,13.53,0,0,1,3.72,2.94,4.85,4.85,0,0,1,.86,2.89,5.52,5.52,0,0,1-1.57,4.17,6.11,6.11,0,0,1-4.4,1.5,5.85,5.85,0,0,1-4.26-1.43A5.62,5.62,0,0,1,690,187v-.74Z"/><path class="cls-1" d="M711,186.21l2,0v.69a4.18,4.18,0,0,0,1,3,3.84,3.84,0,0,0,2.88,1,3.88,3.88,0,0,0,2.82-1,3.7,3.7,0,0,0,1.06-2.76,3.63,3.63,0,0,0-.68-2.16,14.67,14.67,0,0,0-3.46-2.7l-.74-.48a25.29,25.29,0,0,1-3-2.08,4.56,4.56,0,0,1-1.2-1.73,5.76,5.76,0,0,1-.43-2.26,4.71,4.71,0,0,1,1.56-3.71,6.18,6.18,0,0,1,4.27-1.38,5.65,5.65,0,0,1,4.1,1.38,5.4,5.4,0,0,1,1.42,4v.43h-2v-.2a4.38,4.38,0,0,0-.9-3,3.57,3.57,0,0,0-2.77-1,4,4,0,0,0-2.74.92,3.1,3.1,0,0,0-1,2.43A3.66,3.66,0,0,0,714,178a18.15,18.15,0,0,0,4.11,3.09,13.53,13.53,0,0,1,3.72,2.94,4.85,4.85,0,0,1,.86,2.89,5.52,5.52,0,0,1-1.57,4.17,6.11,6.11,0,0,1-4.4,1.5,5.85,5.85,0,0,1-4.26-1.43A5.62,5.62,0,0,1,711,187v-.74Z"/><path class="cls-1" d="M750,186.21l2,0v.69a4.18,4.18,0,0,0,1,3,3.84,3.84,0,0,0,2.88,1,3.88,3.88,0,0,0,2.82-1,3.7,3.7,0,0,0,1.06-2.76,3.63,3.63,0,0,0-.68-2.16,14.67,14.67,0,0,0-3.46-2.7l-.74-.48a25.29,25.29,0,0,1-3-2.08,4.56,4.56,0,0,1-1.2-1.73,5.76,5.76,0,0,1-.43-2.26,4.71,4.71,0,0,1,1.56-3.71,6.18,6.18,0,0,1,4.27-1.38,5.65,5.65,0,0,1,4.1,1.38,5.4,5.4,0,0,1,1.42,4v.43h-2v-.2a4.38,4.38,0,0,0-.9-3,3.57,3.57,0,0,0-2.77-1,4,4,0,0,0-2.74.92,3.1,3.1,0,0,0-1,2.43A3.66,3.66,0,0,0,753,178a18.15,18.15,0,0,0,4.11,3.09,13.53,13.53,0,0,1,3.72,2.94,4.85,4.85,0,0,1,.86,2.89,5.52,5.52,0,0,1-1.57,4.17,6.11,6.11,0,0,1-4.4,1.5,5.85,5.85,0,0,1-4.26-1.43A5.62,5.62,0,0,1,750,187v-.74Z"/><path class="cls-1" d="M771,186.21l2,0v.69a4.18,4.18,0,0,0,1,3,3.84,3.84,0,0,0,2.88,1,3.88,3.88,0,0,0,2.82-1,3.7,3.7,0,0,0,1.06-2.76,3.63,3.63,0,0,0-.68-2.16,14.67,14.67,0,0,0-3.46-2.7l-.74-.48a25.29,25.29,0,0,1-3-2.08,4.56,4.56,0,0,1-1.2-1.73,5.76,5.76,0,0,1-.43-2.26,4.71,4.71,0,0,1,1.56-3.71,6.18,6.18,0,0,1,4.27-1.38,5.65,5.65,0,0,1,4.1,1.38,5.4,5.4,0,0,1,1.42,4v.43h-2v-.2a4.38,4.38,0,0,0-.9-3,3.57,3.57,0,0,0-2.77-1,4,4,0,0,0-2.74.92,3.1,3.1,0,0,0-1,2.43A3.66,3.66,0,0,0,774,178a18.15,18.15,0,0,0,4.11,3.09,13.53,13.53,0,0,1,3.72,2.94,4.85,4.85,0,0,1,.86,2.89,5.52,5.52,0,0,1-1.57,4.17,6.11,6.11,0,0,1-4.4,1.5,5.85,5.85,0,0,1-4.26-1.43A5.62,5.62,0,0,1,771,187v-.74Z"/><path class="cls-1" d="M988,187.21l2,0v.69a4.18,4.18,0,0,0,1,3,3.84,3.84,0,0,0,2.88,1,3.88,3.88,0,0,0,2.82-1,3.7,3.7,0,0,0,1.06-2.76,3.63,3.63,0,0,0-.68-2.16,14.67,14.67,0,0,0-3.46-2.7l-.74-.48a25.29,25.29,0,0,1-3-2.08,4.56,4.56,0,0,1-1.2-1.73,5.76,5.76,0,0,1-.43-2.26,4.71,4.71,0,0,1,1.56-3.71,6.18,6.18,0,0,1,4.27-1.38,5.65,5.65,0,0,1,4.1,1.38,5.4,5.4,0,0,1,1.42,4v.43h-2v-.2a4.38,4.38,0,0,0-.9-3,3.57,3.57,0,0,0-2.77-1,4,4,0,0,0-2.74.92,3.1,3.1,0,0,0-1,2.43A3.66,3.66,0,0,0,991,179a18.15,18.15,0,0,0,4.11,3.09,13.53,13.53,0,0,1,3.72,2.94,4.85,4.85,0,0,1,.86,2.89,5.52,5.52,0,0,1-1.57,4.17,6.11,6.11,0,0,1-4.4,1.5,5.85,5.85,0,0,1-4.26-1.43A5.62,5.62,0,0,1,988,188v-.74Z"/><path class="cls-1" d="M509.73,193.2V172h2v19.57h7.11v1.66Z"/><path class="cls-1" d="M791.74,181.59a34.41,34.41,0,0,1,.38-6.2,6.73,6.73,0,0,1,1.3-2.88,5,5,0,0,1,2-1.39,8,8,0,0,1,2.84-.47,8.17,8.17,0,0,1,2.82.46,5,5,0,0,1,2,1.4,6.56,6.56,0,0,1,1.31,2.94,33.74,33.74,0,0,1,.39,6.14,34.8,34.8,0,0,1-.38,6.13,6.25,6.25,0,0,1-1.32,2.95,5.41,5.41,0,0,1-2,1.4,8.11,8.11,0,0,1-2.81.49,7.86,7.86,0,0,1-2.79-.49,5.13,5.13,0,0,1-2.07-1.4,6.54,6.54,0,0,1-1.3-3A34.83,34.83,0,0,1,791.74,181.59Zm2,0q0,5.53,1,7.42a4.31,4.31,0,0,0,7.11,0c.66-1.24,1-3.73,1-7.45s-.33-6.21-1-7.46a4.29,4.29,0,0,0-7.11,0Q793.71,176,793.72,181.59Z"/><path class="cls-1" d="M820.15,182H816.2V192.2h-1.87V171h4.24q4,0,5.39,1.13c.9.75,1.34,2.17,1.34,4.24a6.2,6.2,0,0,1-.72,3.29,3.66,3.66,0,0,1-2.36,1.52,3.37,3.37,0,0,1,2.24,1.22,5.78,5.78,0,0,1,.64,3.17v1.35c0,.25,0,.65,0,1.21s.05,1,.05,1.31a11.72,11.72,0,0,0,.09,1.35c0,.15.08.63.2,1.44h-2.07q-.12-1.35-.18-2.43c-.05-.72-.07-1.48-.07-2.27s0-1.46,0-1.91,0-.74,0-.88a3.16,3.16,0,0,0-.83-2.09A3,3,0,0,0,820.15,182Zm-3.95-1.51h2.26a5.94,5.94,0,0,0,3.82-.95,4.31,4.31,0,0,0,1.1-3.38,3.55,3.55,0,0,0-.93-2.82q-.93-.78-3.6-.78H816.2Z"/><path class="cls-1" d="M954.15,183H950.2V193.2h-1.87V172h4.24q4,0,5.39,1.13c.9.75,1.34,2.17,1.34,4.24a6.2,6.2,0,0,1-.72,3.29,3.66,3.66,0,0,1-2.36,1.52,3.37,3.37,0,0,1,2.24,1.22,5.78,5.78,0,0,1,.64,3.17v1.35c0,.25,0,.65,0,1.21s.05,1,.05,1.31a11.72,11.72,0,0,0,.09,1.35c0,.15.08.63.2,1.44h-2.07q-.12-1.35-.18-2.43c-.05-.72-.07-1.48-.07-2.27s0-1.46,0-1.91,0-.74,0-.88a3.16,3.16,0,0,0-.83-2.09A3,3,0,0,0,954.15,183Zm-3.95-1.51h2.26a5.94,5.94,0,0,0,3.82-.95,4.31,4.31,0,0,0,1.1-3.38,3.55,3.55,0,0,0-.93-2.82q-.93-.78-3.6-.78H950.2Z"/><path class="cls-1" d="M1037.15,183h-4V193.2h-1.87V172h4.24q4,0,5.39,1.13c.9.75,1.34,2.17,1.34,4.24a6.2,6.2,0,0,1-.72,3.29,3.66,3.66,0,0,1-2.36,1.52,3.37,3.37,0,0,1,2.24,1.22,5.78,5.78,0,0,1,.64,3.17v1.35c0,.25,0,.65,0,1.21s0,1,0,1.31a11.72,11.72,0,0,0,.09,1.35c0,.15.08.63.2,1.44h-2.07q-.12-1.35-.18-2.43c0-.72-.07-1.48-.07-2.27s0-1.46,0-1.91,0-.74-.05-.88a3.16,3.16,0,0,0-.83-2.09A3,3,0,0,0,1037.15,183Zm-4-1.51h2.26a5.94,5.94,0,0,0,3.82-.95,4.31,4.31,0,0,0,1.1-3.38,3.55,3.55,0,0,0-.93-2.82q-.93-.78-3.6-.78h-2.65Z"/><path class="cls-1" d="M497,193.2V172H499V193.2Z"/><path class="cls-1" d="M835,192.2V171H837V192.2Z"/><path class="cls-1" d="M1053,193.2V172H1055V193.2Z"/><path class="cls-1" d="M527,193.2V172H529V193.2Z"/><path class="cls-1" d="M539,172h4.77a12.42,12.42,0,0,1,3.25.34,4.81,4.81,0,0,1,2,1.11,6.14,6.14,0,0,1,1.66,3.11,16.57,16.57,0,0,1,.36,2.54c.09,1,.13,2.23.13,3.58a27.18,27.18,0,0,1-.49,6.06,6,6,0,0,1-1.66,3,5,5,0,0,1-2,1.09,12.48,12.48,0,0,1-3.27.35H539Zm1.92,19.6h2.4a12.26,12.26,0,0,0,2.75-.23,3.42,3.42,0,0,0,1.58-.79,4.52,4.52,0,0,0,1.19-2.41,29,29,0,0,0,.36-5.49,39.17,39.17,0,0,0-.22-4.84,6.72,6.72,0,0,0-.73-2.5,3.33,3.33,0,0,0-1.68-1.36,9.74,9.74,0,0,0-3.25-.41h-2.4Z"/><path class="cls-1" d="M561.35,192.2h-2L566.23,171h2.16l6.7,21.23H573l-1.76-5.66H563Zm2.2-7.31h7.24l-3.56-12Z"/><path class="cls-1" d="M583,171h4.77a12.42,12.42,0,0,1,3.25.34,4.81,4.81,0,0,1,2,1.11,6.14,6.14,0,0,1,1.66,3.11,16.57,16.57,0,0,1,.36,2.54c.09,1,.13,2.23.13,3.58a27.18,27.18,0,0,1-.49,6.06,6,6,0,0,1-1.66,3,5,5,0,0,1-2,1.09,12.48,12.48,0,0,1-3.27.35H583Zm1.92,19.6h2.4a12.26,12.26,0,0,0,2.75-.23,3.42,3.42,0,0,0,1.58-.79,4.52,4.52,0,0,0,1.19-2.41,29,29,0,0,0,.36-5.49,39.17,39.17,0,0,0-.22-4.84,6.72,6.72,0,0,0-.73-2.5,3.33,3.33,0,0,0-1.68-1.36,9.74,9.74,0,0,0-3.25-.41h-2.4Z"/><path class="cls-1" d="M614.59,192.2H605V171h9.58v1.66h-7.66v7.84h7.21V182h-7.21v8.41h7.66Z"/><path class="cls-1" d="M669.88,192.2h-2L674.76,171h2.16l6.7,21.23h-2.09l-1.76-5.66h-8.2Zm2.2-7.31h7.25l-3.57-12Z"/><path class="cls-1" d="M847.88,192.2h-2L852.76,171h2.16l6.7,21.23h-2.09l-1.76-5.66h-8.2Zm2.2-7.31h7.25l-3.57-12Z"/><path class="cls-1" d="M1009.88,193.2h-2l6.84-21.23h2.16l6.7,21.23h-2.09l-1.76-5.66h-8.2Zm2.2-7.31h7.25l-3.57-12Z"/><path class="cls-1" d="M1065.88,193.2h-2l6.84-21.23h2.16l6.7,21.23h-2.09l-1.76-5.66h-8.2Zm2.2-7.31h7.25l-3.57-12Z"/><path class="cls-1" d="M1086.84,193.2V172h2v19.57h7.1v1.66Z"/><path class="cls-1" d="M741.54,192.2H732V171h9.59v1.66h-7.66v7.84h7.21V182h-7.21v8.41h7.66Z"/><path class="cls-1" d="M892.54,193.2H883V172h9.59v1.66h-7.66v7.84h7.21V183h-7.21v8.41h7.66Z"/><path class="cls-1" d="M979.54,193.2H970V172h9.59v1.66h-7.66v7.84h7.21V183h-7.21v8.41h7.66Z"/><path class="cls-1" d="M900.84,193.2V172H904l5.12,15.24.54,1.84.62,2.55.79-3.21c.07-.32.14-.58.2-.77l.13-.41L916.48,172h3.12V193.2h-1.81V175.75l.1-2.56-6.64,20H909.1l-6.63-20.09.1,2.59,0,1.55V193.2Z"/><path class="cls-1" d="M930.88,193.2H929V172h5c2,0,3.44.44,4.32,1.33a6,6,0,0,1,1.33,4.34c0,2.06-.47,3.54-1.39,4.42s-2.51,1.32-4.75,1.32h-2.62Zm0-19.75v8.47h2.76a4.51,4.51,0,0,0,3.28-.94,4.8,4.8,0,0,0,.91-3.34,4.59,4.59,0,0,0-.92-3.25,4.45,4.45,0,0,0-3.27-.94Z"/><path class="cls-1" d="M377.39,187h2v.09a6.86,6.86,0,0,1-1.53,4.76,5.61,5.61,0,0,1-4.37,1.7,6,6,0,0,1-2.82-.63,5.43,5.43,0,0,1-2-1.85,6.46,6.46,0,0,1-.89-2.41,33.71,33.71,0,0,1-.27-5.2v-.82c0-2.17,0-3.74.14-4.72a12.3,12.3,0,0,1,.48-2.56,4.86,4.86,0,0,1,2-2.72,6.11,6.11,0,0,1,3.53-1,5.63,5.63,0,0,1,4.27,1.41,4.38,4.38,0,0,1,1,1.81,9.27,9.27,0,0,1,.34,2.71v.12h-2a5.59,5.59,0,0,0-.84-3.41,3.25,3.25,0,0,0-2.72-1.08,3.35,3.35,0,0,0-3.24,1.79c-.63,1.19-.94,3.38-.94,6.55,0,.61,0,1.39,0,2.35s.05,1.62.05,2a11.5,11.5,0,0,0,.07,1.44c.05.39.12.85.23,1.38a4,4,0,0,0,1.25,2.35,3.49,3.49,0,0,0,2.38.83,3.53,3.53,0,0,0,2.8-1.17,4.64,4.64,0,0,0,1-3.22Z"/><path class="cls-1" d="M389.22,182.59a34.41,34.41,0,0,1,.38-6.2,6.73,6.73,0,0,1,1.3-2.88,5,5,0,0,1,2-1.39,8,8,0,0,1,2.84-.47,8.17,8.17,0,0,1,2.82.46,5,5,0,0,1,2,1.4,6.56,6.56,0,0,1,1.31,2.94,33.74,33.74,0,0,1,.39,6.14,34.8,34.8,0,0,1-.38,6.13,6.25,6.25,0,0,1-1.32,2.95,5.41,5.41,0,0,1-2.05,1.4,8.11,8.11,0,0,1-2.81.49,7.86,7.86,0,0,1-2.79-.49,5.13,5.13,0,0,1-2.07-1.4,6.54,6.54,0,0,1-1.3-3A34.83,34.83,0,0,1,389.22,182.59Zm2,0q0,5.53,1,7.42a4.31,4.31,0,0,0,7.11,0c.66-1.24,1-3.73,1-7.45s-.33-6.21-1-7.46a4.29,4.29,0,0,0-7.11,0Q391.19,177,391.2,182.59Z"/><path class="cls-1" d="M412.81,193.2V172h3l9,20c-.11-.7-.2-1.47-.28-2.32,0-.26,0-.65,0-1.16s0-.92,0-1.18V172h1.86V193.2h-2.88l-9-19.87c0,.3.08.65.13,1s.06.71.06,1,0,.7.05,1.24,0,.88,0,1V193.2Z"/><path class="cls-1" d="M439.53,193.2V173.63h-5.19V172h12.24v1.66h-5.21V193.2Z"/><path class="cls-1" d="M455.92,193.2h-2L460.81,172H463l6.7,21.23h-2.09l-1.76-5.66h-8.21Zm2.21-7.31h7.24l-3.56-12Z"/><path class="cls-1" d="M476.92,193.2V172h4.24q4.05,0,5.39,1.13c.9.75,1.34,2.17,1.34,4.24a6.2,6.2,0,0,1-.72,3.29,3.66,3.66,0,0,1-2.36,1.52,4,4,0,0,1,2.68,1.63,6.23,6.23,0,0,1,.85,3.52,8.77,8.77,0,0,1-.43,3,4.1,4.1,0,0,1-1.41,1.91,4.69,4.69,0,0,1-1.78.74,18.58,18.58,0,0,1-3.56.24Zm1.87-11.73h2.26a5.88,5.88,0,0,0,3.8-.94,4.08,4.08,0,0,0,1.09-3.22,3.94,3.94,0,0,0-.87-3c-.58-.52-1.88-.78-3.91-.78h-2.37Zm0,10.16h2.37c2.15,0,3.55-.3,4.18-.91s1-1.76,1-3.47a4.22,4.22,0,0,0-1.1-3.32c-.73-.63-2.11-1-4.14-1h-2.26Z"/><path class="cls-1" d="M645.53,192.25H636V171h9.58v1.66h-7.66v7.84h7.21v1.56h-7.21v8.4h7.66Z"/><path class="cls-1" d="M322.81,122.37l21.84-4.12Q347.4,128,358.79,128q8.88,0,8.87-5a4.63,4.63,0,0,0-2.05-4q-2-1.45-7.32-2.56-20.16-4.07-25.88-10.6a22.6,22.6,0,0,1-5.73-15.38,24.58,24.58,0,0,1,8.23-18.92Q343.13,64,358.57,64,382,64,389.5,83.73L370,89.91q-3-8.07-12.29-8.07-7.69,0-7.69,5a4,4,0,0,0,1.74,3.47c1.16.83,3.4,1.61,6.73,2.36q13.75,3,19.54,5.4a21.19,21.19,0,0,1,9.66,8,23.25,23.25,0,0,1,3.87,13.41,24.2,24.2,0,0,1-9.43,19.78q-9.43,7.58-24.76,7.57Q329.37,146.88,322.81,122.37Z"/><path class="cls-1" d="M439.58,124.14l20.88,1.47A26,26,0,0,1,451,140.67q-7.61,6.21-20.57,6.21-14.43,0-23-8.75t-8.59-21.71q0-13.42,8.48-22.68t22.62-9.25q13.69,0,22.15,8.72T460.52,117q0,1.24-.06,3.42H422.23q.11,5.66,1.91,8.39T431,131.5Q438.28,131.5,439.58,124.14Zm-1.52-15.55q-.06-6.07-2.32-8.16a8,8,0,0,0-5.62-2.09q-8,0-7.95,10.25Z"/><path class="cls-1" d="M525,145.64H504v-7.95q-4.66,9.19-15.38,9.19a19.21,19.21,0,0,1-16-8.1q-6.15-8.1-6.15-23.54,0-14.43,6.18-22.91A19.24,19.24,0,0,1,489,83.84a17.23,17.23,0,0,1,14,6.78V65.23H525ZM503,107.11Q503,99,496.62,99c-3,0-4.89,1.71-5.81,5.13a49,49,0,0,0-1.38,12.55q0,14.55,7.08,14.55a5.72,5.72,0,0,0,4.57-2.3c1.26-1.53,1.88-3.87,1.88-7Z"/><path class="cls-1" d="M559.21,62.69V81.31h-22.4V62.69Zm0,23v59.91h-22.4V85.73Z"/><path class="cls-1" d="M657.5,145.64H635.77V108.17c0-2.51-.34-4.27-1-5.27s-1.91-1.5-3.67-1.5q-6.28,0-6.29,9.6v34.64h-21.5V108.17q0-7.19-5.28-7.18-5.44,0-5.44,7.18v37.47H571V85.73h20.1V93.8q5.38-9.31,15.66-9.31,11.06,0,16.06,9.31,5.55-9.31,17.06-9.31a19,19,0,0,1,9.69,2.42,14.81,14.81,0,0,1,6.06,6.21c1.25,2.54,1.88,6.45,1.88,11.76Z"/><path class="cls-1" d="M707.08,124.14,728,125.61a26,26,0,0,1-9.46,15.06q-7.61,6.21-20.57,6.21-14.43,0-23-8.75t-8.59-21.71q0-13.42,8.48-22.68t22.62-9.25q13.7,0,22.15,8.72T728,117q0,1.24-.06,3.42H689.73q.1,5.66,1.91,8.39t6.85,2.74Q705.78,131.5,707.08,124.14Zm-1.52-15.55q-.06-6.07-2.32-8.16a8,8,0,0,0-5.62-2.09q-7.95,0-8,10.25Z"/><path class="cls-1" d="M792.52,145.64h-22.4v-37.7c0-3.1-.46-5.09-1.37-6a4.87,4.87,0,0,0-3.46-1.3q-6.12,0-6.11,9v36h-22.4V85.73h20.77v8.48q4.61-9.72,16.45-9.72A20.56,20.56,0,0,1,784.52,87a14.71,14.71,0,0,1,6.15,6.48q1.85,4,1.85,13.81Z"/><path class="cls-1" d="M839.56,85.73V101h-11.4v22.09c0,3,.55,4.82,1.63,5.39a7.17,7.17,0,0,0,3.37.85,25,25,0,0,0,6.4-1v16.73a64.45,64.45,0,0,1-13,1.36q-10.34,0-15.19-4.66t-4.85-14.84l0-7V101H798V85.73h8.53l.34-19.5,21.27-.35V85.73Z"/><path class="cls-1" d="M905.46,145.64H884.13a41.15,41.15,0,0,1-.79-8.36q-6.06,9.6-18.36,9.6-10.1,0-15.13-5.42a17.75,17.75,0,0,1-5-12.43q0-9.48,8.22-15.35t29.17-7v-1.35q0-3.95-1.72-5.25a8.24,8.24,0,0,0-5-1.29q-7.74,0-8.65,6.54l-20.43-2q4.38-18.8,29.81-18.8a52,52,0,0,1,12.69,1.45,20.9,20.9,0,0,1,9.15,4.5,15.82,15.82,0,0,1,4.52,6.48q1.14,3.42,1.15,13.14V134A34.51,34.51,0,0,0,905.46,145.64Zm-23.24-28q-14.33,1.59-14.32,9.6c0,3.62,1.89,5.42,5.67,5.42a8.86,8.86,0,0,0,6.12-2.24q2.52-2.24,2.53-9.89Z"/><path class="cls-1" d="M967.27,65.24v50.67q0,11.66-2,17.76a17.51,17.51,0,0,1-7.77,9.66q-5.79,3.57-15.66,3.57a58.62,58.62,0,0,1-15.72-2v-19.2a32.36,32.36,0,0,0,9.2,1.47q5.05,0,7.19-2.45c1.42-1.62,2.13-4.58,2.13-8.86V65.24Z"/><path class="cls-1" d="M1000.89,116.44v29.22H977V65.24h32.73q12.24,0,18.61,3a22.93,22.93,0,0,1,10.1,9,25.45,25.45,0,0,1,3.74,13.61q0,11.49-7.64,18.56t-20.38,7.07Zm-.34-17.26h7.86q10.38,0,10.39-8,0-7.53-9.6-7.54h-8.65Z"/><path class="cls-1" d="M1132.57,65.24v80.42h-21.83V88.16l-14.18,57.5h-14.93l-14.74-57.5v57.5h-17.63V65.24H1080L1091.12,108l10.6-42.71Z"/><path class="cls-2" d="M276.33,131.22v61.93H212.78a64.63,64.63,0,0,1,63.55-61.93m0-37.29v12.31a89.63,89.63,0,0,0-88.53,86.91H176A101.68,101.68,0,0,1,276.33,93.93Zm-73-31.34h27.6a141,141,0,0,0-94.19,130.56H126A152.13,152.13,0,0,1,203.3,62.59Zm-138.2,0H114A210,210,0,0,0,67.22,193.15H65.1Z"/></svg>