<svg id="Capa_1" data-name="Capa 1" xmlns="http://www.w3.org/2000/svg" xmlns:xlink="http://www.w3.org/1999/xlink" viewBox="0 0 512 512"><defs><style>.cls-1{fill:url(#linear-gradient);}.cls-2{fill:url(#linear-gradient-2);}</style><linearGradient id="linear-gradient" x1="128.97" y1="138.87" x2="383.03" y2="138.87" gradientUnits="userSpaceOnUse"><stop offset="0" stop-color="#992836"/><stop offset="1" stop-color="#4d141b"/></linearGradient><linearGradient id="linear-gradient-2" x1="86.92" y1="396.1" x2="425.08" y2="396.1" xlink:href="#linear-gradient"/></defs><path class="cls-1" d="M256,265.9a127,127,0,1,0-127-127A127.17,127.17,0,0,0,256,265.9Zm0-239.07a112,112,0,1,1-112,112A112.16,112.16,0,0,1,256,26.83Z"/><path class="cls-2" d="M99.64,510.94H412.36a12.74,12.74,0,0,0,12.72-12.73V450.34c0-93.23-75.85-169.08-169.08-169.08A168.2,168.2,0,0,0,122.91,346a7.5,7.5,0,0,0,11.8,9.26,153.29,153.29,0,0,1,121.29-59c85,0,154.08,69.12,154.08,154.08v45.6H101.92v-45.6a153.94,153.94,0,0,1,7.29-47h0c1.26-3.92,2.69-7.84,4.26-11.65A7.5,7.5,0,1,0,99.6,386c-1.72,4.18-3.29,8.48-4.67,12.79h0a168.73,168.73,0,0,0-8,51.55v47.87A12.74,12.74,0,0,0,99.64,510.94Z"/></svg>