<svg id="Capa_1" data-name="Capa 1" xmlns="http://www.w3.org/2000/svg" xmlns:xlink="http://www.w3.org/1999/xlink" viewBox="0 0 330.64 515"><defs><style>.cls-1{fill:url(#linear-gradient);}.cls-2{fill:url(#linear-gradient-2);}</style><linearGradient id="linear-gradient" x1="42.39" y1="117.61" x2="288.25" y2="148.07" gradientUnits="userSpaceOnUse"><stop offset="0" stop-color="#992836"/><stop offset="1" stop-color="#4d141b"/></linearGradient><linearGradient id="linear-gradient-2" x1="-8.4" y1="377.39" x2="341.6" y2="420.75" xlink:href="#linear-gradient"/></defs><path class="cls-1" d="M165.32,256.7A123.86,123.86,0,1,1,289.18,132.84,124,124,0,0,1,165.32,256.7Zm0-235.72A111.86,111.86,0,1,0,277.18,132.84,112,112,0,0,0,165.32,21Z"/><path class="cls-2" d="M330.64,509.26H0V311.19a25.63,25.63,0,0,1,25.61-25.6H305a25.63,25.63,0,0,1,25.61,25.6ZM12,497.26H318.64V311.19A13.62,13.62,0,0,0,305,297.59H25.61A13.62,13.62,0,0,0,12,311.19Z"/></svg>