<svg xmlns="http://www.w3.org/2000/svg" width="128" height="128" viewBox="0 0 128 128"><defs><style>.a{fill:#bebebe;}.b{fill:#333;}.c{fill:#fff;}</style></defs><rect class="a" width="128" height="128"/><path class="b" d="M109.4,49.154a5.939,5.939,0,0,0-1.472-4.493s-.1-.1-7.526-6.234A8.294,8.294,0,0,0,94.948,36.9h-7.27V65.192l7.744,6.4h6.746c2.7,0,4.6-.538,5.786-1.754a5.99,5.99,0,0,0,1.446-4.48V59.5a4.454,4.454,0,0,0-1.28-2.957A4.378,4.378,0,0,0,109.4,53.6Zm-37.491,22.4V69.2l1.28,1.1a8.269,8.269,0,0,0,5.491,1.459c2.8,0,4.979-.627,6.131-1.766a6.054,6.054,0,0,0,1.472-4.634V48.629a6.016,6.016,0,0,0-1.472-4.57l-.256-.256-7.232-5.978a8.166,8.166,0,0,0-5.414-1.51c-2.662,0-4.557.589-5.773,1.792a4.135,4.135,0,0,0-.947,1.37l-2.1-1.741h0A5.965,5.965,0,0,0,59.351,36.6a4.518,4.518,0,0,0-1.523.282H50.276v2.3L48.625,37.9a8.435,8.435,0,0,0-5.44-1.472c-2.726,0-4.557.563-5.773,1.754a4.122,4.122,0,0,0-.9,1.28L33.508,36.9h-7.04V39.08l-.858-.7A8.512,8.512,0,0,0,20.132,36.9H12.9V65.192l7.757,6.4H27.7V66.2l6.528,5.338Z" transform="translate(3.612 10.161)"/><path class="c" d="M20.763,41.812a1,1,0,0,0-1.037-.973h-1V51.95h1a1,1,0,0,0,1.037-.973ZM19.726,55.137h-.986V63.9H13.8V37.78h5.939c5.85,0,5.926,2.97,5.926,5.12v7.066c0,2.189-.09,5.12-5.939,5.12" transform="translate(3.864 10.578)"/><path class="c" d="M24.4,63.9V37.78h4.941V59.873H32.6V63.9Z" transform="translate(6.832 10.578)"/><path class="c" d="M38.725,41.371a1,1,0,0,0-1.984,0v7.3h1.984Zm0,22.566v-12.1H36.741v12.1H31.8V42.51c0-2.189.128-5.12,5.926-5.12s5.9,2.982,5.9,5.12V63.937h-4.9" transform="translate(8.904 10.469)"/><path class="c" d="M49.912,63.9V41.61a1,1,0,1,0-1.984,0V63.9H43V37.809h4.941v1.28A3.149,3.149,0,0,1,50.68,37.54c2.752,0,4.186,1.408,4.186,4.147V63.9Z" transform="translate(12.04 10.511)"/><path class="c" d="M61.115,41.379a1,1,0,0,0-2,0V60.426a1,1,0,1,0,2,0Zm-1,23.04c-5.811,0-5.926-2.982-5.926-5.12V42.48c0-2.189.115-5.12,5.926-5.12S66,40.342,66,42.48V59.286c0,2.189-.115,5.12-5.888,5.12" transform="translate(15.173 10.461)"/><path class="c" d="M79.183,52.666a1.011,1.011,0,0,0-1.037-.986h-1v9.165h1a1.037,1.037,0,0,0,1.037-1.011Zm0-10.854a1,1,0,0,0-1.037-.973h-1V48.6h1a1.011,1.011,0,0,0,1.037-.986v-5.8m4.89,16.922c0,2.2-.077,5.12-5.926,5.12H72.22V37.78h5.926c5.85,0,5.926,2.97,5.926,5.12v4.237a3.2,3.2,0,0,1-2.227,2.931,3.29,3.29,0,0,1,2.227,2.982v5.632" transform="translate(20.222 10.578)"/></svg>