<svg xmlns="http://www.w3.org/2000/svg" width="164.449" height="58.626" viewBox="0 0 164.449 58.626"><defs><style>.a{fill:#919191;}.b{fill:#5c5c5c;}.c{fill:#949494;}</style></defs><g transform="translate(-29.7 -33.1)"><path class="a" d="M308.317,116.61a2.181,2.181,0,0,1-2.354-2.48l-5.379.126c-.252,5,3.614,7.144,7.775,7.144,4.329,0,7.607-2.4,7.607-6.262,0-3.95-2.227-5.337-5.463-6.472-3.4-1.177-3.951-1.723-3.951-2.774,0-.841.756-1.3,1.681-1.3,1.219,0,1.933.756,1.933,2.48l5.379-.126c.21-5.043-3.278-7.144-7.271-7.144s-7.565,2.143-7.565,6.514c0,3.614,2.438,5.379,5.463,6.346,3.194,1.051,3.951,1.723,3.951,2.606S309.493,116.61,308.317,116.61Zm10.591,4.371h12.356v-4.833h-6.556v-3.362h5.926v-4.665h-5.926v-3.068h6.556V100.22H318.907Zm22.736-7.775,3.236,7.775h6.22s-2.143-5.211-3.32-7.607a3.612,3.612,0,0,0-1.471-1.765,5.808,5.808,0,0,0,3.824-5.632c0-4.833-4.119-5.8-9.33-5.8-3.11,0-5.884.042-5.884.042v20.719h5.842v-7.775h.883Zm2.69-6.262c0,1.933-1.6,2.227-2.9,2.227a2.143,2.143,0,0,1-.63-.042V104.8a2.69,2.69,0,0,1,.8-.042C343.493,104.759,344.333,105.516,344.333,106.944Z" transform="translate(-157.035 -38.669)"/><path class="b" d="M35.6,120.981v-6.724s.5.042,1.6.042c4.875,0,8.069-2.816,8.069-6.934,0-6.514-5.505-7.1-10.507-7.1-2.438,0-4.959.042-4.959.042v20.719h5.8Zm0-15.886a7.146,7.146,0,0,1,.8-.042c2.143,0,3.026.841,3.026,2.311,0,1.807-1.3,2.438-2.816,2.438-.63,0-1.009-.042-1.009-.042V105.1Zm18.828,8.111,3.236,7.775h6.22s-2.143-5.211-3.32-7.607a3.612,3.612,0,0,0-1.471-1.765,5.808,5.808,0,0,0,3.824-5.632c0-4.833-4.119-5.8-9.33-5.8-3.11,0-5.884.042-5.884.042v20.719h5.842v-7.775h.883Zm2.69-6.262c0,1.933-1.6,2.227-2.9,2.227a2.144,2.144,0,0,1-.63-.042V104.8a2.69,2.69,0,0,1,.8-.042C56.319,104.759,57.117,105.516,57.117,106.944Zm8.826,14.037H78.3v-4.833H71.742v-3.362h5.926v-4.665H71.742v-3.068H78.3V100.22H65.943v20.761Zm30.469-13.995c.126-4.917-3.278-7.144-7.313-7.144-3.95,0-7.649,2.227-7.817,6.766-.084,2.1-.042,4.749,0,7.9.084,4.329,3.194,6.934,7.649,6.934,4.749,0,7.607-2.9,7.607-7.144l-5.379-.126c0,1.681-1.009,2.48-2.059,2.48-1.177,0-1.891-.8-1.975-2.4-.042-2.227-.084-5.379,0-7.355.042-1.471.883-2.227,1.975-2.227s1.891.8,1.891,2.48Zm8.447-6.724H99.017v20.719h5.842ZM115.87,116.61a2.181,2.181,0,0,1-2.353-2.48l-5.379.126c-.252,5,3.614,7.144,7.775,7.144,4.329,0,7.607-2.4,7.607-6.262,0-3.95-2.227-5.337-5.463-6.472-3.4-1.177-3.95-1.723-3.95-2.774,0-.841.756-1.3,1.681-1.3,1.219,0,1.933.756,1.933,2.48l5.379-.126c.21-5.043-3.278-7.144-7.271-7.144s-7.565,2.143-7.565,6.514c0,3.614,2.438,5.379,5.463,6.346,3.194,1.051,3.95,1.723,3.95,2.606S117,116.61,115.87,116.61Zm20.551,4.371h5.968l-4.749-20.719h-8.573v1.219l-4.665,19.5h5.674l.714-3.656h4.959Zm-3.488-14.457.42-2.69.42,2.69,1.093,6.136h-3.194Z" transform="translate(-0.058 -38.669)"/><path class="c" d="M35.542,33.562H29.7V54.281h5.842Zm14.709,0v11.6l-.714-1.975-5.127-9.624H39.366V54.281h5.547V43.354l.841,2.4,4.917,8.531H55.8V33.562ZM66.767,49.91a2.181,2.181,0,0,1-2.353-2.48l-5.379.126c-.252,5,3.614,7.144,7.775,7.144,4.329,0,7.607-2.4,7.607-6.262,0-3.95-2.227-5.337-5.463-6.472-3.4-1.177-3.95-1.723-3.95-2.774,0-.841.756-1.3,1.681-1.3,1.219,0,1.933.756,1.933,2.48L74,40.244c.21-5.043-3.278-7.144-7.271-7.144s-7.565,2.143-7.565,6.514c0,3.614,2.438,5.379,5.463,6.346,3.194,1.051,3.95,1.723,3.95,2.648s-.672,1.3-1.807,1.3ZM79.8,54.281h5.842V38.4H90.26V33.562H75.13V38.4h4.623V54.281ZM98.287,33.562H92.445V54.281h5.842V33.562Zm6.85,20.719h5.842V38.4H115.6V33.562H100.472V38.4H105.1V54.281ZM127.2,33.562c.042,1.933.042,12.272,0,13.995-.042,1.471-.756,2.353-1.975,2.353a2.076,2.076,0,0,1-2.059-2.353c-.042-1.849-.042-12.188,0-13.995h-5.589s-.084,7.9,0,14.373c.042,4.5,3.572,6.766,7.523,6.766,4.035,0,7.607-2.353,7.691-6.724.084-7.06,0-14.457,0-14.457H127.2Zm12.146,20.719h5.842V38.4h4.623V33.562H134.681V38.4H139.3V54.281Zm12.188-14.037c-.084,2.269-.084,5.211,0,7.313.21,4.749,3.572,7.144,7.817,7.144s7.733-2.4,7.859-7.1c.042-2.227.042-5.463,0-7.4-.126-4.665-3.572-7.1-7.817-7.1s-7.691,2.48-7.859,7.144Zm5.842,7.481c-.126-1.849-.126-5.968,0-7.733a1.9,1.9,0,0,1,2.017-2.059,1.855,1.855,0,0,1,1.975,2.059c.084,1.933.084,6.052,0,7.733-.084,1.555-.883,2.185-2.017,2.185S157.46,49.28,157.376,47.725Z"/><path class="a" d="M299.5,161.1v4.833h51.062V161.1Z" transform="translate(-156.413 -74.206)"/></g></svg>