<svg id="Capa_1" data-name="Capa 1" xmlns="http://www.w3.org/2000/svg" xmlns:xlink="http://www.w3.org/1999/xlink" viewBox="0 0 512 512"><defs><style>.cls-1{fill:url(#linear-gradient);}.cls-2{fill:url(#linear-gradient-2);}.cls-3{fill:url(#linear-gradient-3);}.cls-4{fill:url(#linear-gradient-4);}</style><linearGradient id="linear-gradient" x1="360.05" y1="172.57" x2="488.93" y2="172.57" gradientUnits="userSpaceOnUse"><stop offset="0" stop-color="#992836"/><stop offset="1" stop-color="#4d141b"/></linearGradient><linearGradient id="linear-gradient-2" x1="4.86" y1="324.64" x2="508.95" y2="324.64" xlink:href="#linear-gradient"/><linearGradient id="linear-gradient-3" x1="24.89" y1="175.58" x2="153.77" y2="175.58" xlink:href="#linear-gradient"/><linearGradient id="linear-gradient-4" x1="183.4" y1="186.29" x2="331.59" y2="186.29" xlink:href="#linear-gradient"/></defs><path class="cls-1" d="M424.49,237a64.44,64.44,0,1,0-64.44-64.44A64.52,64.52,0,0,0,424.49,237Zm0-113.88a49.44,49.44,0,1,1-49.44,49.44A49.5,49.5,0,0,1,424.49,123.13Z"/><path class="cls-2" d="M430.21,245.42H418.76A78.87,78.87,0,0,0,341,311.7a90.82,90.82,0,0,0-76.82-42.43H250.81a90.86,90.86,0,0,0-78.16,44.6,78.86,78.86,0,0,0-77.6-65.45H83.61a77.9,77.9,0,0,0-48.73,16.89,7.5,7.5,0,1,0,9.29,11.77,63.12,63.12,0,0,1,39.44-13.66H95.05a63.82,63.82,0,0,1,63.75,63.75v23.52H19.86V327.17a63.78,63.78,0,0,1,2.57-18A7.5,7.5,0,1,0,8,304.94a78.91,78.91,0,0,0-3.18,22.23v24.55a14,14,0,0,0,14,14H160V388.8A15.08,15.08,0,0,0,175,403.87H340A15.09,15.09,0,0,0,355,388.8V362.68H495a14,14,0,0,0,14-14V324.17A78.83,78.83,0,0,0,430.21,245.42ZM340,388.87H261.07L175,388.8V360.09a75.9,75.9,0,0,1,75.83-75.82h13.38A75.91,75.91,0,0,1,340,360.09Zm154-41.19H355V324.17a63.82,63.82,0,0,1,63.74-63.75h11.45A63.82,63.82,0,0,1,494,324.17Z"/><path class="cls-3" d="M89.33,240a64.44,64.44,0,1,0-64.44-64.44A64.52,64.52,0,0,0,89.33,240Zm0-113.88a49.44,49.44,0,1,1-49.44,49.44A49.5,49.5,0,0,1,89.33,126.14Z"/><path class="cls-4" d="M257.5,260.38a74.1,74.1,0,1,0-74.1-74.09A74.18,74.18,0,0,0,257.5,260.38Zm0-133.19a59.1,59.1,0,1,1-59.1,59.1A59.16,59.16,0,0,1,257.5,127.19Z"/></svg>