<svg id="Capa_1" data-name="Capa 1" xmlns="http://www.w3.org/2000/svg" xmlns:xlink="http://www.w3.org/1999/xlink" viewBox="0 0 387.56 258.64"><defs><style>.cls-1{fill:url(#linear-gradient);}.cls-2{fill:url(#linear-gradient-2);}.cls-3{fill:url(#linear-gradient-3);}.cls-4{fill:url(#linear-gradient-4);}</style><linearGradient id="linear-gradient" x1="139.23" y1="86.38" x2="246.78" y2="99.7" gradientUnits="userSpaceOnUse"><stop offset="0" stop-color="#992836"/><stop offset="1" stop-color="#4d141b"/></linearGradient><linearGradient id="linear-gradient-2" x1="262.66" y1="55.56" x2="370.21" y2="68.88" xlink:href="#linear-gradient"/><linearGradient id="linear-gradient-3" x1="-1.29" y1="163.73" x2="389.5" y2="212.15" xlink:href="#linear-gradient"/><linearGradient id="linear-gradient-4" x1="17.35" y1="55.56" x2="124.9" y2="68.88" xlink:href="#linear-gradient"/></defs><path class="cls-1" d="M193,147.22A54.18,54.18,0,1,1,247.19,93,54.24,54.24,0,0,1,193,147.22Zm0-96.36A42.18,42.18,0,1,0,235.19,93,42.23,42.23,0,0,0,193,50.86Z"/><path class="cls-2" d="M316.43,116.4a54.18,54.18,0,1,1,54.18-54.18A54.24,54.24,0,0,1,316.43,116.4Zm0-96.36a42.18,42.18,0,1,0,42.18,42.18A42.23,42.23,0,0,0,316.43,20Z"/><path class="cls-3" d="M362,129.29h-91A25.64,25.64,0,0,0,245.3,154.9V161a25.26,25.26,0,0,0-6.77-.92H147.48a24.92,24.92,0,0,0-5.22.54V154.9a25.64,25.64,0,0,0-25.61-25.61h-91A25.64,25.64,0,0,0,0,154.9v72.92H121.87v30.82H264.13V227.82H387.56V154.9A25.64,25.64,0,0,0,362,129.29ZM130.26,166.78a25.55,25.55,0,0,0-8.39,18.94v30.1H12V154.9a13.62,13.62,0,0,1,13.61-13.61h91a13.63,13.63,0,0,1,13.61,13.61Zm121.87,79.86H133.87V185.72a13.63,13.63,0,0,1,13.61-13.61h91.05a13.62,13.62,0,0,1,13.6,13.61Zm123.43-30.82H264.13v-30.1a25.51,25.51,0,0,0-6.83-17.4V154.9a13.63,13.63,0,0,1,13.61-13.61h91a13.62,13.62,0,0,1,13.61,13.61Z"/><path class="cls-4" d="M71.13,116.4a54.18,54.18,0,1,1,54.18-54.18A54.23,54.23,0,0,1,71.13,116.4Zm0-96.36a42.18,42.18,0,1,0,42.18,42.18A42.23,42.23,0,0,0,71.13,20Z"/></svg>