<svg id="RH" xmlns="http://www.w3.org/2000/svg" xmlns:xlink="http://www.w3.org/1999/xlink" width="105.149" height="67.669" viewBox="0 0 105.149 67.669">
  <defs>
    <linearGradient id="linear-gradient" y1="0.5" x2="1" y2="0.5" gradientUnits="objectBoundingBox">
      <stop offset="0" stop-color="#992836"/>
      <stop offset="1" stop-color="#4d141b"/>
    </linearGradient>
    <linearGradient id="linear-gradient-2" x1="0" y1="0.5" x2="1" y2="0.5" xlink:href="#linear-gradient"/>
    <linearGradient id="linear-gradient-3" x1="0" y1="0.5" x2="1" y2="0.5" xlink:href="#linear-gradient"/>
  </defs>
  <path id="Caminho_369" data-name="Caminho 369" d="M234.229,147.279A14.369,14.369,0,1,1,248.6,132.909,14.369,14.369,0,0,1,234.229,147.279Zm0-26.37a12,12,0,1,0,12,12A12,12,0,0,0,234.229,120.909Z" transform="translate(-181.867 -110.102)" fill="url(#linear-gradient)"/>
  <path id="Caminho_370" data-name="Caminho 370" d="M405.293,104.543a14.371,14.371,0,1,1,14.369-14.37A14.372,14.372,0,0,1,405.293,104.543Zm0-26.372a12,12,0,1,0,12,12A12,12,0,0,0,405.293,78.171Z" transform="translate(-319.154 -75.8)" fill="url(#linear-gradient-2)"/>
  <path id="Caminho_371" data-name="Caminho 371" d="M126.028,243.88H101.111a6.559,6.559,0,0,0-6.551,6.551v1.951a4.859,4.859,0,0,0-.817-.067h-27.9a3.3,3.3,0,0,0-.395.016v-1.9A6.559,6.559,0,0,0,58.9,243.88H33.981a6.559,6.559,0,0,0-6.551,6.551v19.5H60.783v8.435H98.8V269.93h33.779v-19.5A6.559,6.559,0,0,0,126.028,243.88Zm-62.947,9.258a5.058,5.058,0,0,0-2.294,4.233v10.19H29.8v-17.13a4.186,4.186,0,0,1,4.182-4.182H58.9a4.186,4.186,0,0,1,4.186,4.182ZM96.43,276H63.152V257.371a2.689,2.689,0,0,1,2.693-2.687h27.9a2.689,2.689,0,0,1,2.687,2.687Zm33.779-8.435H98.8v-10.19a5.039,5.039,0,0,0-1.87-3.921v-3.019a4.186,4.186,0,0,1,4.182-4.182h24.917a4.186,4.186,0,0,1,4.182,4.182Z" transform="translate(-27.43 -210.695)" fill="url(#linear-gradient-3)"/>
  <path id="Caminho_372" data-name="Caminho 372" d="M65.281,104.543A14.371,14.371,0,1,1,79.653,90.172a14.371,14.371,0,0,1-14.371,14.371Zm0-26.372a12,12,0,1,0,12,12,12,12,0,0,0-12-12Z" transform="translate(-46.274 -75.8)" fill="url(#linear-gradient-2)"/>
</svg>
