<svg xmlns="http://www.w3.org/2000/svg" width="26.376" height="26.376" viewBox="0 0 26.376 26.376"><g transform="translate(0 -0.001)"><path d="M24.919,0H1.456A1.456,1.456,0,0,0,0,1.457V24.92a1.456,1.456,0,0,0,1.456,1.457H14.088V16.163H10.651V12.181h3.437V9.246c0-3.406,2.08-5.262,5.119-5.262a28.508,28.508,0,0,1,3.071.156V7.7H20.17c-1.653,0-1.971.786-1.971,1.938V12.18h3.943l-.516,3.981H18.2V26.376h6.721a1.457,1.457,0,0,0,1.457-1.455V1.456A1.456,1.456,0,0,0,24.919,0Z" transform="translate(0)"/></g></svg>