<svg id="Grupo_883" data-name="Grupo 883" xmlns="http://www.w3.org/2000/svg" width="400" height="400" viewBox="0 0 400 400">
  <path id="Caminho_282" data-name="Caminho 282" d="M0,28.653C0,12.837,13.241,0,29.563,0H370.438C386.766,0,400,12.837,400,28.653v342.7C400,387.172,386.766,400,370.438,400H29.563C13.242,400,0,387.173,0,371.356V28.648Z"/>
  <path id="Caminho_283" data-name="Caminho 283" d="M100.614,310.319V130.237H40.758V310.319h59.862ZM70.7,105.655c20.869,0,33.861-13.828,33.861-31.109C104.169,56.87,91.568,43.428,71.1,43.428S37.23,56.87,37.23,74.544c0,17.281,12.988,31.109,33.077,31.109h.388Zm63.047,204.664H193.6V209.764c0-5.375.391-10.764,1.972-14.6,4.325-10.758,14.173-21.894,30.712-21.894,21.653,0,30.32,16.512,30.32,40.723v96.328h59.85V207.066c0-55.311-29.525-81.05-68.9-81.05-32.286,0-46.466,18.045-54.344,30.336h.4V130.244H133.749c.781,16.894,0,180.081,0,180.081Z" transform="translate(20.942 24.428)" fill="#fff"/>
</svg>
