<svg xmlns="http://www.w3.org/2000/svg" xmlns:xlink="http://www.w3.org/1999/xlink" width="118.897" height="74.656" viewBox="0 0 118.897 74.656"><defs><style>.a{fill:url(#a);}.b{fill:url(#b);}.c{fill:url(#c);}.d{fill:url(#d);}.e{fill:url(#e);}.f{fill:url(#f);}.g{fill:url(#i);}.h{fill:url(#j);}.i{fill:url(#k);}.j{fill:url(#m);}</style><linearGradient id="a" y1="0.499" x2="1" y2="0.499" gradientUnits="objectBoundingBox"><stop offset="0" stop-color="#992836"/><stop offset="1" stop-color="#4d141b"/></linearGradient><linearGradient id="b" x1="0.002" y1="0.5" x2="1" y2="0.5" xlink:href="#a"/><linearGradient id="c" x1="-0.154" y1="0.467" x2="1" y2="0.467" xlink:href="#a"/><linearGradient id="d" x1="0.001" y1="0.501" x2="1" y2="0.501" xlink:href="#a"/><linearGradient id="e" x1="-0.001" y1="0.5" x2="0.999" y2="0.5" xlink:href="#a"/><linearGradient id="f" x1="0" y1="0.5" x2="1" y2="0.5" xlink:href="#a"/><linearGradient id="i" x1="0" y1="0.5" x2="1" y2="0.5" xlink:href="#a"/><linearGradient id="j" x1="0" y1="0.543" x2="1" y2="0.543" xlink:href="#a"/><linearGradient id="k" x1="0.002" y1="0.5" x2="1.002" y2="0.5" xlink:href="#a"/><linearGradient id="m" x1="0" y1="0.497" x2="1" y2="0.497" xlink:href="#a"/></defs><path class="a" d="M354.506,236.232l-.515-.523a1.235,1.235,0,0,0-1.746-.014,1.258,1.258,0,0,0-.346.642,1.194,1.194,0,0,1,.366-.681,1.235,1.235,0,0,1,1.746.047C354.185,235.869,354.341,236.053,354.506,236.232Z" transform="translate(-281.799 -188.95)"/><path class="b" d="M360.57,252.846a41.7,41.7,0,0,1-3.9-3.9l-.823-.887Z" transform="translate(-284.936 -199.07)"/><path class="c" d="M269.567,349.57l-.027.031h0A.117.117,0,0,0,269.567,349.57Z" transform="translate(-216.394 -279.683)"/><path class="d" d="M352.632,242.679l-.482-.488a1.223,1.223,0,0,1-.352-.891,1.235,1.235,0,0,0,.34.85Z" transform="translate(-281.718 -193.701)"/><path class="e" d="M369.2,244.455a38.086,38.086,0,0,1-3.761-3.757c-.28-.3-.564-.618-.852-.928Z" transform="translate(-291.877 -192.486)"/><path class="f" d="M238.488,306.28a1.152,1.152,0,0,1-.14.181l-2.386,2.547a.541.541,0,0,1-.082.058Z" transform="translate(-189.663 -245.305)"/><path class="f" d="M238.488,306.28a1.152,1.152,0,0,1-.14.181l-2.386,2.547a.541.541,0,0,1-.082.058Z" transform="translate(-189.663 -245.305)"/><path class="c" d="M269.567,349.57l-.027.031h0A.117.117,0,0,0,269.567,349.57Z" transform="translate(-216.394 -279.683)"/><path class="g" d="M130.22,41.767l-8.44-30.146a1.235,1.235,0,0,0-1.523-.856l-11.051,3.088L95.193,17.764a1.235,1.235,0,0,0-.667,1.912q.665.92,1.315,1.853l-2.676-.461-19.145,1.1H74a14.241,14.241,0,0,0-1.457.084,20.313,20.313,0,0,0-4.486,1.114c-.823.266-1.822.593-3.113.982l-7.617,2.281a1.18,1.18,0,0,0-.34-.089L46.637,25.383l.064-.076a1.235,1.235,0,0,0-.06-1.657l-12.87-13.2a1.235,1.235,0,0,0-1.723-.043L11.77,29.177a1.235,1.235,0,0,0-.068,1.746l17.677,19.1a1.235,1.235,0,0,0,.906.4,1.029,1.029,0,0,0,.206-.016,1.235,1.235,0,0,0,.928-.706q.362-.791.733-1.575l3.961,4.4-2.857,3.051a5.352,5.352,0,0,0,.247,7.545l.76.71a5.311,5.311,0,0,0,3.646,1.441,5.118,5.118,0,0,0,.64-.039,5.321,5.321,0,0,0,1.67,4.3l.76.712a5.326,5.326,0,0,0,3.648,1.441h.284a5.352,5.352,0,0,0,1.647,4.648l.76.71a5.309,5.309,0,0,0,3.646,1.441,5.1,5.1,0,0,0,.683-.072,5.391,5.391,0,0,0,.039.768,6.464,6.464,0,0,0,6.227,5.558,4.776,4.776,0,0,0,3.537-1.472l3.067-3.273h0a.118.118,0,0,0,.031-.025L64.52,80l.156.159a5.764,5.764,0,0,0,4.082,1.729H68.8A5.789,5.789,0,0,0,74.5,77.151l.054.054a5.787,5.787,0,0,0,9.881-3.5,5.389,5.389,0,0,0,2.577.665,5.748,5.748,0,0,0,5.636-4.657,5.286,5.286,0,0,0-.467-3.522,4.922,4.922,0,0,0,2.608-.836l.051-.037c2.127-1.614,3.705-4.65,2.166-7.5l-.126-.233-.187-.142c-.029-.043-.084-.144-.128-.222-.064-.117-.14-.259-.241-.412L109.863,47.1c.134.325.266.653.4.978a1.235,1.235,0,0,0,1.147.774,1.28,1.28,0,0,0,.368-.056L129.391,43.3a1.235,1.235,0,0,0,.83-1.532ZM29.944,47,14.354,30.151,32.842,13.042,44.107,24.595a105.194,105.194,0,0,0-7.516,10.363A113.3,113.3,0,0,0,29.944,47Zm10.05,14.9a2.882,2.882,0,0,1-4.053.132l-.764-.7a2.87,2.87,0,0,1-.132-4.051l7.884-8.42a2.87,2.87,0,0,1,4.053-.134l.758.712a2.868,2.868,0,0,1,.134,4.051ZM46.7,68.3a2.868,2.868,0,0,1-4.051.134l-.76-.71a2.87,2.87,0,0,1-.134-4.053l7.887-8.42a2.864,2.864,0,0,1,4.051-.132l.76.71a2.864,2.864,0,0,1,.132,4.051ZM53.031,75.1a2.864,2.864,0,0,1-4.051.132l-.76-.71a2.882,2.882,0,0,1-.134-4.053l7.882-8.422a2.864,2.864,0,0,1,4.051-.132l.76.71a2.87,2.87,0,0,1,.134,4.053Zm12.568.163-.319.34L64.228,76.72,63,78.03a.1.1,0,0,1,0-.025l-3.356,3.582c-1,1.066-2.919.9-4.284-.381a3.841,3.841,0,0,1-1.225-2.31,2.369,2.369,0,0,1,.566-1.941l2.966-3.168a.541.541,0,0,1-.082.058L60.2,71.059a1.153,1.153,0,0,1-.14.181l-2.386,2.546a1.088,1.088,0,0,0,.156-.138l2.829-3.02c1-1.066,2.921-.9,4.284.381s1.661,3.181.663,4.247Zm27.777-11.94a2.924,2.924,0,0,1-3.244-.206l-.029-.021a15.589,15.589,0,0,1-1.41-1.044,38.094,38.094,0,0,1-3.761-3.757c-.28-.3-.564-.618-.852-.928h0l-.515-.523a1.235,1.235,0,0,0-1.746-.014,1.258,1.258,0,0,0-.346.642,1.079,1.079,0,0,0-.021.206,1.235,1.235,0,0,0,.34.85l.494.529v.01L87,63.85h0l1.112,1.13c1.53,1.552,2.435,2.612,2.108,4.212a3.372,3.372,0,0,1-2.752,2.662c-1.6.224-2.676-.751-4.255-2.382-.132-.138-.264-.274-.4-.412l-3.582-3.642-2.077-2.11a1.235,1.235,0,0,0-1.76,1.733l2.077,2.11,3.471,3.524h0a1.03,1.03,0,0,0,.107.128,3.322,3.322,0,0,1-4.735,4.661l-6.2-6.3a1.235,1.235,0,1,0-1.76,1.733l2.8,2.843.023.025a3.321,3.321,0,0,1-2.365,5.651h-.027a3.294,3.294,0,0,1-2.341-.99l-.206-.218,1.182-1.262C69.345,74.886,69,71.409,66.64,69.2a6.382,6.382,0,0,0-3.279-1.647,5.342,5.342,0,0,0-.875-6.732l-.758-.712A5.328,5.328,0,0,0,57.8,58.671a5.352,5.352,0,0,0-1.647-4.648l-.76-.71a5.324,5.324,0,0,0-4.284-1.4,4.842,4.842,0,0,0,.014-.574,5.305,5.305,0,0,0-1.686-3.72l-.76-.7a5.352,5.352,0,0,0-7.543.247L37.8,50.72l-4.475-4.99q2.438-4.853,5.352-9.445a102.194,102.194,0,0,1,6.116-8.607l9.122,1.029a6.025,6.025,0,0,0-.642.957,5.857,5.857,0,0,0,6.832,8.4l9.675-2.872.282-.082a1.223,1.223,0,0,0,.3.795l.019.021a21.984,21.984,0,0,0,6,4.875c.461.255.922.488,1.379.7a1.256,1.256,0,0,0,.229.3c1.742,1.688,3.479,3.426,5.167,5.169.655.675,1.313,1.363,1.958,2.046l.051.051c3.166,2.979,5.888,5.711,9.087,9.115.045.074.089.154.134.237a3.337,3.337,0,0,0,.521.758c.7,1.5-.278,3.181-1.532,4.144Zm1.266-8.352C92,52.2,89.61,49.821,86.9,47.272c-.644-.681-1.3-1.369-1.954-2.042s-1.365-1.4-2.059-2.1a22.624,22.624,0,0,0,4.249.412h0a1.235,1.235,0,1,0,0-2.47,19.832,19.832,0,0,1-9.548-2.451,19.4,19.4,0,0,1-5.227-4.211h-.021a.988.988,0,0,0-.1-.144c.041.045.082.093.126.138l.292-.086a1.235,1.235,0,1,0-.7-2.367L59.392,35.674a3.387,3.387,0,0,1-1.945-6.489l8.006-2.4.206-.06c1.313-.4,2.339-.729,3.162-1a18.075,18.075,0,0,1,3.961-1H72.8c.412-.045.852-.07,1.285-.074h.126l18.824-1.079,4.735.823c2.131,3.193,4.1,6.462,5.916,9.766,1.892,3.454,3.633,7,5.194,10.592Zm17.488-8.877q-.282-.679-.57-1.357a.877.877,0,0,0-.043-.1c-1.686-3.948-3.584-7.858-5.661-11.65-1.923-3.51-4.035-6.989-6.3-10.386a.311.311,0,0,0-.037-.054q-.957-1.441-1.954-2.851L119.74,13.48l7.777,27.8Z" transform="translate(-11.374 -10.082)"/><path class="h" d="M307.186,127.7h-.021a.985.985,0,0,0-.1-.144C307.1,127.611,307.142,127.651,307.186,127.7Z" transform="translate(-246.19 -103.376)"/><path class="i" d="M311.045,80.86l-1.285.074C310.182,80.889,310.614,80.864,311.045,80.86Z" transform="translate(-248.334 -66.29)"/><path class="h" d="M307.186,127.7h-.021a.985.985,0,0,0-.1-.144C307.1,127.611,307.142,127.651,307.186,127.7Z" transform="translate(-246.19 -103.376)"/><path class="j" d="M295.751,132.4a.2.2,0,0,1-.021-.021c-.175-.206-.35-.412-.517-.618a.9.9,0,0,1-.064-.091l.282-.082a1.223,1.223,0,0,0,.3.795Z" transform="translate(-236.732 -106.576)"/></svg>