<svg id="Capa_1" data-name="Capa 1" xmlns="http://www.w3.org/2000/svg" xmlns:xlink="http://www.w3.org/1999/xlink" viewBox="0 0 599.79 382.84"><defs><style>.cls-1{fill:url(#linear-gradient);}.cls-2{fill:url(#linear-gradient-2);}.cls-3{fill:url(#linear-gradient-3);}.cls-4{fill:url(#linear-gradient-4);}.cls-5{fill:url(#linear-gradient-5);}.cls-6{fill:url(#linear-gradient-6);}.cls-7{fill:url(#linear-gradient-9);}.cls-8{fill:url(#linear-gradient-10);}.cls-9{fill:url(#linear-gradient-11);}.cls-10{fill:url(#linear-gradient-13);}</style><linearGradient id="linear-gradient" x1="351.9" y1="237.79" x2="364.56" y2="237.79" gradientUnits="userSpaceOnUse"><stop offset="0" stop-color="#992836"/><stop offset="1" stop-color="#4d141b"/></linearGradient><linearGradient id="linear-gradient-2" x1="355.89" y1="259.68" x2="378.78" y2="259.68" xlink:href="#linear-gradient"/><linearGradient id="linear-gradient-3" x1="269.52" y1="349.64" x2="269.67" y2="349.64" xlink:href="#linear-gradient"/><linearGradient id="linear-gradient-4" x1="351.8" y1="244.66" x2="355.85" y2="244.66" xlink:href="#linear-gradient"/><linearGradient id="linear-gradient-5" x1="364.57" y1="251.15" x2="386.98" y2="251.15" xlink:href="#linear-gradient"/><linearGradient id="linear-gradient-6" x1="235.88" y1="313.04" x2="248.55" y2="313.04" xlink:href="#linear-gradient"/><linearGradient id="linear-gradient-9" x1="11.38" y1="191.42" x2="588.91" y2="191.42" xlink:href="#linear-gradient"/><linearGradient id="linear-gradient-10" x1="307.06" y1="127.94" x2="307.67" y2="127.94" xlink:href="#linear-gradient"/><linearGradient id="linear-gradient-11" x1="309.77" y1="81.04" x2="316.01" y2="81.04" xlink:href="#linear-gradient"/><linearGradient id="linear-gradient-13" x1="295.15" y1="133.55" x2="298.07" y2="133.55" xlink:href="#linear-gradient"/></defs><path class="cls-1" d="M364.56,239.76l-2.5-2.54a6,6,0,0,0-8.48-.07,6.11,6.11,0,0,0-1.68,3.12,5.8,5.8,0,0,1,1.78-3.31,6,6,0,0,1,8.48.23C363,238,363.76,238.89,364.56,239.76Z"/><path class="cls-2" d="M378.78,271.31c-6.95-5.83-13-12.46-18.93-18.94l-4-4.31Z"/><path class="cls-3" d="M269.67,349.57l-.13.15,0,0A.57.57,0,0,0,269.67,349.57Z"/><path class="cls-4" d="M355.85,248l-2.34-2.37a5.94,5.94,0,0,1-1.71-4.33,6,6,0,0,0,1.65,4.13Z"/><path class="cls-5" d="M387,262.53c-6.48-5.35-12.25-11.66-18.27-18.25-1.36-1.48-2.74-3-4.14-4.51Z"/><path class="cls-6" d="M248.55,306.28a5.6,5.6,0,0,1-.68.88l-11.59,12.37a2.63,2.63,0,0,1-.4.28Z"/><path class="cls-6" d="M248.55,306.28a5.6,5.6,0,0,1-.68.88l-11.59,12.37a2.63,2.63,0,0,1-.4.28Z"/><path class="cls-3" d="M269.67,349.57l-.13.15,0,0A.57.57,0,0,0,269.67,349.57Z"/><path class="cls-7" d="M588.69,164l-41-146.44a6,6,0,0,0-7.4-4.16l-53.68,15-68.07,19a6,6,0,0,0-3.24,9.29q3.23,4.47,6.39,9l-13-2.24-93,5.34h-.11c-2.38,0-4.75.17-7.08.41-7.61.81-12.95,2.54-21.79,5.41-4,1.29-8.85,2.88-15.12,4.77l-37,11.08a5.73,5.73,0,0,0-1.65-.43l-50.27-5.62.31-.37a6,6,0,0,0-.29-8.05L120.17,11.89a6,6,0,0,0-8.37-.21L13.3,102.84a6,6,0,0,0-.33,8.48l85.87,92.79a6,6,0,0,0,4.4,1.92,5,5,0,0,0,1-.08,6,6,0,0,0,4.51-3.43q1.76-3.84,3.56-7.65l19.24,21.39-13.88,14.82a26,26,0,0,0,1.2,36.65l3.69,3.45a25.8,25.8,0,0,0,17.71,7,24.85,24.85,0,0,0,3.11-.19,25.85,25.85,0,0,0,8.11,20.87l3.69,3.46a25.87,25.87,0,0,0,17.72,7c.46,0,.92,0,1.38,0a26,26,0,0,0,8,22.58l3.69,3.45a25.79,25.79,0,0,0,17.71,7A24.76,24.76,0,0,0,207,342a26.19,26.19,0,0,0,.19,3.73,31.4,31.4,0,0,0,30.25,27,23.2,23.2,0,0,0,17.18-7.15l14.9-15.9,0,0a.57.57,0,0,0,.15-.12l-.13.15.76.77a28,28,0,0,0,19.83,8.4h.22a28.12,28.12,0,0,0,27.66-23l.26.26a28.11,28.11,0,0,0,48-17,26.18,26.18,0,0,0,12.52,3.23,27.92,27.92,0,0,0,27.38-22.62,25.68,25.68,0,0,0-2.27-17.11,23.91,23.91,0,0,0,12.67-4.06l.25-.18c10.33-7.84,18-22.59,10.52-36.42l-.61-1.13-.91-.69c-.14-.21-.41-.7-.62-1.08-.31-.57-.68-1.26-1.17-2l65.77-47.19c.65,1.58,1.29,3.17,1.93,4.75a6,6,0,0,0,5.57,3.76,6.22,6.22,0,0,0,1.79-.27l85.57-26.69A6,6,0,0,0,588.69,164ZM101.58,189.4,25.85,107.57l89.81-83.11,54.72,56.12a511,511,0,0,0-36.51,50.34A550.35,550.35,0,0,0,101.58,189.4Zm48.82,72.38a14,14,0,0,1-19.69.64L127,259a13.94,13.94,0,0,1-.64-19.68l38.3-40.9a13.94,13.94,0,0,1,19.69-.65l3.68,3.46a13.93,13.93,0,0,1,.65,19.68ZM183,292.9a13.93,13.93,0,0,1-19.68.65l-3.69-3.45a13.94,13.94,0,0,1-.65-19.69l38.31-40.9a13.91,13.91,0,0,1,19.68-.64l3.69,3.45a13.91,13.91,0,0,1,.64,19.68Zm30.73,33a13.91,13.91,0,0,1-19.68.64l-3.69-3.45a14,14,0,0,1-.65-19.69L228,262.49a13.91,13.91,0,0,1,19.68-.64l3.69,3.45a13.94,13.94,0,0,1,.65,19.69Zm61.05.79-1.55,1.65-5.11,5.45-5.95,6.36a.49.49,0,0,1,0-.12l-16.3,17.4c-4.85,5.18-14.18,4.35-20.81-1.85a18.66,18.66,0,0,1-5.95-11.22,11.51,11.51,0,0,1,2.75-9.43l14.41-15.39a2.63,2.63,0,0,1-.4.28l12.67-13.53a5.6,5.6,0,0,1-.68.88l-11.59,12.37a5.29,5.29,0,0,0,.76-.67l13.74-14.67c4.85-5.18,14.19-4.35,20.81,1.85S279.65,321.5,274.8,326.68Zm134.93-58c-4.4,2.91-10.72,2.52-15.76-1l-.14-.1a75.73,75.73,0,0,1-6.85-5.07c-6.48-5.35-12.25-11.66-18.27-18.25-1.36-1.48-2.74-3-4.14-4.51h0l-2.5-2.54a6,6,0,0,0-8.48-.07,6.11,6.11,0,0,0-1.68,3.12,5.24,5.24,0,0,0-.1,1,6,6,0,0,0,1.65,4.13l2.4,2.57,0,.05,22.89,23.25,0,0,5.4,5.49c7.43,7.54,11.83,12.69,10.24,20.46A16.38,16.38,0,0,1,381,310.15c-7.75,1.09-13-3.65-20.67-11.57-.64-.67-1.28-1.33-1.93-2L341,278.89l-10.09-10.25a6,6,0,1,0-8.55,8.42l10.09,10.25,16.86,17.12h0a5,5,0,0,0,.52.62,16.13,16.13,0,1,1-23,22.64l-30.13-30.61a6,6,0,0,0-8.55,8.42l13.59,13.81.11.12a16.13,16.13,0,0,1-11.49,27.45h-.13a16,16,0,0,1-11.37-4.81l-1-1.06,5.74-6.13c9.38-10,7.69-26.89-3.76-37.61a31,31,0,0,0-15.93-8,25.95,25.95,0,0,0-4.25-32.7l-3.68-3.46a25.88,25.88,0,0,0-19.1-7,26,26,0,0,0-8-22.58l-3.69-3.45a25.86,25.86,0,0,0-20.81-6.81,23.52,23.52,0,0,0,.07-2.79,25.77,25.77,0,0,0-8.19-18.07L192.57,189a26,26,0,0,0-36.64,1.2l-16.19,17.29L118,183.25a527.45,527.45,0,0,1,26-45.88,496.42,496.42,0,0,1,29.71-41.81l44.31,5a29.27,29.27,0,0,0-3.12,4.65,28.48,28.48,0,0,0,25,42,28.74,28.74,0,0,0,8.19-1.2l47-13.95,1.37-.4a5.94,5.94,0,0,0,1.46,3.86l.09.1a106.79,106.79,0,0,0,29.17,23.68c2.24,1.24,4.48,2.37,6.7,3.4a6.1,6.1,0,0,0,1.11,1.44c8.46,8.2,16.9,16.64,25.1,25.11,3.18,3.28,6.38,6.62,9.51,9.94l.25.25c15.38,14.47,28.6,27.74,44.14,44.28.22.36.43.75.65,1.15a16.21,16.21,0,0,0,2.53,3.68C420.58,255.82,415.82,264,409.73,268.68Zm6.15-40.57c-12.82-13.43-24.44-25-37.62-37.38-3.13-3.31-6.32-6.65-9.49-9.92s-6.63-6.8-10-10.19a109.9,109.9,0,0,0,20.64,2h0a6,6,0,0,0,0-12,96.35,96.35,0,0,1-46.39-11.91,94.26,94.26,0,0,1-25.38-20.45l-.1,0a4.8,4.8,0,0,0-.51-.7c.2.22.4.45.61.67l1.42-.42a6,6,0,1,0-3.41-11.5l-61,18.08a16.45,16.45,0,0,1-9.45-31.52l38.89-11.66,1-.29c6.38-1.93,11.36-3.54,15.36-4.84,8.59-2.79,12.93-4.2,19.24-4.88h.1c2-.22,4.14-.34,6.24-.36l.61,0,91.44-5.24,23,4C441.41,95.12,451,111,459.8,127.05c9.19,16.78,17.65,34,25.23,51.45ZM500.81,185q-1.37-3.3-2.77-6.59a4.25,4.25,0,0,0-.21-.49c-8.19-19.18-17.41-38.17-27.5-56.59-9.34-17.05-19.6-33.95-30.62-50.45a1.51,1.51,0,0,0-.18-.26q-4.65-7-9.49-13.85L537.78,26.59l37.78,135.06Z"/><path class="cls-8" d="M307.67,128.26l-.1,0a4.8,4.8,0,0,0-.51-.7C307.26,127.81,307.46,128,307.67,128.26Z"/><path class="cls-9" d="M316,80.86l-6.24.36C311.81,81,313.91,80.88,316,80.86Z"/><path class="cls-8" d="M307.67,128.26l-.1,0a4.8,4.8,0,0,0-.51-.7C307.26,127.81,307.46,128,307.67,128.26Z"/><path class="cls-10" d="M298.07,135.53a.94.94,0,0,1-.1-.1c-.85-1-1.7-2-2.51-3a4.37,4.37,0,0,1-.31-.44l1.37-.4a5.94,5.94,0,0,0,1.46,3.86Z"/></svg>