<svg id="Capa_1" data-name="Capa 1" xmlns="http://www.w3.org/2000/svg" xmlns:xlink="http://www.w3.org/1999/xlink" viewBox="0 0 512 512"><defs><style>.cls-1{fill:url(#linear-gradient);}</style><linearGradient id="linear-gradient" x1="1.78" y1="256" x2="510.53" y2="256" gradientUnits="userSpaceOnUse"><stop offset="0" stop-color="#992836"/><stop offset="1" stop-color="#4d141b"/></linearGradient></defs><path class="cls-1" d="M510.25,231.47,474.48,103.62a7.49,7.49,0,0,0-9.24-5.2L447,103.51a7.5,7.5,0,0,0,4,14.44l11-3.07L493.84,228.5l-61.2,19.09c-.51-1.24-1.05-2.48-1.57-3.72-.08-.2-.16-.39-.25-.59-7.18-16.8-15.25-33.45-24.1-49.59-8.12-14.84-17.05-29.53-26.63-43.9-.15-.25-.31-.48-.48-.71-2.09-3.13-4.21-6.26-6.36-9.35L412,128.87a7.5,7.5,0,1,0-4-14.44l-49.06,13.72a7.5,7.5,0,0,0-4.06,11.62c.81,1.11,1.6,2.24,2.39,3.36l-5.33-.92a6.91,6.91,0,0,0-1.7-.1l-80.69,4.64c-2.14,0-4.26.15-6.32.37-6.89.73-11.63,2.27-19.49,4.82-3.44,1.12-7.71,2.5-13.17,4.15L199,165.55a8.38,8.38,0,0,0-1.23-.25l-40.6-4.54a7.5,7.5,0,0,0-1.91-7l-54.63-56a7.5,7.5,0,0,0-10.47-.26L4.19,177a7.5,7.5,0,0,0-.41,10.6l75,81a7.48,7.48,0,0,0,5.5,2.41,7.85,7.85,0,0,0,1.19-.1,7.53,7.53,0,0,0,5.64-4.29c.54-1.19,1.11-2.37,1.66-3.56l13.11,14.59-9.34,10a26.87,26.87,0,0,0,1.24,38l.33.3a26.66,26.66,0,0,0,18.35,7.26h.91l.4,0c0,.3,0,.6,0,.9a26.72,26.72,0,0,0,8.49,18.74l.33.31a26.71,26.71,0,0,0,18.06,7.25,26.84,26.84,0,0,0,8.44,21.23l.34.31a26.74,26.74,0,0,0,18.36,7.25l.87,0c0,.63.07,1.26.14,1.9a29.67,29.67,0,0,0,28.66,25.55,22.52,22.52,0,0,0,16.66-6.95l11.41-12.19a26.63,26.63,0,0,0,17.9,7h.21A26.85,26.85,0,0,0,273,386.26a26.64,26.64,0,0,0,16.27,5.66h.21a26.84,26.84,0,0,0,26.21-21.13,24.33,24.33,0,0,0,9.06,1.75,27.14,27.14,0,0,0,3.75-.27A26.85,26.85,0,0,0,351,351a24.35,24.35,0,0,0-.89-13.47,22.8,22.8,0,0,0,9-3.58l.32-.23c11.94-9.07,16-23.33,9.8-34.68a7.64,7.64,0,0,0-1.57-2l-.3-.53v0l53.41-38.32c.2.49.41,1,.6,1.47a7.51,7.51,0,0,0,7,4.71,7.62,7.62,0,0,0,2.24-.34l74.71-23.31A7.5,7.5,0,0,0,510.25,231.47ZM19.88,182.92,95,113.39l44.82,46A448.86,448.86,0,0,0,109.09,202,477.68,477.68,0,0,0,82.2,250.26Zm97,135.27a11.82,11.82,0,0,1-8.5-3.2l-.33-.31a11.88,11.88,0,0,1-.55-16.79h0l30.73-32.82a11.88,11.88,0,0,1,16.79-.55l.33.31a11.88,11.88,0,0,1,.55,16.79l-30.74,32.82A11.85,11.85,0,0,1,116.84,318.19Zm19.65,23.66a11.88,11.88,0,0,1-.55-16.79l30.73-32.81a11.87,11.87,0,0,1,16.79-.56l.33.32a11.87,11.87,0,0,1,.55,16.78L153.6,341.61a11.87,11.87,0,0,1-16.78.55ZM163.65,371l-.33-.31a11.89,11.89,0,0,1-.55-16.79L193.51,321a11.89,11.89,0,0,1,16.78-.55l.33.31a11.89,11.89,0,0,1,.55,16.79L180.44,370.4A11.9,11.9,0,0,1,163.65,371Zm43.49,28.42c-3.33,3.55-10.19,2.76-15-1.72a14.23,14.23,0,0,1-4.49-8.42,8,8,0,0,1,1.8-6.41L202,369.51a7.36,7.36,0,0,0,.77-.71l12-12.8c3.33-3.55,10.18-2.77,15,1.72a14.17,14.17,0,0,1,4.5,8.41,8,8,0,0,1-1.8,6.41l-1.24,1.32a7.36,7.36,0,0,0-.77.71L227,378.13a7.47,7.47,0,0,0-6.26,6.68Zm48.76-13.31a11.81,11.81,0,0,1-16.08.47l3.5-3.74a22.83,22.83,0,0,0,5.75-18.45q-.15-1.26-.42-2.49l7.34,7.45s0,0,0,0a11.82,11.82,0,0,1-.13,16.72Zm94.62-64.46c-3,1.95-7.59,1.6-11.16-.88l-.17-.11a66,66,0,0,1-5.68-4.2L314,296.56l-2-2.16a7.5,7.5,0,0,0-12.81,3.72c0,.08,0,.16,0,.25s0,.22-.05.34a7.47,7.47,0,0,0,2.09,6.21l2,2c1.18,1.26,2.35,2.54,3.5,3.8a178.21,178.21,0,0,0,16.6,16.61l4.72,4.79c6.51,6.62,9.46,10.33,8.33,15.83a12,12,0,0,1-9.83,9.45c-5.83.82-9.92-3.06-16.11-9.44-.57-.58-1.13-1.17-1.7-1.74L292.3,329.65l-7.7-7.82a7.5,7.5,0,0,0-10.69,10.52l7.71,7.82,15.72,16a8.55,8.55,0,0,0,.57.65,11.85,11.85,0,0,1-.13,16.72,11.82,11.82,0,0,1-16.72-.13l-26.31-26.72a7.49,7.49,0,0,0-10.6-.08,7.34,7.34,0,0,0-1.77,2.75,31.07,31.07,0,0,0-2.44-2.57,29.6,29.6,0,0,0-12.6-7,26.93,26.93,0,0,0-6.46-29.87l-.34-.31a26.77,26.77,0,0,0-18-7.24c.05-.83.06-1.67,0-2.51a26.69,26.69,0,0,0-8.48-18.73l-.34-.31a26.74,26.74,0,0,0-19.25-7.25l-.4,0c0-.31,0-.61,0-.91a26.66,26.66,0,0,0-8.49-18.73l-.33-.31a26.87,26.87,0,0,0-38,1.24l-11.09,11.85L99.83,248.52c6.78-13.33,14.1-26.23,21.91-38.5s16.17-24.06,25-35.33l33.64,3.76c-.23.38-.45.77-.67,1.17a27.09,27.09,0,0,0,31.62,38.82L251,206.7c.5.61,1,1.24,1.58,1.89h0a95.84,95.84,0,0,0,26.16,21.26c1.8,1,3.59,1.89,5.38,2.74a7.28,7.28,0,0,0,1,1.13c7.38,7.15,14.73,14.51,21.86,21.87,2.75,2.83,5.54,5.75,8.29,8.66l.31.31c13.34,12.56,24.82,24.06,38.27,38.39.13.21.26.45.4.71a17.61,17.61,0,0,0,2.26,3.37C358.58,312.25,355,318.12,350.52,321.61Zm7-36.56C346.82,273.92,337,264.21,326,253.8c-2.75-2.91-5.52-5.81-8.26-8.64-1.3-1.34-2.62-2.69-3.94-4a97.21,97.21,0,0,0,11.61.72h0a7.5,7.5,0,0,0,0-15A81.9,81.9,0,0,1,286,216.73a80.51,80.51,0,0,1-19.39-15,7.5,7.5,0,0,0-6.24-13.46l-53.27,15.78a12.1,12.1,0,1,1-7-23.18l34-10.18.84-.25c5.6-1.69,10-3.11,13.45-4.24,7.34-2.39,11.05-3.59,16.3-4.16l85.57-4.91,18.88,3.25c8.77,13.28,17,26.83,24.45,40.5,7.69,14.05,14.79,28.48,21.2,43.06Z"/></svg>