<svg id="Terceirização" xmlns="http://www.w3.org/2000/svg" xmlns:xlink="http://www.w3.org/1999/xlink" width="113.871" height="71.5" viewBox="0 0 113.871 71.5">
  <defs>
    <linearGradient id="linear-gradient" y1="0.499" x2="1" y2="0.499" gradientUnits="objectBoundingBox">
      <stop offset="0" stop-color="#992836"/>
      <stop offset="1" stop-color="#4d141b"/>
    </linearGradient>
    <linearGradient id="linear-gradient-2" x1="0.002" y1="0.5" x2="1" y2="0.5" xlink:href="#linear-gradient"/>
    <linearGradient id="linear-gradient-3" x1="-0.154" y1="0.467" x2="1" y2="0.467" xlink:href="#linear-gradient"/>
    <linearGradient id="linear-gradient-4" x1="0.001" y1="0.501" x2="1" y2="0.501" xlink:href="#linear-gradient"/>
    <linearGradient id="linear-gradient-5" x1="-0.001" y1="0.5" x2="0.999" y2="0.5" xlink:href="#linear-gradient"/>
    <linearGradient id="linear-gradient-6" x1="0" y1="0.5" x2="1" y2="0.5" xlink:href="#linear-gradient"/>
    <linearGradient id="linear-gradient-9" x1="0" y1="0.5" x2="1" y2="0.5" xlink:href="#linear-gradient"/>
    <linearGradient id="linear-gradient-10" x1="0" y1="0.543" x2="1" y2="0.543" xlink:href="#linear-gradient"/>
    <linearGradient id="linear-gradient-11" x1="0.002" y1="0.5" x2="1.002" y2="0.5" xlink:href="#linear-gradient"/>
    <linearGradient id="linear-gradient-13" x1="0" y1="0.497" x2="1" y2="0.497" xlink:href="#linear-gradient"/>
  </defs>
  <path id="Caminho_333" data-name="Caminho 333" d="M354.4,236.193l-.493-.5a1.183,1.183,0,0,0-1.672-.014,1.2,1.2,0,0,0-.331.615,1.143,1.143,0,0,1,.351-.653,1.183,1.183,0,0,1,1.672.045C354.088,235.846,354.238,236.022,354.4,236.193Z" transform="translate(-284.763 -190.91)" fill="url(#linear-gradient)"/>
  <path id="Caminho_334" data-name="Caminho 334" d="M360.371,252.644a39.941,39.941,0,0,1-3.732-3.734l-.789-.85Z" transform="translate(-287.934 -201.141)" fill="url(#linear-gradient-2)"/>
  <path id="Caminho_335" data-name="Caminho 335" d="M269.566,349.57l-.026.03h0A.112.112,0,0,0,269.566,349.57Z" transform="translate(-218.641 -282.637)" fill="url(#linear-gradient-3)"/>
  <path id="Caminho_336" data-name="Caminho 336" d="M352.6,242.621l-.461-.467a1.171,1.171,0,0,1-.337-.854,1.183,1.183,0,0,0,.325.814Z" transform="translate(-284.681 -195.714)" fill="url(#linear-gradient-4)"/>
  <path id="Caminho_337" data-name="Caminho 337" d="M369.008,244.257a36.49,36.49,0,0,1-3.6-3.6c-.268-.292-.54-.591-.816-.889Z" transform="translate(-294.951 -194.485)" fill="url(#linear-gradient-5)"/>
  <path id="Caminho_338" data-name="Caminho 338" d="M238.378,306.28a1.1,1.1,0,0,1-.134.174l-2.285,2.439a.52.52,0,0,1-.079.055Z" transform="translate(-191.617 -247.882)" fill="url(#linear-gradient-6)"/>
  <path id="Caminho_339" data-name="Caminho 339" d="M238.378,306.28a1.1,1.1,0,0,1-.134.174l-2.285,2.439a.52.52,0,0,1-.079.055Z" transform="translate(-191.617 -247.882)" fill="url(#linear-gradient-6)"/>
  <path id="Caminho_340" data-name="Caminho 340" d="M269.566,349.57l-.026.03h0A.112.112,0,0,0,269.566,349.57Z" transform="translate(-218.641 -282.637)" fill="url(#linear-gradient-3)"/>
  <path id="Caminho_341" data-name="Caminho 341" d="M125.2,40.428l-8.083-28.872a1.183,1.183,0,0,0-1.459-.82L105.07,13.693,91.65,17.439a1.183,1.183,0,0,0-.639,1.832q.637.881,1.26,1.774L89.708,20.6,71.372,21.657H71.35a13.638,13.638,0,0,0-1.4.081,19.455,19.455,0,0,0-4.3,1.067c-.789.254-1.745.568-2.981.94l-7.295,2.185a1.13,1.13,0,0,0-.325-.085l-9.911-1.108.061-.073a1.183,1.183,0,0,0-.057-1.587L32.824,10.438a1.183,1.183,0,0,0-1.65-.041L11.754,28.37a1.183,1.183,0,0,0-.065,1.672l16.93,18.294a1.183,1.183,0,0,0,.867.379.986.986,0,0,0,.2-.016,1.183,1.183,0,0,0,.889-.676q.347-.757.7-1.508l3.793,4.217-2.737,2.922a5.126,5.126,0,0,0,.237,7.226l.728.68a5.087,5.087,0,0,0,3.492,1.38A4.9,4.9,0,0,0,37.4,62.9,5.1,5.1,0,0,0,39,67.017l.728.682a5.1,5.1,0,0,0,3.494,1.38h.272a5.126,5.126,0,0,0,1.577,4.452l.728.68a5.085,5.085,0,0,0,3.492,1.38,4.881,4.881,0,0,0,.655-.069,5.164,5.164,0,0,0,.037.735,6.191,6.191,0,0,0,5.964,5.323,4.574,4.574,0,0,0,3.387-1.41l2.938-3.135h0a.113.113,0,0,0,.03-.024l-.026.03.15.152a5.52,5.52,0,0,0,3.91,1.656h.043a5.544,5.544,0,0,0,5.453-4.535l.051.051a5.542,5.542,0,0,0,9.464-3.352,5.162,5.162,0,0,0,2.468.637,5.5,5.5,0,0,0,5.4-4.46,5.063,5.063,0,0,0-.448-3.373,4.714,4.714,0,0,0,2.5-.8l.049-.035c2.037-1.546,3.549-4.454,2.074-7.18l-.12-.223-.179-.136c-.028-.041-.081-.138-.122-.213-.061-.112-.134-.248-.231-.394l12.967-9.3c.128.312.254.625.381.937a1.183,1.183,0,0,0,1.1.741,1.226,1.226,0,0,0,.353-.053L124.4,41.895a1.183,1.183,0,0,0,.795-1.467ZM29.159,45.436,14.228,29.3,31.935,12.917,42.723,23.981a100.746,100.746,0,0,0-7.2,9.925,108.506,108.506,0,0,0-6.366,11.53Zm9.625,14.27a2.76,2.76,0,0,1-3.882.126l-.731-.674a2.748,2.748,0,0,1-.126-3.88L41.6,47.214a2.748,2.748,0,0,1,3.882-.128l.726.682a2.746,2.746,0,0,1,.128,3.88Zm6.427,6.136a2.746,2.746,0,0,1-3.88.128l-.728-.68a2.748,2.748,0,0,1-.128-3.882l7.553-8.064a2.742,2.742,0,0,1,3.88-.126l.728.68a2.742,2.742,0,0,1,.126,3.88Zm6.059,6.506a2.742,2.742,0,0,1-3.88.126l-.728-.68a2.76,2.76,0,0,1-.128-3.882l7.549-8.066a2.742,2.742,0,0,1,3.88-.126l.728.68a2.748,2.748,0,0,1,.128,3.882Zm12.036.156L63,72.829,61.993,73.9,60.82,75.157a.1.1,0,0,1,0-.024l-3.214,3.431c-.956,1.021-2.8.858-4.1-.365a3.679,3.679,0,0,1-1.173-2.212,2.269,2.269,0,0,1,.542-1.859l2.841-3.034a.517.517,0,0,1-.079.055l2.5-2.668a1.1,1.1,0,0,1-.134.174l-2.285,2.439a1.042,1.042,0,0,0,.15-.132l2.709-2.892c.956-1.021,2.8-.858,4.1.365s1.591,3.046.635,4.067Zm26.6-11.435a2.8,2.8,0,0,1-3.107-.2l-.028-.02a14.929,14.929,0,0,1-1.351-1,36.483,36.483,0,0,1-3.6-3.6c-.268-.292-.54-.591-.816-.889h0l-.493-.5a1.183,1.183,0,0,0-1.672-.014,1.2,1.2,0,0,0-.331.615,1.032,1.032,0,0,0-.02.2,1.183,1.183,0,0,0,.325.814l.473.507v.01L83.8,61.577h0l1.065,1.082c1.465,1.487,2.332,2.5,2.019,4.034a3.229,3.229,0,0,1-2.636,2.549c-1.528.215-2.563-.72-4.075-2.281-.126-.132-.252-.262-.381-.394l-3.431-3.488-1.989-2.021a1.183,1.183,0,0,0-1.686,1.66l1.989,2.021L78,68.115h0a.987.987,0,0,0,.1.122A3.181,3.181,0,0,1,73.568,72.7l-5.94-6.035a1.183,1.183,0,0,0-1.686,1.66l2.679,2.723.022.024a3.18,3.18,0,0,1-2.265,5.412h-.026a3.155,3.155,0,0,1-2.242-.948l-.2-.209,1.132-1.209c1.849-1.972,1.516-5.3-.741-7.415a6.112,6.112,0,0,0-3.141-1.577,5.116,5.116,0,0,0-.838-6.447L59.6,58a5.1,5.1,0,0,0-3.766-1.38,5.126,5.126,0,0,0-1.577-4.452l-.728-.68a5.1,5.1,0,0,0-4.1-1.343,4.638,4.638,0,0,0,.014-.55,5.081,5.081,0,0,0-1.615-3.563l-.728-.672a5.126,5.126,0,0,0-7.224.237L36.682,49,32.4,44.223q2.335-4.648,5.126-9.046a97.874,97.874,0,0,1,5.858-8.243l8.736.986a5.771,5.771,0,0,0-.615.917,5.609,5.609,0,0,0,6.544,8.044l9.266-2.75.27-.079a1.171,1.171,0,0,0,.288.761l.018.02A21.055,21.055,0,0,0,73.637,39.5c.442.244.883.467,1.321.67a1.2,1.2,0,0,0,.219.284c1.668,1.617,3.332,3.281,4.949,4.951.627.647,1.258,1.305,1.875,1.96l.049.049c3.032,2.853,5.639,5.469,8.7,8.73.043.071.085.148.128.227a3.2,3.2,0,0,0,.5.726c.672,1.433-.266,3.046-1.467,3.969Zm1.213-8C88.594,50.422,86.3,48.141,83.7,45.7c-.617-.653-1.246-1.311-1.871-1.956s-1.307-1.341-1.972-2.009a21.668,21.668,0,0,0,4.069.394h0a1.183,1.183,0,0,0,0-2.366,18.994,18.994,0,0,1-9.144-2.347,18.584,18.584,0,0,1-5.006-4.033h-.02a.946.946,0,0,0-.1-.138c.039.043.079.089.12.132l.28-.083a1.183,1.183,0,1,0-.672-2.267L57.362,34.592A3.244,3.244,0,0,1,55.5,28.378l7.667-2.3.2-.057c1.258-.381,2.24-.7,3.028-.954a17.311,17.311,0,0,1,3.793-.962h.02c.394-.043.816-.067,1.23-.071h.12L89.584,23l4.535.789c2.041,3.058,3.931,6.189,5.666,9.353,1.812,3.308,3.48,6.7,4.974,10.144Zm16.749-8.5q-.27-.651-.546-1.3a.84.84,0,0,0-.041-.1c-1.615-3.781-3.433-7.526-5.422-11.157-1.841-3.362-3.864-6.694-6.037-9.947a.3.3,0,0,0-.035-.051q-.917-1.38-1.871-2.731l21.242-5.95,7.449,26.628Z" transform="translate(-11.374 -10.082)" fill="url(#linear-gradient-9)"/>
  <path id="Caminho_342" data-name="Caminho 342" d="M307.18,127.7h-.02a.943.943,0,0,0-.1-.138C307.1,127.609,307.139,127.647,307.18,127.7Z" transform="translate(-248.763 -104.398)" fill="url(#linear-gradient-10)"/>
  <path id="Caminho_343" data-name="Caminho 343" d="M310.99,80.86l-1.23.071C310.164,80.888,310.578,80.864,310.99,80.86Z" transform="translate(-250.931 -66.906)" fill="url(#linear-gradient-11)"/>
  <path id="Caminho_344" data-name="Caminho 344" d="M307.18,127.7h-.02a.943.943,0,0,0-.1-.138C307.1,127.609,307.139,127.647,307.18,127.7Z" transform="translate(-248.763 -104.398)" fill="url(#linear-gradient-10)"/>
  <path id="Caminho_345" data-name="Caminho 345" d="M295.726,132.367l-.02-.02c-.168-.2-.335-.394-.495-.591a.86.86,0,0,1-.061-.087l.27-.079a1.171,1.171,0,0,0,.288.761Z" transform="translate(-239.201 -107.634)" fill="url(#linear-gradient-13)"/>
</svg>
